<?xml version="1.0" standalone="no"?>
<!DOCTYPE svg PUBLIC "-//W3C//DTD SVG 1.1//EN" "http://www.w3.org/Graphics/SVG/1.1/DTD/svg11.dtd" >
<svg>
<metadata>
Created by FontForge 20090914 at Sun Aug  7 21:23:31 2022
 By www-data
OriginalbyAnonym
</metadata>
<defs>
<font id="PerfectDOSVGA437" horiz-adv-x="576" >
  <font-face 
    font-family="PerfectDOSVGA437"
    font-weight="500"
    font-stretch="normal"
    units-per-em="1024"
    panose-1="2 0 6 9 0 0 0 0 0 0"
    ascent="768"
    descent="-256"
    x-height="448"
    cap-height="640"
    bbox="0 -256 576 768"
    underline-thickness="51"
    underline-position="-103"
    unicode-range="U+0020-U+3000"
  />
<missing-glyph 
d="M34 0v682h272v-682h-272zM68 34h204v614h-204v-614z" />
    <glyph glyph-name=".notdef" 
d="M34 0v682h272v-682h-272zM68 34h204v614h-204v-614z" />
    <glyph glyph-name="space" unicode=" " 
 />
    <glyph glyph-name="exclam" unicode="!" 
d="M256 0h-64v64v64h64h64v-64v-64h-64zM256 192h-64v64v64v64h-64v64v64v64h64v64h64h64v-64h64v-64v-64v-64h-64v-64v-64v-64h-64z" />
    <glyph glyph-name="quotedbl" unicode="&#x22;" 
d="M320 448v64v64v64v64h64h64v-64v-64v-64h-64v-64h-64zM128 448v64h-64v64v64v64h64h64v-64v-64v-64v-64h-64z" />
    <glyph glyph-name="numbersign" unicode="#" 
d="M320 0h-64v64v64h-64v-64v-64h-64h-64v64v64h-64v64h64v64v64v64h-64v64h64v64v64h64h64v-64v-64h64v64v64h64h64v-64v-64h64v-64h-64v-64v-64v-64h64v-64h-64v-64v-64h-64zM256 192v64v64v64h-64v-64v-64v-64h64z" />
    <glyph glyph-name="dollar" unicode="$" 
d="M384 448v64h-64v64h-64h-64h-64v-64v-64v-64h64h64h64h64v-64h64v-64v-64v-64v-64h-64v-64h-64v-64v-64h-64h-64v64v64h-64h-64v64h-64v64v64h64v-64h64v-64h64h64h64v64v64v64v64h-64h-64h-64h-64v64h-64v64v64v64h64v64h64h64v64v64h64h64v-64v-64h64v-64h64v-64v-64
h-64z" />
    <glyph glyph-name="percent" unicode="%" 
d="M0 0v64v64h64v64h64v64h64v64h64v64h64v64h64v64h64v-64v-64h-64v-64h-64v-64h-64v-64h-64v-64h-64v-64h-64v-64h-64zM384 0h-64v64v64h64h64v-64v-64h-64zM64 384h-64v64v64h64h64v-64v-64h-64z" />
    <glyph glyph-name="ampersand" unicode="&#x26;" 
d="M384 0h-64v64h-64v64v64v64h-64v64h-64v-64v-64v-64v-64h64h64v-64h-64h-64h-64v64h-64v64v64v64v64h64v64h64v64h-64v64v64h64v64h64h64h64v-64h64v-64v-64h-64v-64h-64v-64h64v64h64h64v-64h-64v-64v-64v-64v-64h64v-64h-64zM256 448v64v64h-64v-64v-64h64z" />
    <glyph glyph-name="quotesingle" unicode="'" 
d="M128 448h-64v64h64v64v64v64h64h64v-64v-64v-64h-64v-64h-64z" />
    <glyph glyph-name="parenleft" unicode="(" 
d="M320 0h-64v64h-64v64h-64v64v64v64v64v64v64h64v64h64v64h64h64v-64h-64v-64h-64v-64v-64v-64v-64v-64v-64h64v-64h64v-64h-64z" />
    <glyph glyph-name="parenright" unicode=")" 
d="M192 0h-64v64h64v64h64v64v64v64v64v64v64h-64v64h-64v64h64h64v-64h64v-64h64v-64v-64v-64v-64v-64v-64h-64v-64h-64v-64h-64z" />
    <glyph glyph-name="asterisk" unicode="*" 
d="M384 128h-64v64h-64h-64v-64h-64h-64v64h64v64h-64h-64v64h64h64v64h-64v64h64h64v-64h64h64v64h64h64v-64h-64v-64h64h64v-64h-64h-64v-64h64v-64h-64z" />
    <glyph glyph-name="plus" unicode="+" 
d="M256 128h-64v64v64h-64h-64v64h64h64v64v64h64h64v-64v-64h64h64v-64h-64h-64v-64v-64h-64z" />
    <glyph glyph-name="comma" unicode="," 
d="M192 -64h-64v64h64v64v64v64h64h64v-64v-64v-64h-64v-64h-64z" />
    <glyph glyph-name="hyphen" unicode="-" 
d="M384 320h64v-64h-64h-64h-64h-64h-64h-64h-64v64h64h64h64h64h64h64z" />
    <glyph glyph-name="period" unicode="." 
d="M256 0h-64v64v64h64h64v-64v-64h-64z" />
    <glyph glyph-name="slash" unicode="/" 
d="M0 0v64v64h64v64h64v64h64v64h64v64h64v64h64v64h64v-64v-64h-64v-64h-64v-64h-64v-64h-64v-64h-64v-64h-64v-64h-64z" />
    <glyph glyph-name="zero" unicode="0" 
d="M192 256v64v64h64v-64v-64h-64zM256 0h-64h-64v64h-64v64h-64v64v64v64v64v64v64h64v64h64v64h64h64h64v-64h64v-64h64v-64v-64v-64v-64v-64v-64h-64v-64h-64v-64h-64zM256 64v64h64v64v64v64v64v64v64h-64v64h-64v-64h-64v-64v-64v-64v-64v-64v-64h64v-64h64z" />
    <glyph glyph-name="one" unicode="1" 
d="M384 64h64v-64h-64h-64h-64h-64h-64h-64v64h64h64v64v64v64v64v64v64h-64h-64v64h64v64h64v64h64h64v-64v-64v-64v-64v-64v-64v-64v-64v-64h64z" />
    <glyph glyph-name="two" unicode="2" 
d="M384 0h-64h-64h-64h-64h-64h-64v64v64v64h64v64h64v64h64v64h64v64h64v64v64h-64h-64h-64v-64h-64h-64v64h64v64h64h64h64h64h64v-64h64v-64v-64h-64v-64h-64v-64h-64v-64h-64v-64h-64v-64v-64h64h64h64v64h64h64v-64v-64h-64z" />
    <glyph glyph-name="three" unicode="3" 
d="M320 0h-64h-64h-64h-64v64h-64v64h64h64v-64h64h64h64v64v64v64v64h-64h-64h-64v64h64h64h64v64v64v64h-64h-64h-64v-64h-64h-64v64h64v64h64h64h64h64h64v-64h64v-64v-64v-64h-64v-64h64v-64v-64v-64v-64h-64v-64h-64z" />
    <glyph glyph-name="four" unicode="4" 
d="M384 0h-64h-64h-64v64h64v64v64v64h-64h-64h-64h-64v64v64h64v64h64v64h64v64h64v64h64h64v-64v-64v-64v-64v-64h64v-64h-64v-64v-64v-64h64v-64h-64zM192 320h64v64v64h-64v-64h-64v-64h64z" />
    <glyph glyph-name="five" unicode="5" 
d="M320 0h-64h-64h-64h-64v64h-64v64h64h64v-64h64h64h64v64v64v64v64h-64h-64h-64h-64h-64v64v64v64v64v64h64h64h64h64h64h64h64v-64h-64h-64h-64h-64h-64v-64v-64v-64h64h64h64h64v-64h64v-64v-64v-64v-64h-64v-64h-64z" />
    <glyph glyph-name="six" unicode="6" 
d="M320 0h-64h-64h-64h-64v64h-64v64v64v64v64v64v64v64h64v64h64v64h64h64h64v-64h-64h-64v-64h-64v-64v-64h64h64h64h64v-64h64v-64v-64v-64v-64h-64v-64h-64zM256 64h64v64v64v64v64h-64h-64h-64v-64v-64v-64v-64h64h64z" />
    <glyph glyph-name="seven" unicode="7" 
d="M192 0h-64v64v64v64v64h64v64h64v64h64v64v64v64h-64h-64h-64v-64h-64h-64v64v64h64h64h64h64h64h64h64v-64v-64v-64v-64h-64v-64h-64v-64h-64v-64v-64v-64v-64h-64z" />
    <glyph glyph-name="eight" unicode="8" 
d="M320 0h-64h-64h-64h-64v64h-64v64v64v64v64h64v64h-64v64v64v64h64v64h64h64h64h64h64v-64h64v-64v-64v-64h-64v-64h64v-64v-64v-64v-64h-64v-64h-64zM256 64h64v64v64v64v64h-64h-64h-64v-64v-64v-64v-64h64h64zM256 384h64v64v64v64h-64h-64h-64v-64v-64v-64h64h64z
" />
    <glyph glyph-name="nine" unicode="9" 
d="M256 0h-64h-64h-64v64h64h64h64v64h64v64v64v64h-64h-64h-64h-64v64h-64v64v64v64h64v64h64h64h64h64h64v-64h64v-64v-64v-64v-64v-64v-64v-64h-64v-64h-64v-64h-64zM256 384h64v64v64v64h-64h-64h-64v-64v-64v-64h64h64z" />
    <glyph glyph-name="colon" unicode=":" 
d="M256 64h-64v64v64h64h64v-64v-64h-64zM256 384h-64v64v64h64h64v-64v-64h-64z" />
    <glyph glyph-name="semicolon" unicode=";" 
d="M192 0h-64v64h64v64v64h64h64v-64v-64h-64v-64h-64zM256 384h-64v64v64h64h64v-64v-64h-64z" />
    <glyph glyph-name="less" unicode="&#x3c;" 
d="M384 0h-64v64h-64v64h-64v64h-64v64h-64v64h64v64h64v64h64v64h64v64h64h64v-64h-64v-64h-64v-64h-64v-64h-64v-64h64v-64h64v-64h64v-64h64v-64h-64z" />
    <glyph glyph-name="equal" unicode="=" 
d="M384 256h64v-64h-64h-64h-64h-64h-64h-64v64h64h64h64h64h64zM384 448h64v-64h-64h-64h-64h-64h-64h-64v64h64h64h64h64h64z" />
    <glyph glyph-name="greater" unicode="&#x3e;" 
d="M128 0h-64v64h64v64h64v64h64v64h64v64h-64v64h-64v64h-64v64h-64v64h64h64v-64h64v-64h64v-64h64v-64h64v-64h-64v-64h-64v-64h-64v-64h-64v-64h-64z" />
    <glyph glyph-name="question" unicode="?" 
d="M256 0h-64v64v64h64h64v-64v-64h-64zM256 192h-64v64v64v64h64v64h64v64v64h-64h-64h-64v-64v-64h-64h-64v64v64h64v64h64h64h64h64h64v-64h64v-64v-64h-64v-64h-64v-64v-64v-64h-64z" />
    <glyph glyph-name="at" unicode="@" 
d="M320 64h64v-64h-64h-64h-64h-64h-64v64h-64v64v64v64v64v64v64v64h64v64h64h64h64h64h64v-64h64v-64v-64v-64v-64v-64h-64v-64h-64h-64h-64v64v64v64v64h64h64v64v64h-64h-64h-64v-64v-64v-64v-64v-64v-64v-64h64h64h64z" />
    <glyph glyph-name="A" unicode="A" 
d="M384 0h-64v64v64v64v64h-64h-64h-64v-64v-64v-64v-64h-64h-64v64v64v64v64v64v64v64h64v64h64v64h64v64h64v-64h64v-64h64v-64h64v-64v-64v-64v-64v-64v-64v-64h-64zM256 320h64v64v64h-64v64h-64v-64h-64v-64v-64h64h64z" />
    <glyph glyph-name="B" unicode="B" 
d="M320 0h-64h-64h-64h-64h-64v64h64v64v64v64v64v64v64v64v64h-64v64h64h64h64h64h64h64v-64h64v-64v-64v-64h-64v-64h64v-64v-64v-64v-64h-64v-64h-64zM256 64h64v64v64v64v64h-64h-64v-64v-64v-64v-64h64zM256 384h64v64v64v64h-64h-64v-64v-64v-64h64z" />
    <glyph glyph-name="C" unicode="C" 
d="M384 448v64h-64v64h-64h-64v-64h-64v-64v-64v-64v-64v-64v-64h64v-64h64h64v64h64v64h64v-64v-64h-64v-64h-64h-64h-64h-64v64h-64v64h-64v64v64v64v64v64v64h64v64h64v64h64h64h64h64v-64h64v-64v-64h-64z" />
    <glyph glyph-name="D" unicode="D" 
d="M256 0h-64h-64h-64h-64v64h64v64v64v64v64v64v64v64v64h-64v64h64h64h64h64h64v-64h64v-64h64v-64v-64v-64v-64v-64v-64h-64v-64h-64v-64h-64zM256 64v64h64v64v64v64v64v64v64h-64v64h-64v-64v-64v-64v-64v-64v-64v-64v-64h64z" />
    <glyph glyph-name="E" unicode="E" 
d="M256 256v64h-64v-64v-64v-64v-64h64h64v64h64v64h64v-64v-64v-64h-64h-64h-64h-64h-64h-64h-64v64h64v64v64v64v64v64v64v64v64h-64v64h64h64h64h64h64h64h64v-64v-64v-64h-64v64h-64v64h-64h-64v-64v-64v-64h64v64h64v-64v-64v-64h-64z" />
    <glyph glyph-name="F" unicode="F" 
d="M256 256v64h-64v-64v-64v-64v-64h64v-64h-64h-64h-64h-64v64h64v64v64v64v64v64v64v64v64h-64v64h64h64h64h64h64h64h64v-64v-64v-64h-64v64h-64v64h-64h-64v-64v-64v-64h64v64h64v-64v-64v-64h-64z" />
    <glyph glyph-name="G" unicode="G" 
d="M384 0v64h-64v-64h-64h-64h-64v64h-64v64h-64v64v64v64v64v64v64h64v64h64v64h64h64h64h64v-64h64v-64v-64h-64v64h-64v64h-64h-64v-64h-64v-64v-64v-64v-64v-64v-64h64v-64h64h64v64v64v64h-64h-64v64h64h64h64h64v-64v-64v-64v-64v-64h-64z" />
    <glyph glyph-name="H" unicode="H" 
d="M384 0h-64v64v64v64v64v64h-64h-64h-64v-64v-64v-64v-64v-64h-64h-64v64v64v64v64v64v64v64v64v64v64h64h64v-64v-64v-64v-64h64h64h64v64v64v64v64h64h64v-64v-64v-64v-64v-64v-64v-64v-64v-64v-64h-64z" />
    <glyph glyph-name="I" unicode="I" 
d="M320 0h-64h-64h-64v64h64v64v64v64v64v64v64v64v64h-64v64h64h64h64h64v-64h-64v-64v-64v-64v-64v-64v-64v-64v-64h64v-64h-64z" />
    <glyph glyph-name="J" unicode="J" 
d="M256 0h-64h-64h-64v64h-64v64v64v64h64h64v-64v-64v-64h64h64v64v64v64v64v64v64v64v64h-64v64h64h64h64h64v-64h-64v-64v-64v-64v-64v-64v-64v-64v-64h-64v-64h-64z" />
    <glyph glyph-name="K" unicode="K" 
d="M384 0h-64v64v64v64h-64v64h-64v-64v-64v-64v-64h-64h-64h-64v64h64v64v64v64v64v64v64v64v64h-64v64h64h64h64v-64v-64v-64v-64h64v64h64v64v64v64h64h64v-64v-64v-64h-64v-64h-64v-64v-64h64v-64h64v-64v-64v-64h-64z" />
    <glyph glyph-name="L" unicode="L" 
d="M384 0h-64h-64h-64h-64h-64h-64v64h64v64v64v64v64v64v64v64v64h-64v64h64h64h64h64v-64h-64v-64v-64v-64v-64v-64v-64v-64v-64h64h64v64h64v64h64v-64v-64v-64h-64z" />
    <glyph glyph-name="M" unicode="M" 
d="M192 320v64h-64v-64v-64v-64v-64v-64v-64h-64h-64v64v64v64v64v64v64v64v64v64v64h64h64v-64h64v-64h64v64h64v64h64h64v-64v-64v-64v-64v-64v-64v-64v-64v-64v-64h-64h-64v64v64v64v64v64v64h-64v-64h-64z" />
    <glyph glyph-name="N" unicode="N" 
d="M384 0h-64v64v64v64v64h-64v64h-64v64h-64v-64v-64v-64v-64v-64v-64h-64h-64v64v64v64v64v64v64v64v64v64v64h64h64v-64h64v-64h64v-64h64v64v64v64h64h64v-64v-64v-64v-64v-64v-64v-64v-64v-64v-64h-64z" />
    <glyph glyph-name="O" unicode="O" 
d="M320 0h-64h-64h-64h-64v64h-64v64v64v64v64v64v64v64v64h64v64h64h64h64h64h64v-64h64v-64v-64v-64v-64v-64v-64v-64v-64h-64v-64h-64zM256 64h64v64v64v64v64v64v64v64v64h-64h-64h-64v-64v-64v-64v-64v-64v-64v-64v-64h64h64z" />
    <glyph glyph-name="P" unicode="P" 
d="M192 0h-64h-64h-64v64h64v64v64v64v64v64v64v64v64h-64v64h64h64h64h64h64h64v-64h64v-64v-64v-64h-64v-64h-64h-64h-64v-64v-64v-64v-64h64v-64h-64zM256 384h64v64v64v64h-64h-64v-64v-64v-64h64z" />
    <glyph glyph-name="Q" unicode="Q" 
d="M384 -128h-64h-64v64v64h-64h-64h-64v64h-64v64v64v64v64v64v64v64v64h64v64h64h64h64h64h64v-64h64v-64v-64v-64v-64v-64v-64v-64v-64h-64v-64v-64h64v-64h-64zM192 64v64v64h64v-64h64v64v64v64v64v64v64v64h-64h-64h-64v-64v-64v-64v-64v-64v-64v-64v-64h64z" />
    <glyph glyph-name="R" unicode="R" 
d="M384 0h-64v64v64v64v64h-64v64h-64v-64v-64v-64v-64v-64h-64h-64h-64v64h64v64v64v64v64v64v64v64v64h-64v64h64h64h64h64h64h64v-64h64v-64v-64v-64h-64v-64v-64h64v-64v-64v-64v-64h-64zM256 384h64v64v64v64h-64h-64v-64v-64v-64h64z" />
    <glyph glyph-name="S" unicode="S" 
d="M320 0h-64h-64h-64h-64v64h-64v64v64h64h64v-64v-64h64h64h64v64v64v64h-64v64h-64h-64v64h-64v64h-64v64v64h64v64h64h64h64h64h64v-64h64v-64v-64h-64h-64v64v64h-64h-64h-64v-64v-64h64v-64h64h64v-64h64v-64h64v-64v-64v-64h-64v-64h-64z" />
    <glyph glyph-name="T" unicode="T" 
d="M384 448v64h-64v-64v-64v-64v-64v-64v-64v-64h64v-64h-64h-64h-64h-64v64h64v64v64v64v64v64v64v64h-64v-64h-64v64v64v64h64h64h64h64h64h64v-64v-64v-64h-64z" />
    <glyph glyph-name="U" unicode="U" 
d="M320 0h-64h-64h-64h-64v64h-64v64v64v64v64v64v64v64v64v64h64h64v-64v-64v-64v-64v-64v-64v-64v-64v-64h64h64h64v64v64v64v64v64v64v64v64v64h64h64v-64v-64v-64v-64v-64v-64v-64v-64v-64h-64v-64h-64z" />
    <glyph glyph-name="V" unicode="V" 
d="M192 0v64h-64v64h-64v64h-64v64v64v64v64v64v64v64h64h64v-64v-64v-64v-64v-64v-64v-64h64v-64h64v64h64v64v64v64v64v64v64v64h64h64v-64v-64v-64v-64v-64v-64v-64h-64v-64h-64v-64h-64v-64h-64z" />
    <glyph glyph-name="W" unicode="W" 
d="M320 0h-64v64v64h-64v-64v-64h-64h-64v64h-64v64v64v64v64v64v64v64v64v64h64h64v-64v-64v-64v-64v-64v-64v-64h64v64v64v64h64v-64v-64v-64h64v64v64v64v64v64v64v64h64h64v-64v-64v-64v-64v-64v-64v-64v-64v-64h-64v-64h-64z" />
    <glyph glyph-name="X" unicode="X" 
d="M384 0h-64v64v64h-64v64h-64v-64h-64v-64v-64h-64h-64v64v64h64v64v64h64v64v64h-64v64v64h-64v64v64h64h64v-64v-64h64v-64h64v64h64v64v64h64h64v-64v-64h-64v-64v-64h-64v-64v-64h64v-64v-64h64v-64v-64h-64z" />
    <glyph glyph-name="Y" unicode="Y" 
d="M320 0h-64h-64h-64v64h64v64v64v64v64h-64v64h-64v64v64v64v64h64h64v-64v-64v-64v-64h64h64v64v64v64v64h64h64v-64v-64v-64v-64h-64v-64h-64v-64v-64v-64v-64h64v-64h-64z" />
    <glyph glyph-name="Z" unicode="Z" 
d="M0 448v64v64v64h64h64h64h64h64h64h64v-64v-64v-64h-64v-64h-64v-64h-64v-64h-64v-64h-64v-64v-64h64h64h64v64h64v64h64v-64v-64v-64h-64h-64h-64h-64h-64h-64h-64v64v64v64h64v64h64v64h64v64h64v64h64v64v64h-64h-64h-64v-64h-64v-64h-64z" />
    <glyph glyph-name="bracketleft" unicode="[" 
d="M320 64h64v-64h-64h-64h-64h-64v64v64v64v64v64v64v64v64v64v64h64h64h64h64v-64h-64h-64v-64v-64v-64v-64v-64v-64v-64v-64h64z" />
    <glyph glyph-name="backslash" unicode="\" 
d="M384 0v64h-64v64h-64v64h-64v64h-64v64h-64v64h-64v64v64v64h64v-64h64v-64h64v-64h64v-64h64v-64h64v-64h64v-64v-64v-64h-64z" />
    <glyph glyph-name="bracketright" unicode="]" 
d="M320 0h-64h-64h-64v64h64h64v64v64v64v64v64v64v64v64h-64h-64v64h64h64h64h64v-64v-64v-64v-64v-64v-64v-64v-64v-64v-64h-64z" />
    <glyph glyph-name="asciicircum" unicode="^" 
d="M384 512h-64v64h-64v64h-64v-64h-64v-64h-64h-64v64h64v64h64v64h64v64h64v-64h64v-64h64v-64h64v-64h-64z" />
    <glyph glyph-name="underscore" unicode="_" 
d="M448 -64h64v-64h-64h-64h-64h-64h-64h-64h-64h-64v64h64h64h64h64h64h64h64z" />
    <glyph glyph-name="grave" unicode="`" 
d="M320 512h-64v64h-64v64h-64v64h64h64v-64h64v-64h64v-64h-64z" />
    <glyph glyph-name="a" unicode="a" 
d="M384 0h-64v64h-64v64v64v64h-64h-64v-64v-64v-64h64h64v-64h-64h-64h-64v64h-64v64v64v64h64v64h64h64h64v64h-64h-64h-64v64h64h64h64h64v-64h64v-64v-64v-64v-64v-64h64v-64h-64z" />
    <glyph glyph-name="b" unicode="b" 
d="M320 0h-64h-64h-64h-64v64v64v64v64v64v64v64v64v64h-64v64h64h64h64v-64v-64v-64h64h64v-64h64v-64h64v-64v-64v-64v-64h-64v-64h-64zM256 64h64v64v64v64v64h-64v64h-64v-64v-64v-64v-64v-64h64z" />
    <glyph glyph-name="c" unicode="c" 
d="M320 0h-64h-64h-64h-64v64h-64v64v64v64v64v64h64v64h64h64h64h64h64v-64h64v-64h-64h-64v64h-64h-64h-64v-64v-64v-64v-64v-64h64h64h64v64h64h64v-64h-64v-64h-64z" />
    <glyph glyph-name="d" unicode="d" 
d="M384 0h-64v64h-64v64v64v64v64v64h-64v-64h-64v-64v-64v-64v-64h64h64v-64h-64h-64h-64v64h-64v64v64v64v64h64v64h64v64h64h64v64v64h-64v64h64h64h64v-64v-64v-64v-64v-64v-64v-64v-64v-64h64v-64h-64z" />
    <glyph glyph-name="e" unicode="e" 
d="M320 0h-64h-64h-64h-64v64h-64v64v64v64v64v64h64v64h64h64h64h64h64v-64h64v-64v-64h-64h-64h-64h-64h-64v-64v-64v-64h64h64h64v64h64h64v-64h-64v-64h-64zM256 320h64v64h-64h-64h-64v-64h64h64z" />
    <glyph glyph-name="f" unicode="f" 
d="M384 448v64h-64v64h-64v-64v-64v-64h64v-64h-64v-64v-64v-64v-64h64v-64h-64h-64h-64h-64v64h64v64v64v64v64h-64v64h64v64v64v64h64v64h64h64h64v-64h64v-64v-64h-64z" />
    <glyph glyph-name="g" unicode="g" 
d="M256 -192h-64h-64h-64v64h-64v64h64h64v-64h64h64v64v64h-64h-64h-64v64h-64v64v64v64v64v64h64v64h64h64h64v-64h-64h-64v-64v-64v-64v-64v-64h64h64v64v64v64v64v64h64v64h64h64v-64h-64v-64v-64v-64v-64v-64v-64v-64v-64h-64v-64h-64z" />
    <glyph glyph-name="h" unicode="h" 
d="M384 0h-64v64v64v64v64v64v64h-64v-64h-64v-64v-64v-64v-64v-64h-64h-64h-64v64h64v64v64v64v64v64v64v64v64h-64v64h64h64h64v-64v-64v-64v-64h64v64h64h64v-64h64v-64v-64v-64v-64v-64v-64h-64z" />
    <glyph glyph-name="i" unicode="i" 
d="M320 0h-64h-64h-64v64h64v64v64v64v64v64h-64v64h64h64h64v-64v-64v-64v-64v-64v-64h64v-64h-64zM256 512h-64v64v64h64h64v-64v-64h-64z" />
    <glyph glyph-name="j" unicode="j" 
d="M320 -192h-64h-64h-64v64h-64v64v64h64h64v-64v-64h64h64v64v64v64v64v64v64v64v64h-64v64h64h64h64v-64v-64v-64v-64v-64v-64v-64v-64v-64h-64v-64h-64zM384 512h-64v64v64h64h64v-64v-64h-64z" />
    <glyph glyph-name="k" unicode="k" 
d="M384 0h-64v64v64h-64v64h-64v-64v-64v-64h-64h-64h-64v64h64v64v64v64v64v64v64v64v64h-64v64h64h64h64v-64v-64v-64v-64v-64h64v64h64v64h64h64v-64h-64v-64h-64v-64v-64h64v-64h64v-64v-64h-64z" />
    <glyph glyph-name="l" unicode="l" 
d="M320 0h-64h-64h-64v64h64v64v64v64v64v64v64v64v64h-64v64h64h64h64v-64v-64v-64v-64v-64v-64v-64v-64v-64h64v-64h-64z" />
    <glyph glyph-name="m" unicode="m" 
d="M192 64v64v64v64v64h-64v-64v-64v-64v-64v-64h-64h-64v64v64v64v64v64v64v64h64h64h64v-64h64v64h64h64v-64h64v-64v-64v-64v-64v-64v-64h-64h-64v64v64v64v64v64h-64v-64v-64v-64v-64h-64z" />
    <glyph glyph-name="n" unicode="n" 
d="M384 0h-64v64v64v64v64v64v64h-64h-64v-64v-64v-64v-64v-64v-64h-64h-64v64v64v64v64v64v64h-64v64h64h64v-64h64v64h64h64h64v-64h64v-64v-64v-64v-64v-64v-64h-64z" />
    <glyph glyph-name="o" unicode="o" 
d="M320 0h-64h-64h-64h-64v64h-64v64v64v64v64v64h64v64h64h64h64h64h64v-64h64v-64v-64v-64v-64v-64h-64v-64h-64zM256 64h64v64v64v64v64v64h-64h-64h-64v-64v-64v-64v-64v-64h64h64z" />
    <glyph glyph-name="p" unicode="p" 
d="M192 -192h-64h-64h-64v64h64v64v64v64v64v64v64v64v64h-64v64h64h64v-64h64v64h64h64h64v-64h64v-64v-64v-64v-64v-64h-64v-64h-64h-64h-64v-64v-64h64v-64h-64zM256 64h64v64v64v64v64v64h-64h-64v-64v-64v-64v-64v-64h64z" />
    <glyph glyph-name="q" unicode="q" 
d="M384 -192h-64h-64h-64v64h64v64v64h-64h-64h-64v64h-64v64v64v64v64v64h64v64h64h64h64v-64h-64h-64v-64v-64v-64v-64v-64h64h64v64v64v64v64v64h64v64h64h64v-64h-64v-64v-64v-64v-64v-64v-64v-64v-64h64v-64h-64z" />
    <glyph glyph-name="r" unicode="r" 
d="M192 0h-64h-64h-64v64h64v64v64v64v64v64h-64v64h64h64v-64h64v64h64h64h64v-64h64v-64v-64h-64h-64v64v64h-64v-64h-64v-64v-64v-64v-64h64v-64h-64z" />
    <glyph glyph-name="s" unicode="s" 
d="M320 0h-64h-64h-64h-64v64h-64v64h64h64v-64h64h64h64v64h-64v64h-64h-64v64h-64v64h-64v64h64v64h64h64h64h64h64v-64h64v-64h-64h-64v64h-64h-64h-64v-64h64v-64h64h64v-64h64v-64h64v-64h-64v-64h-64z" />
    <glyph glyph-name="t" unicode="t" 
d="M320 0h-64h-64v64h-64v64v64v64v64v64h-64h-64v64h64h64v64v64h64v64h64v-64v-64v-64h64h64v-64h-64h-64v-64v-64v-64v-64v-64h64v64h64h64v-64h-64v-64h-64z" />
    <glyph glyph-name="u" unicode="u" 
d="M384 0h-64v64h-64v-64h-64h-64h-64v64h-64v64v64v64v64v64v64h64h64v-64v-64v-64v-64v-64v-64h64h64v64v64v64v64v64v64h64h64v-64v-64v-64v-64v-64v-64h64v-64h-64z" />
    <glyph glyph-name="v" unicode="v" 
d="M256 0h-64h-64v64h-64v64h-64v64v64v64v64v64h64h64v-64v-64v-64v-64v-64h64v-64h64v64h64v64v64v64v64v64h64h64v-64v-64v-64v-64v-64h-64v-64h-64v-64h-64z" />
    <glyph glyph-name="w" unicode="w" 
d="M320 0h-64v64h-64v-64h-64h-64v64h-64v64v64v64v64v64v64h64h64v-64v-64v-64v-64v-64h64v64v64v64h64v-64v-64v-64h64v64v64v64v64v64h64h64v-64v-64v-64v-64v-64v-64h-64v-64h-64z" />
    <glyph glyph-name="x" unicode="x" 
d="M384 0h-64v64h-64v64h-64v-64h-64v-64h-64h-64v64h64v64h64v64v64v64h-64v64h-64v64h64h64v-64h64v-64h64v64h64v64h64h64v-64h-64v-64h-64v-64v-64v-64h64v-64h64v-64h-64z" />
    <glyph glyph-name="y" unicode="y" 
d="M256 -192h-64h-64h-64h-64v64h64h64h64h64v64h64v64h-64h-64h-64h-64v64h-64v64v64v64v64v64v64h64h64v-64v-64v-64v-64v-64v-64h64h64h64v64v64v64v64v64v64h64h64v-64v-64v-64v-64v-64v-64v-64v-64h-64v-64h-64v-64h-64z" />
    <glyph glyph-name="z" unicode="z" 
d="M384 0h-64h-64h-64h-64h-64h-64v64v64h64v64h64v64h64v64h64v64h-64h-64v-64h-64h-64v64v64h64h64h64h64h64h64h64v-64h-64v-64h-64v-64h-64v-64h-64v-64h-64v-64h64h64h64v64h64h64v-64v-64h-64z" />
    <glyph glyph-name="braceleft" unicode="{" 
d="M384 64h64v-64h-64h-64h-64v64h-64v64v64v64v64h-64h-64v64h64h64v64v64v64h64v64h64h64h64v-64h-64h-64v-64v-64v-64h-64v-64h64v-64v-64v-64v-64h64z" />
    <glyph glyph-name="bar" unicode="|" 
d="M256 0h-64v64v64v64v64v64v64v64v64v64v64h64h64v-64v-64v-64v-64v-64v-64v-64v-64v-64v-64h-64z" />
    <glyph glyph-name="braceright" unicode="}" 
d="M192 0h-64h-64v64h64h64v64v64v64v64h64v64h-64v64v64v64h-64h-64v64h64h64h64v-64h64v-64v-64v-64h64h64v-64h-64h-64v-64v-64v-64v-64h-64v-64h-64z" />
    <glyph glyph-name="asciitilde" unicode="~" 
d="M320 576h-64h-64v64h-64v-64h-64h-64v64h64v64h64h64h64v-64h64v64h64h64v-64h-64v-64h-64z" />
    <glyph glyph-name="uni00A0" unicode="&#xa0;" 
 />
    <glyph glyph-name="exclamdown" unicode="&#xa1;" 
d="M256 0h-64v64h-64v64v64v64h64v64v64v64h64h64v-64v-64v-64h64v-64v-64v-64h-64v-64h-64zM256 512h-64v64v64h64h64v-64v-64h-64z" />
    <glyph glyph-name="cent" unicode="&#xa2;" 
d="M256 0h-64v64v64h-64h-64v64h-64v64v64v64v64v64h64v64h64h64v64v64h64h64v-64v-64h64v-64h64v-64h-64h-64v64h-64h-64h-64v-64v-64v-64v-64v-64h64h64h64v64h64h64v-64h-64v-64h-64v-64v-64h-64z" />
    <glyph glyph-name="sterling" unicode="&#xa3;" 
d="M320 512v64h-64v64h-64v-64v-64v-64h64v-64h-64v-64v-64v-64v-64v-64h64h64v64h64h64v-64h-64v-64h-64h-64h-64h-64h-64h-64v64v64h64v64v64v64v64h-64v64h64v64v64v64h64v64h64h64h64v-64h64v-64v-64h-64z" />
    <glyph glyph-name="currency" unicode="&#xa4;" 
d="M384 64h-64v64h-64h-64v-64h-64h-64v64h64v64h-64v64v64v64v64h64v64h-64v64h64h64v-64h64h64v64h64h64v-64h-64v-64h64v-64v-64v-64v-64h-64v-64h64v-64h-64zM256 192h64v64v64v64v64h-64h-64v-64v-64v-64v-64h64z" />
    <glyph glyph-name="yen" unicode="&#xa5;" 
d="M256 0h-64v64v64v64h-64h-64v64h64h64v64h-64h-64v64h64h64v64h-64v64h-64v64v64h64h64v-64v-64h64h64v64v64h64h64v-64v-64h-64v-64h-64v-64h64h64v-64h-64h-64v-64h64h64v-64h-64h-64v-64v-64v-64h-64z" />
    <glyph glyph-name="brokenbar" unicode="&#xa6;" 
d="M256 0h-64v64v64v64v64h64h64v-64v-64v-64v-64h-64zM256 320h-64v64v64v64v64h64h64v-64v-64v-64v-64h-64z" />
    <glyph glyph-name="section" unicode="&#xa7;" 
d="M320 -128h-64h-64h-64h-64v64h-64v64h64h64v-64h64h64h64v64h-64v64h-64h-64v64h-64v64h-64v64v64h64v64h64v64h-64v64h-64v64h64v64h64h64h64h64h64v-64h64v-64h-64h-64v64h-64h-64h-64v-64h64v-64h64h64v-64h64v-64h64v-64v-64h-64v-64h-64v-64h64v-64h64v-64h-64v-64
h-64zM256 128v64h64v64v64h-64v64h-64v-64h-64v-64v-64h64v-64h64z" />
    <glyph glyph-name="dieresis" unicode="&#xa8;" 
d="M384 512h-64v64v64h64h64v-64v-64h-64zM64 512h-64v64v64h64h64v-64v-64h-64z" />
    <glyph glyph-name="copyright" unicode="&#xa9;" 
d="M384 64h64v-64h-64h-64h-64h-64h-64v64h64h64h64h64zM448 64v64v64v64v64v64v64v64h64v-64v-64v-64v-64v-64v-64v-64h-64zM128 64h-64v64v64v64v64v64v64v64h64v-64v-64v-64v-64v-64v-64v-64zM320 192h64v-64h-64h-64v64h64zM256 192h-64v64v64v64h64v-64v-64v-64z
M320 448h64v-64h-64h-64v64h64zM448 512h-64h-64h-64h-64h-64v64h64h64h64h64h64v-64z" />
    <glyph glyph-name="ordfeminine" unicode="&#xaa;" 
d="M384 320h64v-64h-64h-64h-64h-64h-64h-64v64h64h64h64h64h64zM384 384h-64h-64h-64h-64v64h-64v64v64h64v64h64h64h64h64v-64v-64v-64h64v-64h-64zM256 448v64v64h-64v-64v-64h64z" />
    <glyph glyph-name="guillemotleft" unicode="&#xab;" 
d="M384 128h-64v64h-64v64h-64v-64h64v-64h-64h-64v64h-64v64h-64v64h64v64h64v64h64h64v-64h-64v-64h-64v-64h64v64h64v64h64v64h64h64v-64h-64v-64h-64v-64h64v-64h64v-64h-64z" />
    <glyph glyph-name="logicalnot" unicode="&#xac;" 
d="M384 64h-64v64v64v64v64h-64h-64h-64h-64h-64v64h64h64h64h64h64h64h64v-64v-64v-64v-64v-64h-64z" />
    <glyph glyph-name="registered" unicode="&#xae;" 
d="M320 128v64v64h64v-64v-64h-64zM192 128v64v64v64v64v64h64h64v-64h64v-64h-64v64h-64v-64h64v-64h-64v-64v-64h-64zM384 64h64v-64h-64h-64h-64h-64h-64v64h64h64h64h64zM448 64v64v64v64v64v64v64v64h64v-64v-64v-64v-64v-64v-64v-64h-64zM128 64h-64v64v64v64v64v64
v64v64h64v-64v-64v-64v-64v-64v-64v-64zM448 512h-64h-64h-64h-64h-64v64h64h64h64h64h64v-64z" />
    <glyph glyph-name="macron" unicode="&#xaf;" 
d="M448 640h64v-64h-64h-64h-64h-64h-64h-64h-64h-64v64h64h64h64h64h64h64h64z" />
    <glyph glyph-name="degree" unicode="&#xb0;" 
d="M256 448h-64h-64v64h-64v64v64h64v64h64h64h64v-64h64v-64v-64h-64v-64h-64zM256 512v64v64h-64v-64v-64h64z" />
    <glyph glyph-name="plusminus" unicode="&#xb1;" 
d="M384 64h64v-64h-64h-64h-64h-64h-64h-64v64h64h64h64h64h64zM256 192h-64v64v64h-64h-64v64h64h64v64v64h64h64v-64v-64h64h64v-64h-64h-64v-64v-64h-64z" />
    <glyph glyph-name="uni00B2" unicode="&#xb2;" 
d="M384 320h-64h-64h-64h-64h-64v64h64v64h64v64h64v64h64v64h-64h-64v-64h-64h-64v64h64v64h64h64h64h64v-64h64v-64h-64v-64h-64v-64h-64v-64h64h64v64h64v-64v-64h-64z" />
    <glyph glyph-name="uni00B3" unicode="&#xb3;" 
d="M256 320h-64h-64h-64v64h64h64h64v64v64h-64h-64h-64v64h64h64h64v64h-64h-64h-64v64h64h64h64h64v-64h64v-64h-64v-64h64v-64v-64h-64v-64h-64z" />
    <glyph glyph-name="acute" unicode="&#xb4;" 
d="M192 512h-64v64h64v64h64v64h64h64v-64h-64v-64h-64v-64h-64z" />
    <glyph glyph-name="uni00B5" unicode="&#xb5;" 
d="M64 -192h-64v64h64v64v64v64v64v64v64v64v64v64h64h64v-64v-64v-64v-64v-64v-64h64h64v64v64v64v64v64v64h64h64v-64v-64v-64v-64v-64v-64h-64v-64h-64h-64h-64v-64v-64h-64v-64h-64z" />
    <glyph glyph-name="paragraph" unicode="&#xb6;" 
d="M448 0h-64v64v64v64v64v64v64v64v64v64v64h-64v-64v-64v-64v-64v-64v-64v-64v-64v-64v-64h-64h-64v64v64v64v64v64v64h-64h-64v64h-64v64v64v64h64v64h64h64h64h64h64h64h64v-64v-64v-64v-64v-64v-64v-64v-64v-64v-64v-64h-64zM192 448v64v64v64h-64v-64v-64v-64h64z" />
    <glyph glyph-name="periodcentered" unicode="&#xb7;" 
d="M256 320h64v-64h-64h-64v64h64z" />
    <glyph glyph-name="cedilla" unicode="&#xb8;" 
d="M256 -128h-64h-64v64h64h64v64h-64v64h64h64v-64h64v-64h-64v-64h-64z" />
    <glyph glyph-name="uni00B9" unicode="&#xb9;" 
d="M256 320h-64v64v64v64v64h-64v64h64v64h64h64v-64v-64v-64v-64v-64v-64h-64z" />
    <glyph glyph-name="ordmasculine" unicode="&#xba;" 
d="M320 320h64v-64h-64h-64h-64h-64h-64v64h64h64h64h64zM256 384h-64h-64v64h-64v64v64h64v64h64h64h64v-64h64v-64v-64h-64v-64h-64zM256 448v64v64h-64v-64v-64h64z" />
    <glyph glyph-name="guillemotright" unicode="&#xbb;" 
d="M256 128h-64v64h-64v-64h-64h-64v64h64v64h64v64h-64v64h-64v64h64h64v-64h64v64h64h64v-64h64v-64h64v-64h-64v-64h-64v-64h-64zM256 192v64h-64v-64h64zM320 256v64h-64v64h-64v-64h64v-64h64z" />
    <glyph glyph-name="onequarter" unicode="&#xbc;" 
d="M0 64v64v64h64v64h64v64h64v64h64v64h64v64h64v64h64v-64v-64h-64v-64h-64v-64h-64v-64h-64v-64h-64v-64h-64v-64h-64zM384 -128h-64v64v64h-64h-64h-64v64h64v64h64v64h64v64h64h64v-64v-64v-64h64v-64h-64v-64v-64h-64zM384 64v64h-64v-64h64zM192 384h-64h-64v64v64
v64h-64v64h64v64h64h64v-64v-64v-64v-64v-64z" />
    <glyph glyph-name="onehalf" unicode="&#xbd;" 
d="M0 64v64v64h64v64h64v64h64v64h64v64h64v64h64v64h64v-64v-64h-64v-64h-64v-64h-64v-64h-64v-64h64h64h64v-64h64v-64h-64v-64h-64v-64h64h64v-64h-64h-64h-64h-64h-64v64h64v64h64v64h64v64h-64h-64v64h-64v-64h-64v-64h-64zM192 384h-64h-64v64v64v64h-64v64h64v64h64
h64v-64v-64v-64v-64v-64z" />
    <glyph glyph-name="threequarters" unicode="&#xbe;" 
d="M0 64v64v64h64v64h64v64h64v64h64v64h64v64h64v64h64v-64v-64h-64v-64h-64v-64h-64v-64h-64v-64h-64v-64h-64v-64h-64zM384 -128h-64v64v64h-64h-64h-64v64h64v64h64v64h64v64h64h64v-64v-64v-64h64v-64h-64v-64v-64h-64zM384 64v64h-64v-64h64zM192 384h-64h-64h-64v64
h64h64v64h-64v64h64v64h-64h-64v64h64h64h64v-64h64v-64h-64v-64h64v-64h-64v-64z" />
    <glyph glyph-name="questiondown" unicode="&#xbf;" 
d="M320 0h-64h-64h-64h-64v64h-64v64v64v64h64v64h64v64v64h64h64v-64v-64h-64v-64h-64v-64v-64v-64h64h64h64v64v64h64h64v-64v-64h-64v-64h-64zM192 512h-64v64v64h64h64v-64v-64h-64z" />
    <glyph glyph-name="Agrave" unicode="&#xc0;" 
d="M384 0h-64v64v64v64h-64h-64h-64v-64v-64v-64h-64h-64v64v64v64v64v64v64h64v64h64v64h64v64h64v-64h64v-64h64v-64h64v-64v-64v-64v-64v-64v-64h-64zM256 256h64v64v64h-64v64h-64v-64h-64v-64v-64h64h64zM384 576h-64v64h-64v64h64h64v-64h64v-64h-64z" />
    <glyph glyph-name="Aacute" unicode="&#xc1;" 
d="M384 0h-64v64v64v64h-64h-64h-64v-64v-64v-64h-64h-64v64v64v64v64v64v64h64v64h64v64h64v64h64v-64h64v-64h64v-64h64v-64v-64v-64v-64v-64v-64h-64zM256 256h64v64v64h-64v64h-64v-64h-64v-64v-64h64h64zM64 576h-64v64h64v64h64h64v-64h-64v-64h-64z" />
    <glyph glyph-name="Acircumflex" unicode="&#xc2;" 
d="M384 0h-64v64v64v64h-64h-64h-64v-64v-64v-64h-64h-64v64v64v64v64v64v64h64v64h64v64h64v64h64v-64h64v-64h64v-64h64v-64v-64v-64v-64v-64v-64h-64zM256 256h64v64v64h-64v64h-64v-64h-64v-64v-64h64h64zM384 576h-64v64h-64h-64h-64v-64h-64h-64v64h64v64h64h64h64h64
h64v-64h64v-64h-64z" />
    <glyph glyph-name="Atilde" unicode="&#xc3;" 
d="M384 0h-64v64v64v64h-64h-64h-64v-64v-64v-64h-64h-64v64v64v64v64v64v64h64v64h64v64h64h64h64v-64h64v-64h64v-64v-64v-64v-64v-64v-64h-64zM256 256h64v64v64h-64v64h-64v-64h-64v-64v-64h64h64zM320 576h-64h-64v64h-64v-64h-64h-64v64h64v64h64h64h64v-64h64v64h64
h64v-64h-64v-64h-64z" />
    <glyph glyph-name="Adieresis" unicode="&#xc4;" 
d="M384 0h-64v64v64v64v64h-64h-64h-64v-64v-64v-64v-64h-64h-64v64v64v64v64v64v64v64h64v64h64v64h64v64h64v-64h64v-64h64v-64h64v-64v-64v-64v-64v-64v-64v-64h-64zM256 320h64v64v64h-64v64h-64v-64h-64v-64v-64h64h64zM384 704h64v-64h-64h-64v64h64zM64 704h64v-64
h-64h-64v64h64z" />
    <glyph glyph-name="Aring" unicode="&#xc5;" 
d="M384 0h-64v64v64v64v64h-64h-64h-64v-64v-64v-64v-64h-64h-64v64v64v64v64v64v64h64v64h64v64h64v64h-64v64h-64v64h64v64h64h64h64v-64h64v-64h-64v-64h-64v-64h64v-64h64v-64h64v-64v-64v-64v-64v-64v-64h-64zM256 320h64v64h-64v64h-64v-64h-64v-64h64h64zM256 640v64
h-64v-64h64z" />
    <glyph glyph-name="AE" unicode="&#xc6;" 
d="M384 0h-64h-64v64v64v64v64v64h-64h-64v-64v-64v-64v-64v-64h-64h-64v64v64v64v64v64v64v64v64h64v64h64v64h64h64h64h64h64v-64h-64v-64v-64v-64h64v-64h-64v-64v-64v-64v-64h64v-64h-64zM192 384h64v64v64v64h-64v-64h-64v-64v-64h64z" />
    <glyph glyph-name="Ccedilla" unicode="&#xc7;" 
d="M384 448v64h-64v64h-64h-64v-64h-64v-64v-64v-64v-64v-64v-64h64v-64h64h64v64h64v64h64v-64v-64h-64v-64h-64v-64h-64v-64h-64h-64h-64v64h64h64v64h-64v64h-64v64h-64v64v64v64v64v64v64h64v64h64v64h64h64h64h64v-64h64v-64v-64h-64z" />
    <glyph glyph-name="Egrave" unicode="&#xc8;" 
d="M384 384v64h-64v64h-64h-64v-64v-64v-64h64h64v-64h-64h-64v-64v-64v-64h64h64v64h64v64h64v-64v-64v-64h-64h-64h-64h-64h-64h-64h-64v64h64v64v64v64v64v64v64v64h-64v64h64h64h64h64h64h64h64v-64v-64v-64h-64zM256 640h-64v64h-64v64h64h64v-64h64v-64h-64z" />
    <glyph glyph-name="Eacute" unicode="&#xc9;" 
d="M256 192v64h-64v-64v-64v-64h64h64v64h64v64h64v-64v-64v-64h-64h-64h-64h-64h-64h-64h-64v64h64v64v64v64v64v64v64v64h-64v64h64h64h64h64h64h64h64v-64v-64v-64h-64v64h-64v64h-64h-64v-64v-64v-64h64v64h64v-64v-64v-64h-64zM256 640h-64v64h64v64h64h64v-64h-64v-64
h-64z" />
    <glyph glyph-name="Ecircumflex" unicode="&#xca;" 
d="M384 384v64h-64v64h-64h-64v-64v-64v-64h64h64v-64h-64h-64v-64v-64v-64h64h64v64h64v64h64v-64v-64v-64h-64h-64h-64h-64h-64h-64h-64v64h64v64v64v64v64v64v64v64h-64v64h64h64h64h64h64h64h64v-64v-64v-64h-64zM320 640h-64v64h-64v-64h-64h-64v64h64v64h64h64h64v-64
h64v-64h-64z" />
    <glyph glyph-name="Edieresis" unicode="&#xcb;" 
d="M384 384v64h-64v64h-64h-64v-64v-64v-64h64h64v-64h-64h-64v-64v-64v-64h64h64v64h64v64h64v-64v-64v-64h-64h-64h-64h-64h-64h-64h-64v64h64v64v64v64v64v64v64v64h-64v64h64h64h64h64h64h64h64v-64v-64v-64h-64zM384 704h64v-64h-64h-64v64h64zM64 704h64v-64h-64h-64
v64h64z" />
    <glyph glyph-name="Igrave" unicode="&#xcc;" 
d="M320 0h-64h-64h-64v64h64v64v64v64v64v64v64v64h-64v64h64h64h64h64v-64h-64v-64v-64v-64v-64v-64v-64v-64h64v-64h-64zM256 640h-64v64h-64v64h64h64v-64h64v-64h-64z" />
    <glyph glyph-name="Iacute" unicode="&#xcd;" 
d="M320 0h-64h-64h-64v64h64v64v64v64v64v64v64v64h-64v64h64h64h64h64v-64h-64v-64v-64v-64v-64v-64v-64v-64h64v-64h-64zM256 640h-64v64h64v64h64h64v-64h-64v-64h-64z" />
    <glyph glyph-name="Icircumflex" unicode="&#xce;" 
d="M320 0h-64h-64h-64v64h64v64v64v64v64v64v64v64h-64v64h64h64h64h64v-64h-64v-64v-64v-64v-64v-64v-64v-64h64v-64h-64zM384 640h-64v64h-64h-64v-64h-64h-64v64h64v64h64h64h64h64v-64h64v-64h-64z" />
    <glyph glyph-name="Idieresis" unicode="&#xcf;" 
d="M320 0h-64h-64h-64v64h64v64v64v64v64v64v64v64h-64v64h64h64h64h64v-64h-64v-64v-64v-64v-64v-64v-64v-64h64v-64h-64zM384 704h64v-64h-64h-64v64h64zM128 704h64v-64h-64h-64v64h64z" />
    <glyph glyph-name="Eth" unicode="&#xd0;" 
d="M256 0h-64h-64h-64h-64v64h64v64v64v64v64h-64v64h64v64v64v64h-64v64h64h64h64h64h64v-64h64v-64h64v-64v-64v-64v-64v-64v-64h-64v-64h-64v-64h-64zM256 64v64h64v64v64v64v64v64v64h-64v64h-64v-64v-64v-64h64v-64h-64v-64v-64v-64v-64h64z" />
    <glyph glyph-name="Ntilde" unicode="&#xd1;" 
d="M384 0h-64v64v64v64h-64v64h-64v64h-64v-64v-64v-64v-64v-64h-64h-64v64v64v64v64v64v64v64v64v64h64h64v-64h64v-64h64v-64h64v64v64v64h64h64v-64v-64v-64v-64v-64v-64v-64v-64v-64h-64zM320 640h-64h-64v64h-64v-64h-64h-64v64h64v64h64h64h64v-64h64v64h64h64v-64
h-64v-64h-64z" />
    <glyph glyph-name="Ograve" unicode="&#xd2;" 
d="M320 0h-64h-64h-64h-64v64h-64v64v64v64v64v64v64v64h64v64h64h64h64h64h64v-64h64v-64v-64v-64v-64v-64v-64v-64h-64v-64h-64zM256 64h64v64v64v64v64v64v64v64h-64h-64h-64v-64v-64v-64v-64v-64v-64v-64h64h64zM256 640h-64v64h-64v64h64h64v-64h64v-64h-64z" />
    <glyph glyph-name="Oacute" unicode="&#xd3;" 
d="M320 0h-64h-64h-64h-64v64h-64v64v64v64v64v64v64v64h64v64h64h64h64h64h64v-64h64v-64v-64v-64v-64v-64v-64v-64h-64v-64h-64zM256 64h64v64v64v64v64v64v64v64h-64h-64h-64v-64v-64v-64v-64v-64v-64v-64h64h64zM256 640h-64v64h64v64h64h64v-64h-64v-64h-64z" />
    <glyph glyph-name="Ocircumflex" unicode="&#xd4;" 
d="M320 0h-64h-64h-64h-64v64h-64v64v64v64v64v64v64v64h64v64h64h64h64h64h64v-64h64v-64v-64v-64v-64v-64v-64v-64h-64v-64h-64zM256 64h64v64v64v64v64v64v64v64h-64h-64h-64v-64v-64v-64v-64v-64v-64v-64h64h64zM320 640h-64v64h-64v-64h-64h-64v64h64v64h64h64h64v-64
h64v-64h-64z" />
    <glyph glyph-name="Otilde" unicode="&#xd5;" 
d="M320 0h-64h-64h-64h-64v64h-64v64v64v64v64v64v64v64h64v64h64h64h64h64h64v-64h64v-64v-64v-64v-64v-64v-64v-64h-64v-64h-64zM256 64h64v64v64v64v64v64v64v64h-64h-64h-64v-64v-64v-64v-64v-64v-64v-64h64h64zM320 640h-64h-64v64h-64v-64h-64h-64v64h64v64h64h64h64
v-64h64v64h64h64v-64h-64v-64h-64z" />
    <glyph glyph-name="Odieresis" unicode="&#xd6;" 
d="M320 0h-64h-64h-64h-64v64h-64v64v64v64v64v64v64v64h64v64h64h64h64h64h64v-64h64v-64v-64v-64v-64v-64v-64v-64h-64v-64h-64zM256 64h64v64v64v64v64v64v64v64h-64h-64h-64v-64v-64v-64v-64v-64v-64v-64h64h64zM384 704h64v-64h-64h-64v64h64zM64 704h64v-64h-64h-64
v64h64z" />
    <glyph glyph-name="multiply" unicode="&#xd7;" 
d="M384 64h-64v64h-64v64h-64v-64h-64v-64h-64h-64v64h64v64h64v64v64h-64v64h-64v64h64h64v-64h64v-64h64v64h64v64h64h64v-64h-64v-64h-64v-64v-64h64v-64h64v-64h-64z" />
    <glyph glyph-name="Oslash" unicode="&#xd8;" 
d="M64 -64v64v64h-64v64v64v64v64v64v64v64v64h64v64h64h64h64h64v64h64v-64v-64h64v-64v-64v-64v-64v-64v-64v-64v-64h-64v-64h-64h-64h-64h-64v-64h-64zM256 64h64v64v64v64v64v64v64h-64v-64v-64v-64v-64h-64v64v64v64v64h64v64v64h-64h-64v-64v-64v-64v-64v-64v-64h64
v-64v-64h64z" />
    <glyph glyph-name="Ugrave" unicode="&#xd9;" 
d="M320 0h-64h-64h-64h-64v64h-64v64v64v64v64v64v64v64v64h64h64v-64v-64v-64v-64v-64v-64v-64v-64h64h64h64v64v64v64v64v64v64v64v64h64h64v-64v-64v-64v-64v-64v-64v-64v-64h-64v-64h-64zM256 640h-64v64h-64v64h64h64v-64h64v-64h-64z" />
    <glyph glyph-name="Uacute" unicode="&#xda;" 
d="M320 0h-64h-64h-64h-64v64h-64v64v64v64v64v64v64v64v64h64h64v-64v-64v-64v-64v-64v-64v-64v-64h64h64h64v64v64v64v64v64v64v64v64h64h64v-64v-64v-64v-64v-64v-64v-64v-64h-64v-64h-64zM192 640h-64v64h64v64h64h64v-64h-64v-64h-64z" />
    <glyph glyph-name="Ucircumflex" unicode="&#xdb;" 
d="M320 0h-64h-64h-64h-64v64h-64v64v64v64v64v64v64v64v64h64h64v-64v-64v-64v-64v-64v-64v-64v-64h64h64h64v64v64v64v64v64v64v64v64h64h64v-64v-64v-64v-64v-64v-64v-64v-64h-64v-64h-64zM320 640h-64v64h-64v-64h-64h-64v64h64v64h64h64h64v-64h64v-64h-64z" />
    <glyph glyph-name="Udieresis" unicode="&#xdc;" 
d="M320 0h-64h-64h-64h-64v64h-64v64v64v64v64v64v64v64v64h64h64v-64v-64v-64v-64v-64v-64v-64v-64h64h64h64v64v64v64v64v64v64v64v64h64h64v-64v-64v-64v-64v-64v-64v-64v-64h-64v-64h-64zM384 704h64v-64h-64h-64v64h64zM64 704h64v-64h-64h-64v64h64z" />
    <glyph glyph-name="Yacute" unicode="&#xdd;" 
d="M320 0h-64h-64h-64v64h64v64v64v64h-64v64h-64v64v64v64v64h64h64v-64v-64v-64v-64h64h64v64v64v64v64h64h64v-64v-64v-64v-64h-64v-64h-64v-64v-64v-64h64v-64h-64zM256 640h-64v64h64v64h64h64v-64h-64v-64h-64z" />
    <glyph glyph-name="Thorn" unicode="&#xde;" 
d="M192 0h-64h-64h-64v64h64v64v64v64v64v64v64v64v64h-64v64h64h64h64h64v-64h-64v-64h64h64h64v-64h64v-64v-64v-64v-64h-64v-64h-64h-64h-64v-64h64v-64h-64zM256 192h64v64v64v64v64h-64h-64v-64v-64v-64v-64h64z" />
    <glyph glyph-name="germandbls" unicode="&#xdf;" 
d="M320 0h-64v64h64v64v64v64h-64v64h-64v64h64v64v64v64h-64h-64v-64v-64v-64v-64v-64v-64v-64v-64v-64h-64h-64v64v64v64v64v64v64v64v64v64h64v64h64h64h64h64v-64h64v-64v-64v-64h-64v-64h64v-64h64v-64v-64v-64h-64v-64h-64z" />
    <glyph glyph-name="agrave" unicode="&#xe0;" 
d="M384 0h-64v64h-64v64v64v64h-64h-64v-64v-64v-64h64h64v-64h-64h-64h-64v64h-64v64v64v64h64v64h64h64h64v64h-64h-64h-64v64h64h64h64h64v-64h64v-64v-64v-64v-64v-64h64v-64h-64zM256 512h-64v64h-64v64h-64v64h64h64v-64h64v-64h64v-64h-64z" />
    <glyph glyph-name="aacute" unicode="&#xe1;" 
d="M384 0h-64v64h-64v64v64v64h-64h-64v-64v-64v-64h64h64v-64h-64h-64h-64v64h-64v64v64v64h64v64h64h64h64v64h-64h-64h-64v64h64h64h64h64v-64h64v-64v-64v-64v-64v-64h64v-64h-64zM128 512h-64v64h64v64h64v64h64h64v-64h-64v-64h-64v-64h-64z" />
    <glyph glyph-name="acircumflex" unicode="&#xe2;" 
d="M384 0h-64v64h-64v64v64v64h-64h-64v-64v-64v-64h64h64v-64h-64h-64h-64v64h-64v64v64v64h64v64h64h64h64v64h-64h-64h-64v64h64h64h64h64v-64h64v-64v-64v-64v-64v-64h64v-64h-64zM320 512h-64v64h-64v-64h-64h-64v64h64v64h64v64h64v-64h64v-64h64v-64h-64z" />
    <glyph glyph-name="atilde" unicode="&#xe3;" 
d="M384 0h-64v64h-64v64v64v64h-64h-64v-64v-64v-64h64h64v-64h-64h-64h-64v64h-64v64v64v64h64v64h64h64h64v64h-64h-64h-64v64h64h64h64h64v-64h64v-64v-64v-64v-64v-64h64v-64h-64zM320 512h-64h-64v64h-64v-64h-64h-64v64h64v64h64h64h64v-64h64v64h64h64v-64h-64v-64
h-64z" />
    <glyph glyph-name="adieresis" unicode="&#xe4;" 
d="M384 0h-64v64h-64v64v64v64h-64h-64v-64v-64v-64h64h64v-64h-64h-64h-64v64h-64v64v64v64h64v64h64h64h64v64h-64h-64h-64v64h64h64h64h64v-64h64v-64v-64v-64v-64v-64h64v-64h-64zM320 640h64v-64h-64h-64v64h64zM64 640h64v-64h-64h-64v64h64z" />
    <glyph glyph-name="aring" unicode="&#xe5;" 
d="M384 0h-64v64h-64v64v64v64h-64h-64v-64v-64v-64h64h64v-64h-64h-64h-64v64h-64v64v64v64h64v64h64h64h64v64h-64h-64h-64v64h64h64h64h64v-64h64v-64v-64v-64v-64v-64h64v-64h-64zM256 512h-64h-64v64h-64v64h64v64h64h64h64v-64h64v-64h-64v-64h-64zM256 576v64h-64
v-64h64z" />
    <glyph glyph-name="ae" unicode="&#xe6;" 
d="M384 64h64v-64h-64h-64h-64v64h-64v64v64h-64v-64v-64h64v-64h-64h-64v64h-64v64v64h64v64h64v64v64h-64h-64v64h64h64h64v-64h64v64h64h64v-64h64v-64v-64v-64h-64h-64v-64v-64h64zM320 256v64v64h-64v-64v-64h64z" />
    <glyph glyph-name="ccedilla" unicode="&#xe7;" 
d="M192 -128h-64h-64v64h64h64v64h-64h-64v64h-64v64v64v64v64v64h64v64h64h64h64h64h64v-64h64v-64h-64h-64v64h-64h-64h-64v-64v-64v-64v-64v-64h64h64h64v64h64h64v-64h-64v-64h-64v-64h-64v-64h-64z" />
    <glyph glyph-name="egrave" unicode="&#xe8;" 
d="M320 0h-64h-64h-64h-64v64h-64v64v64v64v64v64h64v64h64h64h64h64h64v-64h64v-64v-64h-64h-64h-64h-64h-64v-64v-64v-64h64h64h64v64h64h64v-64h-64v-64h-64zM256 320h64v64h-64h-64h-64v-64h64h64zM256 512h-64v64h-64v64h-64v64h64h64v-64h64v-64h64v-64h-64z" />
    <glyph glyph-name="eacute" unicode="&#xe9;" 
d="M320 0h-64h-64h-64h-64v64h-64v64v64v64v64v64h64v64h64h64h64h64h64v-64h64v-64v-64h-64h-64h-64h-64h-64v-64v-64v-64h64h64h64v64h64h64v-64h-64v-64h-64zM256 320h64v64h-64h-64h-64v-64h64h64zM192 512h-64v64h64v64h64v64h64h64v-64h-64v-64h-64v-64h-64z" />
    <glyph glyph-name="ecircumflex" unicode="&#xea;" 
d="M320 0h-64h-64h-64h-64v64h-64v64v64v64v64v64h64v64h64h64h64h64h64v-64h64v-64v-64h-64h-64h-64h-64h-64v-64v-64v-64h64h64h64v64h64h64v-64h-64v-64h-64zM256 320h64v64h-64h-64h-64v-64h64h64zM320 512h-64v64h-64v-64h-64h-64v64h64v64h64v64h64v-64h64v-64h64v-64
h-64z" />
    <glyph glyph-name="edieresis" unicode="&#xeb;" 
d="M320 0h-64h-64h-64h-64v64h-64v64v64v64v64v64h64v64h64h64h64h64h64v-64h64v-64v-64h-64h-64h-64h-64h-64v-64v-64v-64h64h64h64v64h64h64v-64h-64v-64h-64zM256 320h64v64h-64h-64h-64v-64h64h64zM384 640h64v-64h-64h-64v64h64zM64 640h64v-64h-64h-64v64h64z" />
    <glyph glyph-name="igrave" unicode="&#xec;" 
d="M320 0h-64h-64h-64v64h64v64v64v64v64v64h-64v64h64h64h64v-64v-64v-64v-64v-64v-64h64v-64h-64zM256 512h-64v64h-64v64h-64v64h64h64v-64h64v-64h64v-64h-64z" />
    <glyph glyph-name="iacute" unicode="&#xed;" 
d="M320 0h-64h-64h-64v64h64v64v64v64v64v64h-64v64h64h64h64v-64v-64v-64v-64v-64v-64h64v-64h-64zM192 512h-64v64h64v64h64v64h64h64v-64h-64v-64h-64v-64h-64z" />
    <glyph glyph-name="icircumflex" unicode="&#xee;" 
d="M320 0h-64h-64h-64v64h64v64v64v64v64v64h-64v64h64h64h64v-64v-64v-64v-64v-64v-64h64v-64h-64zM384 512h-64v64h-64h-64v-64h-64h-64v64h64v64h64v64h64h64v-64h64v-64h64v-64h-64z" />
    <glyph glyph-name="idieresis" unicode="&#xef;" 
d="M320 0h-64h-64h-64v64h64v64v64v64v64v64h-64v64h64h64h64v-64v-64v-64v-64v-64v-64h64v-64h-64zM384 640h64v-64h-64h-64v64h64zM128 640h64v-64h-64h-64v64h64z" />
    <glyph glyph-name="eth" unicode="&#xf0;" 
d="M64 448v64h64v-64h-64zM256 0h-64h-64h-64v64h-64v64v64v64v64h64v64h64h64h64v64h-64v64h-64v64h-64v64h64h64v-64h64v-64h64v-64h64v-64v-64v-64v-64v-64v-64h-64v-64h-64zM192 64h64v64v64v64v64h-64h-64v-64v-64v-64v-64h64zM256 576v64h64v-64h-64z" />
    <glyph glyph-name="ntilde" unicode="&#xf1;" 
d="M384 0h-64v64v64v64v64v64v64h-64h-64v-64v-64v-64v-64v-64v-64h-64h-64v64v64v64v64v64v64h-64v64h64h64v-64h64v64h64h64h64v-64h64v-64v-64v-64v-64v-64v-64h-64zM320 512h-64h-64v64h-64v-64h-64h-64v64h64v64h64h64h64v-64h64v64h64h64v-64h-64v-64h-64z" />
    <glyph glyph-name="ograve" unicode="&#xf2;" 
d="M320 0h-64h-64h-64h-64v64h-64v64v64v64v64v64h64v64h64h64h64h64h64v-64h64v-64v-64v-64v-64v-64h-64v-64h-64zM256 64h64v64v64v64v64v64h-64h-64h-64v-64v-64v-64v-64v-64h64h64zM256 512h-64v64h-64v64h-64v64h64h64v-64h64v-64h64v-64h-64z" />
    <glyph glyph-name="oacute" unicode="&#xf3;" 
d="M320 0h-64h-64h-64h-64v64h-64v64v64v64v64v64h64v64h64h64h64h64h64v-64h64v-64v-64v-64v-64v-64h-64v-64h-64zM256 64h64v64v64v64v64v64h-64h-64h-64v-64v-64v-64v-64v-64h64h64zM128 512h-64v64h64v64h64v64h64h64v-64h-64v-64h-64v-64h-64z" />
    <glyph glyph-name="ocircumflex" unicode="&#xf4;" 
d="M320 0h-64h-64h-64h-64v64h-64v64v64v64v64v64h64v64h64h64h64h64h64v-64h64v-64v-64v-64v-64v-64h-64v-64h-64zM256 64h64v64v64v64v64v64h-64h-64h-64v-64v-64v-64v-64v-64h64h64zM320 512h-64v64h-64v-64h-64h-64v64h64v64h64v64h64v-64h64v-64h64v-64h-64z" />
    <glyph glyph-name="otilde" unicode="&#xf5;" 
d="M320 0h-64h-64h-64h-64v64h-64v64v64v64v64v64h64v64h64h64h64h64h64v-64h64v-64v-64v-64v-64v-64h-64v-64h-64zM256 64h64v64v64v64v64v64h-64h-64h-64v-64v-64v-64v-64v-64h64h64zM320 512h-64h-64v64h-64v-64h-64h-64v64h64v64h64h64h64v-64h64v64h64h64v-64h-64v-64
h-64z" />
    <glyph glyph-name="odieresis" unicode="&#xf6;" 
d="M320 0h-64h-64h-64h-64v64h-64v64v64v64v64v64h64v64h64h64h64h64h64v-64h64v-64v-64v-64v-64v-64h-64v-64h-64zM256 64h64v64v64v64v64v64h-64h-64h-64v-64v-64v-64v-64v-64h64h64zM384 640h64v-64h-64h-64v64h64zM64 640h64v-64h-64h-64v64h64z" />
    <glyph glyph-name="divide" unicode="&#xf7;" 
d="M256 192h64v-64h-64h-64v64h64zM384 320h64v-64h-64h-64h-64h-64h-64h-64v64h64h64h64h64h64zM256 448h64v-64h-64h-64v64h64z" />
    <glyph glyph-name="oslash" unicode="&#xf8;" 
d="M320 0h-64h-64h-64h-64v64h-64v64v64v64v64v64h64v64h64h64h64h64h64v-64h64v-64v-64v-64v-64v-64h-64v-64h-64zM256 64h64v64v64v64h-64v-64h-64v-64h-64v-64h64h64zM192 256v64h64v64h-64h-64v-64v-64h64z" />
    <glyph glyph-name="ugrave" unicode="&#xf9;" 
d="M384 0h-64v64h-64v-64h-64h-64h-64v64h-64v64v64v64v64v64v64h64h64v-64v-64v-64v-64v-64v-64h64h64v64v64v64v64v64v64h64h64v-64v-64v-64v-64v-64v-64h64v-64h-64zM256 512h-64v64h-64v64h-64v64h64h64v-64h64v-64h64v-64h-64z" />
    <glyph glyph-name="uacute" unicode="&#xfa;" 
d="M384 0h-64v64h-64v-64h-64h-64h-64v64h-64v64v64v64v64v64v64h64h64v-64v-64v-64v-64v-64v-64h64h64v64v64v64v64v64v64h64h64v-64v-64v-64v-64v-64v-64h64v-64h-64zM128 512h-64v64h64v64h64v64h64h64v-64h-64v-64h-64v-64h-64z" />
    <glyph glyph-name="ucircumflex" unicode="&#xfb;" 
d="M384 0h-64v64h-64v-64h-64h-64h-64v64h-64v64v64v64v64v64v64h64h64v-64v-64v-64v-64v-64v-64h64h64v64v64v64v64v64v64h64h64v-64v-64v-64v-64v-64v-64h64v-64h-64zM320 512h-64v64h-64h-64v-64h-64h-64v64h64v64h64v64h64h64v-64h64v-64h64v-64h-64z" />
    <glyph glyph-name="udieresis" unicode="&#xfc;" 
d="M384 0h-64v64h-64v-64h-64h-64h-64v64h-64v64v64v64v64v64v64h64h64v-64v-64v-64v-64v-64v-64h64h64v64v64v64v64v64v64h64h64v-64v-64v-64v-64v-64v-64h64v-64h-64zM320 640h64v-64h-64h-64v64h64zM64 640h64v-64h-64h-64v64h64z" />
    <glyph glyph-name="yacute" unicode="&#xfd;" 
d="M256 -192h-64h-64h-64h-64v64h64h64h64h64v64h64v64h-64h-64h-64h-64v64h-64v64v64v64v64v64v64h64h64v-64v-64v-64v-64v-64v-64h64h64h64v64v64v64v64v64v64h64h64v-64v-64v-64v-64v-64v-64v-64v-64h-64v-64h-64v-64h-64zM192 512h-64v64h64v64h64v64h64h64v-64h-64v-64
h-64v-64h-64z" />
    <glyph glyph-name="thorn" unicode="&#xfe;" 
d="M192 -192h-64h-64h-64v64h64v64v64v64v64v64v64v64v64v64v64v64v64h-64v64h64h64h64v-64v-64v-64v-64h64h64h64v-64h64v-64v-64v-64v-64v-64h-64v-64h-64h-64h-64v-64v-64h64v-64h-64zM256 64h64v64v64v64v64v64h-64h-64v-64v-64v-64v-64v-64h64z" />
    <glyph glyph-name="ydieresis" unicode="&#xff;" 
d="M256 -192h-64h-64h-64h-64v64h64h64h64h64v64h64v64h-64h-64h-64h-64v64h-64v64v64v64v64v64v64h64h64v-64v-64v-64v-64v-64v-64h64h64h64v64v64v64v64v64v64h64h64v-64v-64v-64v-64v-64v-64v-64v-64h-64v-64h-64v-64h-64zM384 640h64v-64h-64h-64v64h64zM64 640h64v-64
h-64h-64v64h64z" />
    <glyph glyph-name="Amacron" unicode="&#x100;" 
d="M384 0h-64v64v64v64v64h-64h-64h-64v-64v-64v-64v-64h-64h-64v64v64v64v64v64v64v64h64v64h64v64h64v64h64v-64h64v-64h64v-64h64v-64v-64v-64v-64v-64v-64v-64h-64zM256 320h64v64v64h-64v64h-64v-64h-64v-64v-64h64h64zM320 768h64v-64h-64h-64h-64h-64h-64v64h64h64
h64h64z" />
    <glyph glyph-name="amacron" unicode="&#x101;" 
d="M384 0h-64v64h-64v64v64v64h-64h-64v-64v-64v-64h64h64v-64h-64h-64h-64v64h-64v64v64v64h64v64h64h64h64v64h-64h-64h-64v64h64h64h64h64v-64h64v-64v-64v-64v-64v-64h64v-64h-64zM384 640h64v-64h-64h-64h-64h-64h-64h-64v64h64h64h64h64h64z" />
    <glyph glyph-name="Abreve" unicode="&#x102;" 
d="M384 0h-64v64v64v64h-64h-64h-64v-64v-64v-64h-64h-64v64v64v64v64v64v64h64v64h64v64h64v64h64v-64h64v-64h64v-64h64v-64v-64v-64v-64v-64v-64h-64zM256 256h64v64v64h-64v64h-64v-64h-64v-64v-64h64h64zM320 640h-64h-64h-64h-64v64h-64v64h64h64v-64h64h64h64v64h64
h64v-64h-64v-64h-64z" />
    <glyph glyph-name="abreve" unicode="&#x103;" 
d="M384 0h-64v64h-64v64v64v64h-64h-64v-64v-64v-64h64h64v-64h-64h-64h-64v64h-64v64v64v64h64v64h64h64h64v64h-64h-64h-64v64h64h64h64h64v-64h64v-64v-64v-64v-64v-64h64v-64h-64zM320 512h-64h-64h-64h-64v64h-64v64h64h64v-64h64h64h64v64h64h64v-64h-64v-64h-64z" />
    <glyph glyph-name="Aogonek" unicode="&#x104;" 
d="M384 -128h64v-64h-64h-64h-64h-64v64h-64v64h64v64h64h64v-64h-64v-64h64h64zM320 0v64v64v64v64h-64h-64h-64v-64v-64v-64v-64h-64h-64v64v64v64v64v64v64v64h64v64h64v64h64v64h64v-64h64v-64h64v-64h64v-64v-64v-64v-64v-64v-64v-64h-64h-64zM256 320h64v64v64h-64v64
h-64v-64h-64v-64v-64h64h64z" />
    <glyph glyph-name="aogonek" unicode="&#x105;" 
d="M384 -128h64v-64h-64h-64h-64h-64v64h-64v64h64v64h-64h-64v64h-64v64v64v64h64v64h64h64h64v64h-64h-64h-64v64h64h64h64h64v-64h64v-64v-64v-64v-64v-64h64v-64h-64h-64v64h-64v64v64v64h-64h-64v-64v-64v-64h64h64v-64h64v-64h-64v-64h64h64z" />
    <glyph glyph-name="Cacute" unicode="&#x106;" 
d="M384 384v64h-64v64h-64h-64v-64h-64v-64v-64v-64v-64v-64h64v-64h64h64v64h64v64h64v-64v-64h-64v-64h-64h-64h-64h-64v64h-64v64h-64v64v64v64v64v64h64v64h64v64h64h64h64h64v-64h64v-64v-64h-64zM256 640h-64v64h64v64h64h64v-64h-64v-64h-64z" />
    <glyph glyph-name="cacute" unicode="&#x107;" 
d="M320 0h-64h-64h-64h-64v64h-64v64v64v64v64v64h64v64h64h64h64h64h64v-64h64v-64h-64h-64v64h-64h-64h-64v-64v-64v-64v-64v-64h64h64h64v64h64h64v-64h-64v-64h-64zM192 512h-64v64h64v64h64v64h64h64v-64h-64v-64h-64v-64h-64z" />
    <glyph glyph-name="Ccircumflex" unicode="&#x108;" 
d="M384 384v64h-64v64h-64h-64v-64h-64v-64v-64v-64v-64v-64h64v-64h64h64v64h64v64h64v-64v-64h-64v-64h-64h-64h-64h-64v64h-64v64h-64v64v64v64v64v64h64v64h64v64h64h64h64h64v-64h64v-64v-64h-64zM320 640h-64v64h-64v-64h-64h-64v64h64v64h64h64h64v-64h64v-64h-64z
" />
    <glyph glyph-name="ccircumflex" unicode="&#x109;" 
d="M320 0h-64h-64h-64h-64v64h-64v64v64v64v64v64h64v64h64h64h64h64h64v-64h64v-64h-64h-64v64h-64h-64h-64v-64v-64v-64v-64v-64h64h64h64v64h64h64v-64h-64v-64h-64zM384 512h-64v64h-64h-64v-64h-64h-64v64h64v64h64v64h64h64v-64h64v-64h64v-64h-64z" />
    <glyph glyph-name="Cdotaccent" unicode="&#x10a;" 
d="M384 384v64h-64v64h-64h-64v-64h-64v-64v-64v-64v-64v-64h64v-64h64h64v64h64v64h64v-64v-64h-64v-64h-64h-64h-64h-64v64h-64v64h-64v64v64v64v64v64h64v64h64v64h64h64h64h64v-64h64v-64v-64h-64zM256 640h-64v64v64h64h64v-64v-64h-64z" />
    <glyph glyph-name="cdotaccent" unicode="&#x10b;" 
d="M320 0h-64h-64h-64h-64v64h-64v64v64v64v64v64h64v64h64h64h64h64h64v-64h64v-64h-64h-64v64h-64h-64h-64v-64v-64v-64v-64v-64h64h64h64v64h64h64v-64h-64v-64h-64zM256 512h-64v64v64h64h64v-64v-64h-64z" />
    <glyph glyph-name="Ccaron" unicode="&#x10c;" 
d="M384 384v64h-64v64h-64h-64v-64h-64v-64v-64v-64v-64v-64h64v-64h64h64v64h64v64h64v-64v-64h-64v-64h-64h-64h-64h-64v64h-64v64h-64v64v64v64v64v64h64v64h64v64h64h64h64h64v-64h64v-64v-64h-64zM320 640h-64h-64h-64v64h-64v64h64h64v-64h64h64v64h64h64v-64h-64v-64
h-64z" />
    <glyph glyph-name="ccaron" unicode="&#x10d;" 
d="M320 0h-64h-64h-64h-64v64h-64v64v64v64v64v64h64v64h64h64h64h64h64v-64h64v-64h-64h-64v64h-64h-64h-64v-64v-64v-64v-64v-64h64h64h64v64h64h64v-64h-64v-64h-64zM256 512h-64h-64v64h-64v64h64h64v-64h64v64h64h64v-64h-64v-64h-64z" />
    <glyph glyph-name="Dcaron" unicode="&#x10e;" 
d="M256 0h-64h-64h-64h-64v64h64v64v64v64v64v64v64v64h-64v64h64h64h64h64h64v-64h64v-64h64v-64v-64v-64v-64v-64h-64v-64h-64v-64h-64zM256 64v64h64v64v64v64v64v64h-64v64h-64v-64v-64v-64v-64v-64v-64v-64h64zM256 640h-64h-64v64h-64v64h64h64v-64h64v64h64h64v-64
h-64v-64h-64z" />
    <glyph glyph-name="dcaron" unicode="&#x10f;" 
d="M448 448v64v64v64h64v-64v-64v-64h-64zM384 0h-64v64h-64v64v64v64v64v64h-64v-64h-64v-64v-64v-64v-64h64h64v-64h-64h-64h-64v64h-64v64v64v64v64h64v64h64v64h64h64v64v64h-64v64h64h64h64v-64v-64v-64v-64v-64v-64v-64v-64v-64h64v-64h-64z" />
    <glyph glyph-name="Dcroat" unicode="&#x110;" 
d="M256 0h-64h-64h-64h-64v64h64v64v64v64v64h-64v64h64v64v64v64h-64v64h64h64h64h64h64v-64h64v-64h64v-64v-64v-64v-64v-64v-64h-64v-64h-64v-64h-64zM256 64v64h64v64v64v64v64v64v64h-64v64h-64v-64v-64v-64h64v-64h-64v-64v-64v-64v-64h64z" />
    <glyph glyph-name="dcroat" unicode="&#x111;" 
d="M384 0h-64v64h-64v64v64v64v64h-64v-64h-64v-64v-64v-64h64h64v-64h-64h-64h-64v64h-64v64v64v64h64v64h64v64h64h64v64h-64h-64h-64v64h64h64h64v64h-64v64h64h64h64v-64v-64h64v-64h-64v-64v-64v-64v-64v-64v-64h64v-64h-64z" />
    <glyph glyph-name="Emacron" unicode="&#x112;" 
d="M256 256v64h-64v-64v-64v-64v-64h64h64v64h64v64h64v-64v-64v-64h-64h-64h-64h-64h-64h-64h-64v64h64v64v64v64v64v64v64v64v64h-64v64h64h64h64h64h64h64h64v-64v-64v-64h-64v64h-64v64h-64h-64v-64v-64v-64h64v64h64v-64v-64v-64h-64zM384 768h64v-64h-64h-64h-64h-64
h-64h-64v64h64h64h64h64h64z" />
    <glyph glyph-name="emacron" unicode="&#x113;" 
d="M320 0h-64h-64h-64h-64v64h-64v64v64v64v64v64h64v64h64h64h64h64h64v-64h64v-64v-64h-64h-64h-64h-64h-64v-64v-64v-64h64h64h64v64h64h64v-64h-64v-64h-64zM256 320h64v64h-64h-64h-64v-64h64h64zM320 640h64v-64h-64h-64h-64h-64h-64v64h64h64h64h64z" />
    <glyph glyph-name="Edotaccent" unicode="&#x116;" 
d="M256 192v64h-64v-64v-64v-64h64h64v64h64v64h64v-64v-64v-64h-64h-64h-64h-64h-64h-64h-64v64h64v64v64v64v64v64v64v64h-64v64h64h64h64h64h64h64h64v-64v-64v-64h-64v64h-64v64h-64h-64v-64v-64v-64h64v64h64v-64v-64v-64h-64zM256 640h-64v64v64h64h64v-64v-64h-64z
" />
    <glyph glyph-name="edotaccent" unicode="&#x117;" 
d="M320 0h-64h-64h-64h-64v64h-64v64v64v64v64v64h64v64h64h64h64h64h64v-64h64v-64v-64h-64h-64h-64h-64h-64v-64v-64v-64h64h64h64v64h64h64v-64h-64v-64h-64zM256 320h64v64h-64h-64h-64v-64h64h64zM256 512h-64v64v64h64h64v-64v-64h-64z" />
    <glyph glyph-name="Eogonek" unicode="&#x118;" 
d="M256 256v64h-64v-64v-64v-64v-64h64h64v64h64v64h64v-64v-64v-64h-64h-64v-64h-64v-64h64h64h64v-64h-64h-64h-64h-64v64h-64v64h64v64h-64h-64h-64v64h64v64v64v64v64v64v64v64v64h-64v64h64h64h64h64h64h64h64v-64v-64v-64h-64v64h-64v64h-64h-64v-64v-64v-64h64v64h64
v-64v-64v-64h-64z" />
    <glyph glyph-name="eogonek" unicode="&#x119;" 
d="M320 -128h64v-64h-64h-64h-64h-64v64h-64v64h64v64h-64v64h-64v64v64v64v64v64h64v64h64h64h64h64h64v-64h64v-64v-64h-64h-64h-64h-64h-64v-64v-64v-64h64h64h64v64h64h64v-64h-64v-64h-64h-64v-64h-64v-64h64h64zM256 320h64v64h-64h-64h-64v-64h64h64z" />
    <glyph glyph-name="Ecaron" unicode="&#x11a;" 
d="M256 192v64h-64v-64v-64v-64h64h64v64h64v64h64v-64v-64v-64h-64h-64h-64h-64h-64h-64h-64v64h64v64v64v64v64v64v64v64h-64v64h64h64h64h64h64h64h64v-64v-64v-64h-64v64h-64v64h-64h-64v-64v-64v-64h64v64h64v-64v-64v-64h-64zM256 640h-64h-64v64h-64v64h64h64v-64h64
v64h64h64v-64h-64v-64h-64z" />
    <glyph glyph-name="ecaron" unicode="&#x11b;" 
d="M320 0h-64h-64h-64h-64v64h-64v64v64v64v64v64h64v64h64h64h64h64h64v-64h64v-64v-64h-64h-64h-64h-64h-64v-64v-64v-64h64h64h64v64h64h64v-64h-64v-64h-64zM256 320h64v64h-64h-64h-64v-64h64h64zM320 512h-64h-64h-64v64h-64v64h64h64v-64h64h64v64h64h64v-64h-64v-64
h-64z" />
    <glyph glyph-name="Gcircumflex" unicode="&#x11c;" 
d="M384 0v64h-64v-64h-64h-64h-64v64h-64v64h-64v64v64v64v64v64h64v64h64v64h64h64h64h64v-64h64v-64v-64h-64v64h-64v64h-64h-64v-64h-64v-64v-64v-64v-64v-64h64v-64h64h64v64v64v64h-64h-64v64h64h64h64h64v-64v-64v-64v-64v-64h-64zM320 640h-64v64h-64v-64h-64h-64v64
h64v64h64h64h64v-64h64v-64h-64z" />
    <glyph glyph-name="gcircumflex" unicode="&#x11d;" 
d="M256 -192h-64h-64h-64v64h-64v64h64h64v-64h64h64v64v64h-64h-64h-64v64h-64v64v64v64v64v64h64v64h64h64h64v-64h-64h-64v-64v-64v-64v-64v-64h64h64v64v64v64v64v64h64v64h64h64v-64h-64v-64v-64v-64v-64v-64v-64v-64v-64h-64v-64h-64zM320 512h-64v64h-64v-64h-64h-64
v64h64v64h64h64h64v-64h64v-64h-64z" />
    <glyph glyph-name="Gbreve" unicode="&#x11e;" 
d="M384 0v64h-64v-64h-64h-64h-64v64h-64v64h-64v64v64v64v64v64h64v64h64v64h-64v64v64h64h64v-64h64h64v64h64h64v-64v-64h-64v-64h64v-64v-64h-64v64h-64v64h-64h-64v-64h-64v-64v-64v-64v-64v-64h64v-64h64h64v64v64v64h-64h-64v64h64h64h64h64v-64v-64v-64v-64v-64h-64
z" />
    <glyph glyph-name="gbreve" unicode="&#x11f;" 
d="M256 -192h-64h-64h-64v64h-64v64h64h64v-64h64h64v64v64h-64h-64h-64v64h-64v64v64v64v64v64h64v64h64h64h64v-64h-64h-64v-64v-64v-64v-64v-64h64h64v64v64v64v64v64h64v64h64h64v-64h-64v-64v-64v-64v-64v-64v-64v-64v-64h-64v-64h-64zM256 512h-64h-64h-64v64h-64v64
h64h64v-64h64h64v64h64h64v-64h-64v-64h-64z" />
    <glyph glyph-name="Gdotaccent" unicode="&#x120;" 
d="M384 0v64h-64v-64h-64h-64h-64v64h-64v64h-64v64v64v64v64v64h64v64h64v64h64h64h64h64v-64h64v-64v-64h-64v64h-64v64h-64h-64v-64h-64v-64v-64v-64v-64v-64h64v-64h64h64v64v64v64h-64h-64v64h64h64h64h64v-64v-64v-64v-64v-64h-64zM256 640h-64v64v64h64h64v-64v-64
h-64z" />
    <glyph glyph-name="gdotaccent" unicode="&#x121;" 
d="M256 -192h-64h-64h-64v64h-64v64h64h64v-64h64h64v64v64h-64h-64h-64v64h-64v64v64v64v64v64h64v64h64h64h64v-64h-64h-64v-64v-64v-64v-64v-64h64h64v64v64v64v64v64h64v64h64h64v-64h-64v-64v-64v-64v-64v-64v-64v-64v-64h-64v-64h-64zM192 512h-64v64v64h64h64v-64
v-64h-64z" />
    <glyph glyph-name="Gcommaaccent" unicode="&#x122;" 
d="M384 448v64h-64v64h-64h-64v-64h-64v-64v-64v-64v-64v-64v-64h64v-64h64h64v-64h64v-64h64v-64h-64v-64h-64h-64h-64h-64v64h64h64h64v64h-64v64h-64h-64v64h-64v64h-64v64v64v64v64v64v64h64v64h64v64h64h64h64h64v-64h64v-64v-64h-64zM384 0v64h-64v64v64v64h-64h-64
v64h64h64h64h64v-64v-64v-64v-64v-64h-64z" />
    <glyph glyph-name="gcommaaccent" unicode="&#x123;" 
d="M256 -192h-64h-64h-64v64h-64v64h64h64v-64h64h64v64v64h-64h-64h-64v64h-64v64v64v64v64v64h64v64h64h64h64v-64h-64h-64v-64v-64v-64v-64v-64h64h64v64v64v64v64v64h64v64h64h64v-64h-64v-64v-64v-64v-64v-64v-64v-64v-64h-64v-64h-64zM256 512h-64v64v64h64v-64h64
v-64h-64z" />
    <glyph glyph-name="Hcircumflex" unicode="&#x124;" 
d="M384 0h-64v64v64v64v64h-64h-64h-64v-64v-64v-64v-64h-64h-64v64v64v64v64v64v64v64v64v64h64h64v-64v-64v-64v-64h64h64h64v64v64v64v64h64h64v-64v-64v-64v-64v-64v-64v-64v-64v-64h-64zM320 640h-64v64h-64v-64h-64h-64v64h64v64h64h64h64v-64h64v-64h-64z" />
    <glyph glyph-name="hcircumflex" unicode="&#x125;" 
d="M384 0h-64v64v64v64v64v64h-64h-64v-64v-64v-64v-64v-64h-64h-64h-64v64h64v64v64v64v64v64v64v64h-64v64h64h64h64v-64v-64v-64h64h64h64v-64h64v-64v-64v-64v-64v-64h-64zM384 640h-64v64h-64v-64h-64h-64v64h64v64h64h64h64v-64h64v-64h-64z" />
    <glyph glyph-name="Hbar" unicode="&#x126;" 
d="M448 0h-64v64v64v64v64v64h-64h-64h-64v-64v-64v-64v-64v-64h-64h-64v64v64v64v64v64v64v64v64v64v64h64h64v-64h64h64h64v64h64h64v-64v-64v-64v-64v-64v-64v-64v-64v-64v-64h-64zM320 384h64v64v64h-64h-64h-64v-64v-64h64h64z" />
    <glyph glyph-name="hbar" unicode="&#x127;" 
d="M384 0h-64v64v64v64v64v64h-64h-64v-64v-64v-64v-64v-64h-64h-64h-64v64h64v64v64v64v64v64v64v64h-64v64h64v64h64h64v-64h64h64v-64h-64h-64v-64v-64h64h64h64v-64h64v-64v-64v-64v-64v-64h-64z" />
    <glyph glyph-name="Itilde" unicode="&#x128;" 
d="M320 0h-64h-64h-64v64h64v64v64v64v64v64v64v64h-64v64h64h64h64h64v-64h-64v-64v-64v-64v-64v-64v-64v-64h64v-64h-64zM384 640h-64h-64v64h-64v-64h-64h-64v64h64v64h64h64h64v-64h64v64h64h64v-64h-64v-64h-64z" />
    <glyph glyph-name="itilde" unicode="&#x129;" 
d="M320 0h-64h-64h-64v64h64v64v64v64v64v64h-64v64h64h64h64v-64v-64v-64v-64v-64v-64h64v-64h-64zM384 512h-64h-64v64h-64v-64h-64h-64v64h64v64h64h64h64v-64h64v64h64h64v-64h-64v-64h-64z" />
    <glyph glyph-name="Imacron" unicode="&#x12a;" 
d="M320 0h-64h-64h-64v64h64v64v64v64v64v64v64v64v64h-64v64h64h64h64h64v-64h-64v-64v-64v-64v-64v-64v-64v-64v-64h64v-64h-64zM384 768h64v-64h-64h-64h-64h-64h-64h-64v64h64h64h64h64h64z" />
    <glyph glyph-name="imacron" unicode="&#x12b;" 
d="M320 0h-64h-64h-64v64h64v64v64v64v64v64h-64v64h64h64h64v-64v-64v-64v-64v-64v-64h64v-64h-64zM320 640h64v-64h-64h-64h-64h-64h-64v64h64h64h64h64z" />
    <glyph glyph-name="Iogonek" unicode="&#x12e;" 
d="M384 -128h64v-64h-64h-64h-64h-64v64h-64v64h64v64h-64v64h64v64v64v64v64v64v64v64v64h-64v64h64h64h64h64v-64h-64v-64v-64v-64v-64v-64v-64v-64v-64h64v-64h-64v-64h-64v-64h64h64z" />
    <glyph glyph-name="iogonek" unicode="&#x12f;" 
d="M384 -128h64v-64h-64h-64h-64h-64v64h-64v64h64v64h-64v64h64v64v64v64v64v64h-64v64h64h64h64v-64v-64v-64v-64v-64v-64h64v-64h-64v-64h-64v-64h64h64zM256 512h-64v64v64h64h64v-64v-64h-64z" />
    <glyph glyph-name="Idotaccent" unicode="&#x130;" 
d="M320 0h-64h-64h-64v64h64v64v64v64v64v64v64v64v64h-64v64h64h64h64h64v-64h-64v-64v-64v-64v-64v-64v-64v-64v-64h64v-64h-64zM256 768h64v-64h-64h-64v64h64z" />
    <glyph glyph-name="dotlessi" unicode="&#x131;" 
d="M320 0h-64h-64h-64v64h64v64v64v64v64v64h-64v64h64h64h64v-64v-64v-64v-64v-64v-64h64v-64h-64z" />
    <glyph glyph-name="Jcircumflex" unicode="&#x134;" 
d="M256 0h-64h-64h-64v64h-64v64v64v64h64h64v-64v-64v-64h64h64v64v64v64v64v64v64v64h-64v64h64h64h64h64v-64h-64v-64v-64v-64v-64v-64v-64v-64h-64v-64h-64zM384 640h-64v64h-64v-64h-64h-64v64h64v64h64h64h64v-64h64v-64h-64z" />
    <glyph glyph-name="jcircumflex" unicode="&#x135;" 
d="M256 -192h-64h-64h-64v64h-64v64h64h64v-64h64h64v64v64v64v64v64v64v64v64h-64v64h64h64h64v-64v-64v-64v-64v-64v-64v-64v-64v-64h-64v-64h-64zM384 512h-64v64h-64v-64h-64h-64v64h64v64h64h64h64v-64h64v-64h-64z" />
    <glyph glyph-name="Kcommaaccent" unicode="&#x136;" 
d="M256 -192h-64h-64h-64v64h64h64h64v64h-64v64h64h64v-64h64v-64h-64v-64h-64zM320 0v64v64v64h-64v64h-64v-64v-64v-64v-64h-64h-64h-64v64h64v64v64v64v64v64v64v64v64h-64v64h64h64h64v-64v-64v-64v-64h64v64h64v64v64v64h64h64v-64v-64v-64h-64v-64h-64v-64v-64h64
v-64h64v-64v-64v-64h-64h-64z" />
    <glyph glyph-name="kcommaaccent" unicode="&#x137;" 
d="M256 -192h-64h-64h-64v64h64h64h64v64h-64v64h64h64v-64h64v-64h-64v-64h-64zM320 0v64v64h-64v64h-64v-64v-64v-64h-64h-64h-64v64h64v64v64v64v64v64v64v64v64h-64v64h64h64h64v-64v-64v-64v-64v-64h64v64h64v64h64h64v-64h-64v-64h-64v-64v-64h64v-64h64v-64v-64h-64
h-64z" />
    <glyph glyph-name="kgreenlandic" unicode="&#x138;" 
d="M384 0h-64v64v64h-64v64h-64v-64v-64v-64h-64h-64h-64v64h64v64v64v64v64v64h-64v64h64h64h64v-64v-64h64v64h64v64h64h64v-64h-64v-64h-64v-64v-64h64v-64h64v-64v-64h-64z" />
    <glyph glyph-name="Lacute" unicode="&#x139;" 
d="M384 0h-64h-64h-64h-64h-64h-64v64h64v64v64v64v64v64v64v64h-64v64h64h64h64h64v-64h-64v-64v-64v-64v-64v-64v-64v-64h64h64v64h64v64h64v-64v-64v-64h-64zM128 640h-64v64h64v64h64h64v-64h-64v-64h-64z" />
    <glyph glyph-name="lacute" unicode="&#x13a;" 
d="M320 0h-64h-64h-64v64h64v64v64v64v64v64v64v64h-64v64h64h64h64v-64v-64v-64v-64v-64v-64v-64v-64h64v-64h-64zM256 640h-64v64h64v64h64h64v-64h-64v-64h-64z" />
    <glyph glyph-name="Lcommaaccent" unicode="&#x13b;" 
d="M256 -192h-64h-64h-64v64h64h64h64v64h-64v64h-64h-64h-64v64h64v64v64v64v64v64v64v64v64h-64v64h64h64h64h64v-64h-64v-64v-64v-64v-64v-64v-64v-64v-64h64h64v64h64v64h64v-64v-64v-64h-64h-64v-64h64v-64h-64v-64h-64z" />
    <glyph glyph-name="lcommaaccent" unicode="&#x13c;" 
d="M256 -192h-64h-64h-64v64h64h64h64v64h-64v64h-64v64h64v64v64v64v64v64v64v64v64h-64v64h64h64h64v-64v-64v-64v-64v-64v-64v-64v-64v-64h64v-64h-64v-64h64v-64h-64v-64h-64z" />
    <glyph glyph-name="Lcaron" unicode="&#x13d;" 
d="M320 448v64h64v-64h-64zM384 0h-64h-64h-64h-64h-64h-64v64h64v64v64v64v64v64v64v64v64h-64v64h64h64h64h64v-64h-64v-64v-64v-64v-64v-64v-64v-64v-64h64h64v64h64v64h64v-64v-64v-64h-64zM384 512v64h-64v64h64h64v-64v-64h-64z" />
    <glyph glyph-name="lcaron" unicode="&#x13e;" 
d="M384 448v64h64v-64h-64zM320 0h-64h-64h-64v64h64v64v64v64v64v64v64v64v64h-64v64h64h64h64v-64v-64v-64v-64v-64v-64v-64v-64v-64h64v-64h-64zM448 512v64h-64v64h64h64v-64v-64h-64z" />
    <glyph glyph-name="Lslash" unicode="&#x141;" 
d="M384 0h-64h-64h-64h-64h-64h-64v64h64v64v64h-64v64v64h64v64v64v64v64h-64v64h64h64h64h64v-64h-64v-64v-64h64v64h64v64h64v-64v-64h-64v-64h-64v-64h-64v-64v-64v-64v-64h64h64v64h64v64h64v-64v-64v-64h-64z" />
    <glyph glyph-name="lslash" unicode="&#x142;" 
d="M64 128v64v64h64v64h64v64v64v64v64h-64v64h64h64h64v-64v-64h64v64h64v-64v-64h-64v-64h-64v-64v-64v-64v-64v-64h64v-64h-64h-64h-64h-64v64h64v64v64h-64v-64h-64z" />
    <glyph glyph-name="Nacute" unicode="&#x143;" 
d="M384 0h-64v64v64v64h-64v64h-64v64h-64v-64v-64v-64v-64v-64h-64h-64v64v64v64v64v64v64v64v64v64h64h64v-64h64v-64h64v-64h64v64v64v64h64h64v-64v-64v-64v-64v-64v-64v-64v-64v-64h-64zM256 640h-64v64h64v64h64h64v-64h-64v-64h-64z" />
    <glyph glyph-name="nacute" unicode="&#x144;" 
d="M384 0h-64v64v64v64v64v64v64h-64h-64v-64v-64v-64v-64v-64v-64h-64h-64v64v64v64v64v64v64h-64v64h64h64v-64h64v64h64h64h64v-64h64v-64v-64v-64v-64v-64v-64h-64zM192 512h-64v64h64v64h64v64h64h64v-64h-64v-64h-64v-64h-64z" />
    <glyph glyph-name="Ncommaaccent" unicode="&#x145;" 
d="M192 -192h-64h-64h-64v64h64h64h64v64h-64v64h64h64v-64h64v-64h-64v-64h-64zM384 0h-64v64v64v64h-64v64h-64v64h-64v-64v-64v-64v-64v-64h-64h-64v64v64v64v64v64v64v64v64v64h64h64v-64h64v-64h64v-64h64v64v64v64h64h64v-64v-64v-64v-64v-64v-64v-64v-64v-64h-64z
" />
    <glyph glyph-name="ncommaaccent" unicode="&#x146;" 
d="M320 -192h-64h-64h-64v64h64h64h64v64h-64v64h64v64v64v64v64v64v64h-64h-64v-64v-64v-64v-64v-64v-64h-64h-64v64v64v64v64v64v64h-64v64h64h64v-64h64v64h64h64h64v-64h64v-64v-64v-64v-64v-64v-64h-64v-64h64v-64h-64v-64h-64z" />
    <glyph glyph-name="Ncaron" unicode="&#x147;" 
d="M384 0h-64v64v64v64h-64v64h-64v64h-64v-64v-64v-64v-64v-64h-64h-64v64v64v64v64v64v64v64v64v64h64h64v-64h64v-64h64v-64h64v64v64v64h64h64v-64v-64v-64v-64v-64v-64v-64v-64v-64h-64zM256 640h-64h-64v64h-64v64h64h64v-64h64v64h64h64v-64h-64v-64h-64z" />
    <glyph glyph-name="ncaron" unicode="&#x148;" 
d="M384 0h-64v64v64v64v64v64v64h-64h-64v-64v-64v-64v-64v-64v-64h-64h-64v64v64v64v64v64v64h-64v64h64h64v-64h64v64h64h64h64v-64h64v-64v-64v-64v-64v-64v-64h-64zM256 512h-64h-64v64h-64v64h64h64v-64h64v64h64h64v-64h-64v-64h-64z" />
    <glyph glyph-name="napostrophe" unicode="&#x149;" 
d="M0 512v64h64v-64h-64zM384 0h-64v64v64v64v64v64v64h-64h-64v-64v-64v-64v-64v-64v-64h-64h-64v64v64v64v64v64v64h-64v64h64h64v-64h64v64h64h64h64v-64h64v-64v-64v-64v-64v-64v-64h-64zM64 576v64h-64v64v64h64h64v-64v-64v-64h-64z" />
    <glyph glyph-name="Eng" unicode="&#x14a;" 
d="M320 0h-64h-64v64h64h64v64v64v64h-64v64h-64v64h-64v-64v-64v-64v-64v-64v-64h-64h-64v64v64v64v64v64v64v64v64v64v64h64h64v-64h64v-64h64v-64h64v64v64v64h64h64v-64v-64v-64v-64v-64v-64v-64v-64v-64h-64v-64h-64z" />
    <glyph glyph-name="eng" unicode="&#x14b;" 
d="M320 -192h-64h-64h-64v64h-64v64h64h64v-64h64h64v64v64v64v64v64v64v64v64h-64h-64v-64v-64v-64v-64v-64h-64h-64v64v64v64v64v64h-64v64h64h64v-64h64v64h64h64h64v-64h64v-64v-64v-64v-64v-64v-64v-64v-64h-64v-64h-64z" />
    <glyph glyph-name="Omacron" unicode="&#x14c;" 
d="M320 0h-64h-64h-64h-64v64h-64v64v64v64v64v64v64v64h64v64h64h64h64h64h64v-64h64v-64v-64v-64v-64v-64v-64v-64h-64v-64h-64zM256 64h64v64v64v64v64v64v64v64h-64h-64h-64v-64v-64v-64v-64v-64v-64v-64h64h64zM384 704h64v-64h-64h-64h-64h-64h-64h-64h-64v64h64h64
h64h64h64h64z" />
    <glyph glyph-name="omacron" unicode="&#x14d;" 
d="M320 0h-64h-64h-64h-64v64h-64v64v64v64v64v64h64v64h64h64h64h64h64v-64h64v-64v-64v-64v-64v-64h-64v-64h-64zM256 64h64v64v64v64v64v64h-64h-64h-64v-64v-64v-64v-64v-64h64h64zM320 640h64v-64h-64h-64h-64h-64h-64v64h64h64h64h64z" />
    <glyph glyph-name="Ohungarumlaut" unicode="&#x150;" 
d="M320 0h-64h-64h-64h-64v64h-64v64v64v64v64v64v64v64h64v64h64h64h64h64h64v-64h64v-64v-64v-64v-64v-64v-64v-64h-64v-64h-64zM256 64h64v64v64v64v64v64v64v64h-64h-64h-64v-64v-64v-64v-64v-64v-64v-64h64h64zM320 640h-64v64h64v64h64h64v-64h-64v-64h-64zM128 640
h-64v64h64v64h64h64v-64h-64v-64h-64z" />
    <glyph glyph-name="ohungarumlaut" unicode="&#x151;" 
d="M320 0h-64h-64h-64h-64v64h-64v64v64v64v64v64h64v64h64h64h64h64h64v-64h64v-64v-64v-64v-64v-64h-64v-64h-64zM256 64h64v64v64v64v64v64h-64h-64h-64v-64v-64v-64v-64v-64h64h64zM320 512h-64v64h64v64h64h64v-64h-64v-64h-64zM128 512h-64v64h64v64h64h64v-64h-64
v-64h-64z" />
    <glyph glyph-name="OE" unicode="&#x152;" 
d="M384 64h64v-64h-64h-64h-64h-64h-64h-64v64h-64v64v64v64v64v64v64v64v64h64v64h64h64h64h64h64h64v-64h-64h-64v-64v-64v-64h64h64v-64h-64h-64v-64v-64v-64v-64h64zM192 64v64v64v64v64v64v64v64v64h-64v-64v-64v-64v-64v-64v-64v-64v-64h64z" />
    <glyph glyph-name="oe" unicode="&#x153;" 
d="M448 64h64v-64h-64h-64h-64v64h-64v-64h-64h-64h-64v64h-64v64v64v64v64v64h64v64h64h64h64h64h64h64v-64h64v-64v-64h-64v-64h-64h-64v-64h64v-64h64zM192 64v64v64v64v64v64h-64v-64v-64v-64v-64v-64h64zM384 256v64v64h-64v-64v-64h64z" />
    <glyph glyph-name="Racute" unicode="&#x154;" 
d="M384 0h-64v64v64v64h-64v64h-64v-64v-64v-64h64v-64h-64h-64h-64h-64v64h64v64v64v64v64v64v64v64h-64v64h64h64h64h64h64h64v-64h64v-64v-64v-64h-64v-64v-64h64v-64v-64v-64h-64zM256 320h64v64v64v64h-64h-64v-64v-64v-64h64zM192 640h-64v64h64v64h64h64v-64h-64v-64
h-64z" />
    <glyph glyph-name="racute" unicode="&#x155;" 
d="M192 0h-64h-64h-64v64h64v64v64v64v64v64h-64v64h64h64v-64h64v64h64h64h64v-64h64v-64h-64h-64v64h-64v-64h-64v-64v-64v-64v-64h64v-64h-64zM192 512h-64v64h64v64h64v64h64h64v-64h-64v-64h-64v-64h-64z" />
    <glyph glyph-name="Rcommaaccent" unicode="&#x156;" 
d="M320 -192h-64h-64h-64v64h64h64h64v64h-64v64h64v64v64v64v64h-64v64h-64v-64v-64v-64v-64v-64h-64h-64h-64v64h64v64v64v64v64v64v64v64v64h-64v64h64h64h64h64h64h64v-64h64v-64v-64v-64h-64v-64v-64h64v-64v-64v-64v-64h-64v-64h64v-64h-64v-64h-64zM256 384h64v64v64
v64h-64h-64v-64v-64v-64h64z" />
    <glyph glyph-name="rcommaaccent" unicode="&#x157;" 
d="M256 -192h-64h-64h-64v64h64h64h64v64h-64v64h-64h-64h-64v64h64v64v64v64v64v64h-64v64h64h64v-64h64v64h64h64h64v-64h64v-64h-64h-64v64h-64v-64h-64v-64v-64v-64v-64h64v-64h64v-64h64v-64h-64v-64h-64z" />
    <glyph glyph-name="Rcaron" unicode="&#x158;" 
d="M384 0h-64v64v64v64h-64v64h-64v-64v-64v-64h64v-64h-64h-64h-64h-64v64h64v64v64v64v64v64v64v64h-64v64h64h64h64h64h64h64v-64h64v-64v-64v-64h-64v-64v-64h64v-64v-64v-64h-64zM256 320h64v64v64v64h-64h-64v-64v-64v-64h64zM256 640h-64h-64v64h-64v64h64h64v-64h64
v64h64h64v-64h-64v-64h-64z" />
    <glyph glyph-name="rcaron" unicode="&#x159;" 
d="M192 0h-64h-64h-64v64h64v64v64v64v64v64h-64v64h64h64v-64h64v64h64h64h64v-64h64v-64h-64h-64v64h-64v-64h-64v-64v-64v-64v-64h64v-64h-64zM256 512h-64h-64v64h-64v64h64h64v-64h64v64h64h64v-64h-64v-64h-64z" />
    <glyph glyph-name="Sacute" unicode="&#x15a;" 
d="M320 0h-64h-64h-64h-64v64h-64v64h64h64v-64h64h64h64v64v64h-64v64h-64h-64v64h-64v64h-64v64v64h64v64h64h64h64h64h64v-64h64v-64v-64h-64h-64v64v64h-64h-64h-64v-64v-64h64v-64h64h64v-64h64v-64h64v-64v-64h-64v-64h-64zM192 640h-64v64h64v64h64h64v-64h-64v-64
h-64z" />
    <glyph glyph-name="sacute" unicode="&#x15b;" 
d="M320 0h-64h-64h-64h-64v64h-64v64h64h64v-64h64h64h64v64h-64v64h-64h-64v64h-64v64h-64v64h64v64h64h64h64h64h64v-64h64v-64h-64h-64v64h-64h-64h-64v-64h64v-64h64h64v-64h64v-64h64v-64h-64v-64h-64zM256 512h-64v64h64v64h64h64v-64h-64v-64h-64z" />
    <glyph glyph-name="Scircumflex" unicode="&#x15c;" 
d="M320 0h-64h-64h-64h-64v64h-64v64h64h64v-64h64h64h64v64v64h-64v64h-64h-64v64h-64v64h-64v64v64h64v64h64h64h64h64h64v-64h64v-64v-64h-64h-64v64v64h-64h-64h-64v-64v-64h64v-64h64h64v-64h64v-64h64v-64v-64h-64v-64h-64zM320 640h-64v64h-64v-64h-64h-64v64h64v64
h64h64h64v-64h64v-64h-64z" />
    <glyph glyph-name="scircumflex" unicode="&#x15d;" 
d="M320 0h-64h-64h-64h-64v64h-64v64h64h64v-64h64h64h64v64h-64v64h-64h-64v64h-64v64h-64v64h64v64h64h64h64h64h64v-64h64v-64h-64h-64v64h-64h-64h-64v-64h64v-64h64h64v-64h64v-64h64v-64h-64v-64h-64zM320 512h-64v64h-64v-64h-64h-64v64h64v64h64h64h64v-64h64v-64
h-64z" />
    <glyph glyph-name="Scedilla" unicode="&#x15e;" 
d="M256 -192h-64h-64h-64v64h64h64h64v64h-64v64h-64h-64v64h-64v64v64h64h64v-64v-64h64h64h64v64v64v64h-64v64h-64h-64v64h-64v64h-64v64v64h64v64h64h64h64h64h64v-64h64v-64v-64h-64h-64v64v64h-64h-64h-64v-64v-64h64v-64h64h64v-64h64v-64h64v-64v-64v-64h-64v-64
h-64v-64h64v-64h-64v-64h-64z" />
    <glyph glyph-name="scedilla" unicode="&#x15f;" 
d="M256 -192h-64h-64h-64v64h64h64h64v64h-64v64h-64h-64v64h-64v64h64h64v-64h64h64h64v64h-64v64h-64h-64v64h-64v64h-64v64h64v64h64h64h64h64h64v-64h64v-64h-64h-64v64h-64h-64h-64v-64h64v-64h64h64v-64h64v-64h64v-64h-64v-64h-64v-64h64v-64h-64v-64h-64z" />
    <glyph glyph-name="Scaron" unicode="&#x160;" 
d="M320 0h-64h-64h-64h-64v64h-64v64h64h64v-64h64h64h64v64v64h-64v64h-64h-64v64h-64v64h-64v64v64h64v64h64h64h64h64h64v-64h64v-64v-64h-64h-64v64v64h-64h-64h-64v-64v-64h64v-64h64h64v-64h64v-64h64v-64v-64h-64v-64h-64zM256 640h-64h-64v64h-64v64h64h64v-64h64
v64h64h64v-64h-64v-64h-64z" />
    <glyph glyph-name="scaron" unicode="&#x161;" 
d="M320 0h-64h-64h-64h-64v64h-64v64h64h64v-64h64h64h64v64h-64v64h-64h-64v64h-64v64h-64v64h64v64h64h64h64h64h64v-64h64v-64h-64h-64v64h-64h-64h-64v-64h64v-64h64h64v-64h64v-64h64v-64h-64v-64h-64zM256 512h-64h-64v64h-64v64h64h64v-64h64v64h64h64v-64h-64v-64
h-64z" />
    <glyph glyph-name="Tcommaaccent" unicode="&#x162;" 
d="M384 448v64h-64v-64v-64v-64v-64v-64v-64v-64h64v-64h-64v-64h64v-64h-64v-64h-64h-64h-64h-64v64h64h64h64v64h-64v64h-64v64h64v64v64v64v64v64v64v64h-64v-64h-64v64v64v64h64h64h64h64h64h64v-64v-64v-64h-64z" />
    <glyph glyph-name="tcommaaccent" unicode="&#x163;" 
d="M256 -192h-64h-64h-64v64h64h64h64v64h-64v64v64h-64v64v64v64v64v64h-64h-64v64h64h64v64v64h64v64h64v-64v-64v-64h64h64v-64h-64h-64v-64v-64v-64v-64v-64h64v64h64h64v-64h-64v-64h-64v-64h64v-64h-64v-64h-64z" />
    <glyph glyph-name="Tcaron" unicode="&#x164;" 
d="M384 384v64h-64v-64v-64v-64v-64v-64v-64h64v-64h-64h-64h-64h-64v64h64v64v64v64v64v64v64h-64v-64h-64v64v64v64h64h64h64h64h64h64v-64v-64v-64h-64zM320 640h-64h-64h-64v64h-64v64h64h64v-64h64h64v64h64h64v-64h-64v-64h-64z" />
    <glyph glyph-name="tcaron" unicode="&#x165;" 
d="M320 512v64h64v-64h-64zM320 0h-64h-64v64h-64v64v64v64v64v64h-64h-64v64h64h64v64v64h64v64h64v-64v-64v-64h64h64v-64h-64h-64v-64v-64v-64v-64v-64h64v64h64h64v-64h-64v-64h-64zM384 576v64h-64v64v64h64h64v-64v-64v-64h-64z" />
    <glyph glyph-name="Tbar" unicode="&#x166;" 
d="M384 448v64h-64v-64v-64v-64h64v-64h-64v-64v-64v-64h64v-64h-64h-64h-64h-64v64h64v64v64v64h-64v64h64v64v64v64h-64v-64h-64v64v64v64h64h64h64h64h64h64v-64v-64v-64h-64z" />
    <glyph glyph-name="tbar" unicode="&#x167;" 
d="M384 0h-64h-64v64h-64v64v64h-64h-64v64h64h64v64v64h-64h-64v64h64h64v64v64h64v64h64v-64v-64v-64h64h64v-64h-64h-64v-64v-64h64h64v-64h-64h-64v-64v-64h64v64h64h64v-64h-64v-64h-64z" />
    <glyph glyph-name="Utilde" unicode="&#x168;" 
d="M320 0h-64h-64h-64h-64v64h-64v64v64v64v64v64v64v64v64h64h64v-64v-64v-64v-64v-64v-64v-64v-64h64h64h64v64v64v64v64v64v64v64v64h64h64v-64v-64v-64v-64v-64v-64v-64v-64h-64v-64h-64zM320 640h-64h-64v64h-64v-64h-64h-64v64h64v64h64h64h64v-64h64v64h64h64v-64
h-64v-64h-64z" />
    <glyph glyph-name="utilde" unicode="&#x169;" 
d="M384 0h-64v64h-64v-64h-64h-64h-64v64h-64v64v64v64v64v64v64h64h64v-64v-64v-64v-64v-64v-64h64h64v64v64v64v64v64v64h64h64v-64v-64v-64v-64v-64v-64h64v-64h-64zM320 512h-64h-64v64h-64v-64h-64h-64v64h64v64h64h64h64v-64h64v64h64h64v-64h-64v-64h-64z" />
    <glyph glyph-name="Umacron" unicode="&#x16a;" 
d="M320 0h-64h-64h-64h-64v64h-64v64v64v64v64v64v64v64v64v64h64h64v-64v-64v-64v-64v-64v-64v-64v-64v-64h64h64h64v64v64v64v64v64v64v64v64v64h64h64v-64v-64v-64v-64v-64v-64v-64v-64v-64h-64v-64h-64zM320 768h64v-64h-64h-64h-64h-64h-64v64h64h64h64h64z" />
    <glyph glyph-name="umacron" unicode="&#x16b;" 
d="M384 0h-64v64h-64v-64h-64h-64h-64v64h-64v64v64v64v64v64v64h64h64v-64v-64v-64v-64v-64v-64h64h64v64v64v64v64v64v64h64h64v-64v-64v-64v-64v-64v-64h64v-64h-64zM256 640h64v-64h-64h-64h-64h-64h-64v64h64h64h64h64z" />
    <glyph glyph-name="Ubreve" unicode="&#x16c;" 
d="M320 0h-64h-64h-64h-64v64h-64v64v64v64v64v64v64v64h64h64v-64v-64v-64v-64v-64v-64v-64h64h64h64v64v64v64v64v64v64v64h64h64v-64v-64v-64v-64v-64v-64v-64h-64v-64h-64zM320 576h-64h-64h-64h-64v64h-64v64h64h64v-64h64h64h64v64h64h64v-64h-64v-64h-64z" />
    <glyph glyph-name="ubreve" unicode="&#x16d;" 
d="M384 0h-64v64h-64v-64h-64h-64h-64v64h-64v64v64v64v64v64v64h64h64v-64v-64v-64v-64v-64v-64h64h64v64v64v64v64v64v64h64h64v-64v-64v-64v-64v-64v-64h64v-64h-64zM256 512h-64h-64h-64v64h-64v64h64h64v-64h64h64v64h64h64v-64h-64v-64h-64z" />
    <glyph glyph-name="Uring" unicode="&#x16e;" 
d="M320 0h-64h-64h-64h-64v64h-64v64v64v64v64v64v64v64h64h64v-64v-64v-64v-64v-64v-64v-64h64h64h64v64v64v64v64v64v64v64h64h64v-64v-64v-64v-64v-64v-64v-64h-64v-64h-64zM256 576h-64h-64v64h-64v64h64v64h64h64h64v-64h64v-64h-64v-64h-64zM256 640v64h-64v-64h64z
" />
    <glyph glyph-name="uring" unicode="&#x16f;" 
d="M384 0h-64v64h-64v-64h-64h-64h-64v64h-64v64v64v64v64v64v64h64h64v-64v-64v-64v-64v-64v-64h64h64v64v64v64v64v64v64h64h64v-64v-64v-64v-64v-64v-64h64v-64h-64zM256 512h-64h-64h-64v64h-64v64h64v64h64h64h64h64v-64h64v-64h-64v-64h-64zM192 576h64v64h-64h-64
v-64h64z" />
    <glyph glyph-name="Uhungarumlaut" unicode="&#x170;" 
d="M320 0h-64h-64h-64h-64v64h-64v64v64v64v64v64v64v64v64h64h64v-64v-64v-64v-64v-64v-64v-64v-64h64h64h64v64v64v64v64v64v64v64v64h64h64v-64v-64v-64v-64v-64v-64v-64v-64h-64v-64h-64zM320 640h-64v64h64v64h64h64v-64h-64v-64h-64zM128 640h-64v64h64v64h64h64v-64
h-64v-64h-64z" />
    <glyph glyph-name="uhungarumlaut" unicode="&#x171;" 
d="M384 0h-64v64h-64v-64h-64h-64h-64v64h-64v64v64v64v64v64v64h64h64v-64v-64v-64v-64v-64v-64h64h64v64v64v64v64v64v64h64h64v-64v-64v-64v-64v-64v-64h64v-64h-64zM320 512h-64v64h64v64h64h64v-64h-64v-64h-64zM128 512h-64v64h64v64h64h64v-64h-64v-64h-64z" />
    <glyph glyph-name="Uogonek" unicode="&#x172;" 
d="M320 -128h64v-64h-64h-64h-64h-64v64h-64v64h64v64h-64v64h-64v64v64v64v64v64v64v64v64v64h64h64v-64v-64v-64v-64v-64v-64v-64v-64v-64h64h64h64v64v64v64v64v64v64v64v64v64h64h64v-64v-64v-64v-64v-64v-64v-64v-64v-64h-64v-64h-64h-64v-64h-64v-64h64h64z" />
    <glyph glyph-name="uogonek" unicode="&#x173;" 
d="M320 -128h64v-64h-64h-64h-64h-64v64h-64v64h64v64h-64v64h-64v64v64v64v64v64v64h64h64v-64v-64v-64v-64v-64v-64h64h64v-64v-64h-64v-64h64h64zM384 0h-64v64h-64v64v64v64v64v64v64h64h64v-64v-64v-64v-64v-64v-64h64v-64h-64z" />
    <glyph glyph-name="Ydieresis" unicode="&#x178;" 
d="M320 0h-64h-64h-64v64h64v64v64v64h-64v64h-64v64v64v64v64h64h64v-64v-64v-64v-64h64h64v64v64v64v64h64h64v-64v-64v-64v-64h-64v-64h-64v-64v-64v-64h64v-64h-64zM384 704h64v-64h-64h-64v64h64zM128 704h64v-64h-64h-64v64h64z" />
    <glyph glyph-name="Zacute" unicode="&#x179;" 
d="M0 448v64v64h64h64h64h64h64h64h64v-64v-64h-64v-64h-64v-64h-64v-64h-64v-64h-64v-64v-64h64h64h64v64h64v64h64v-64v-64v-64h-64h-64h-64h-64h-64h-64h-64v64v64v64h64v64h64v64h64v64h64v64h64v64h-64h-64h-64h-64v-64h-64zM256 640h-64v64h64v64h64h64v-64h-64v-64
h-64z" />
    <glyph glyph-name="zacute" unicode="&#x17a;" 
d="M384 0h-64h-64h-64h-64h-64h-64v64v64h64v64h64v64h64v64h64v64h-64h-64v-64h-64h-64v64v64h64h64h64h64h64h64h64v-64h-64v-64h-64v-64h-64v-64h-64v-64h-64v-64h64h64h64v64h64h64v-64v-64h-64zM192 512h-64v64h64v64h64v64h64h64v-64h-64v-64h-64v-64h-64z" />
    <glyph glyph-name="Zdotaccent" unicode="&#x17b;" 
d="M0 448v64v64h64h64h64h64h64h64h64v-64v-64h-64v-64h-64v-64h-64v-64h-64v-64h-64v-64v-64h64h64h64v64h64v64h64v-64v-64v-64h-64h-64h-64h-64h-64h-64h-64v64v64v64h64v64h64v64h64v64h64v64h64v64h-64h-64h-64h-64v-64h-64zM256 640h-64v64v64h64h64v-64v-64h-64z" />
    <glyph glyph-name="zdotaccent" unicode="&#x17c;" 
d="M384 0h-64h-64h-64h-64h-64h-64v64v64h64v64h64v64h64v64h64v64h-64h-64v-64h-64h-64v64v64h64h64h64h64h64h64h64v-64h-64v-64h-64v-64h-64v-64h-64v-64h-64v-64h64h64h64v64h64h64v-64v-64h-64zM256 512h-64v64v64h64h64v-64v-64h-64z" />
    <glyph glyph-name="Zcaron" unicode="&#x17d;" 
d="M0 384v64v64v64h64h64h64h64h64h64h64v-64v-64h-64v-64h-64v-64h-64v-64h-64v-64h-64v-64v-64h64h64h64v64h64v64h64v-64v-64v-64h-64h-64h-64h-64h-64h-64h-64v64v64v64h64v64h64v64h64v64h64v64h64v64h-64h-64h-64v-64h-64v-64h-64zM256 640h-64h-64v64h-64v64h64h64
v-64h64v64h64h64v-64h-64v-64h-64z" />
    <glyph glyph-name="zcaron" unicode="&#x17e;" 
d="M384 0h-64h-64h-64h-64h-64h-64v64v64h64v64h64v64h64v64h64v64h-64h-64v-64h-64h-64v64v64h64h64h64h64h64h64h64v-64h-64v-64h-64v-64h-64v-64h-64v-64h-64v-64h64h64h64v64h64h64v-64v-64h-64zM256 512h-64h-64v64h-64v64h64h64v-64h64v64h64h64v-64h-64v-64h-64z" />
    <glyph glyph-name="longs" unicode="&#x17f;" 
d="M256 0h-64h-64h-64v64h64v64v64v64v64v64v64v64v64h64v64h64h64h64v-64h64v-64h-64h-64v64h-64v-64v-64v-64v-64v-64v-64v-64v-64h64v-64h-64z" />
    <glyph glyph-name="florin" unicode="&#x192;" 
d="M192 0h-64h-64v64h-64v64h64h64v-64h64v64v64v64v64h-64h-64v64h64h64v64v64v64v64h64v64h64h64h64v-64h64v-64h-64h-64v64h-64v-64v-64v-64v-64h64h64v-64h-64h-64v-64v-64v-64v-64h-64v-64h-64z" />
    <glyph glyph-name="uni01B7" unicode="&#x1b7;" 
d="M320 0h-64h-64h-64h-64v64h-64v64h64h64v-64h64h64h64v64v64v64v64h-64h-64h-64v64h64v64h64v64h64v64h-64h-64h-64v-64h-64h-64v64v64h64h64h64h64h64h64h64v-64v-64h-64v-64h-64v-64h64v-64h64v-64v-64v-64v-64h-64v-64h-64z" />
    <glyph glyph-name="uni01E4" unicode="&#x1e4;" 
d="M384 0v64h-64v-64h-64h-64h-64v64h-64v64h-64v64v64v64v64v64v64h64v64h64v64h64h64h64h64v-64h64v-64v-64h-64v64h-64v64h-64h-64v-64h-64v-64v-64v-64v-64v-64v-64h64v-64h64h64v64h-64v64h64v64h-64h-64v64h64h64h64h64v-64v-64v-64v-64v-64h-64z" />
    <glyph glyph-name="uni01E5" unicode="&#x1e5;" 
d="M256 -192h-64h-64h-64v64h-64v64h64h64v-64h64h64v64v64h-64h-64h-64v64h-64v64v64v64v64v64h64v64h64h64h64v-64h-64h-64v-64v-64v-64v-64v-64h64h64v64v64v64v64v64h64v64h64h64v-64h-64v-64v-64v-64v-64v-64v-64h64v-64h-64v-64h-64v-64h-64z" />
    <glyph glyph-name="Gcaron" unicode="&#x1e6;" 
d="M384 0v64h-64v-64h-64h-64h-64v64h-64v64h-64v64v64v64v64v64h64v64h64v64h64h64h64h64v-64h64v-64v-64h-64v64h-64v64h-64h-64v-64h-64v-64v-64v-64v-64v-64h64v-64h64h64v64v64v64h-64h-64v64h64h64h64h64v-64v-64v-64v-64v-64h-64zM256 640h-64h-64v64h-64v64h64h64
v-64h64v64h64h64v-64h-64v-64h-64z" />
    <glyph glyph-name="gcaron" unicode="&#x1e7;" 
d="M256 -192h-64h-64h-64v64h-64v64h64h64v-64h64h64v64v64h-64h-64h-64v64h-64v64v64v64v64v64h64v64h64h64h64v-64h-64h-64v-64v-64v-64v-64v-64h64h64v64v64v64v64v64h64v64h64h64v-64h-64v-64v-64v-64v-64v-64v-64v-64v-64h-64v-64h-64zM256 512h-64h-64v64h-64v64h64
h64v-64h64v64h64h64v-64h-64v-64h-64z" />
    <glyph glyph-name="uni01E8" unicode="&#x1e8;" 
d="M384 0h-64v64v64h-64v64v64h-64v-64v-64v-64v-64h-64h-64h-64v64h64v64v64v64v64v64v64v64h-64v64h64h64h64v-64v-64v-64v-64h64v64v64h64v64v64h64h64v-64v-64h-64v-64v-64h-64v-64h64v-64v-64h64v-64v-64h-64zM256 640h-64h-64v64h-64v64h64h64v-64h64v64h64h64v-64
h-64v-64h-64z" />
    <glyph glyph-name="uni01E9" unicode="&#x1e9;" 
d="M384 0h-64v64v64h-64v64h-64v-64v-64v-64h-64h-64h-64v64h64v64v64v64v64v64v64v64h-64v64h64h64h64v-64v-64v-64v-64v-64h64v64h64v64v64h64h64v-64v-64h-64v-64h-64v-64h64v-64h64v-64v-64h-64zM256 640h-64h-64v64h-64v64h64h64v-64h64v64h64h64v-64h-64v-64h-64z" />
    <glyph glyph-name="uni01EE" unicode="&#x1ee;" 
d="M320 0h-64h-64h-64h-64v64h-64v64h64h64v-64h64h64h64v64v64v64h-64h-64h-64v64h64v64h64v64h64v64h-64h-64h-64v-64h-64h-64v64v64h64h64h64h64h64h64h64v-64v-64h-64v-64h-64v-64h64v-64h64v-64v-64v-64h-64v-64h-64zM256 640h-64h-64v64h-64v64h64h64v-64h64v64h64h64
v-64h-64v-64h-64z" />
    <glyph glyph-name="uni01EF" unicode="&#x1ef;" 
d="M320 -192h-64h-64h-64h-64v64h-64v64v64h64h64v-64v-64h64h64h64v64v64v64h-64h-64v64h-64v64h64v64h64v64h64v64h-64h-64h-64v-64h-64h-64v64v64h64h64h64h64h64h64h64v-64v-64h-64v-64h-64v-64h-64v-64h64h64v-64h64v-64v-64v-64h-64v-64h-64zM256 512h-64h-64v64h-64
v64h64h64v-64h64v64h64h64v-64h-64v-64h-64z" />
    <glyph glyph-name="uni021E" unicode="&#x21e;" 
d="M384 0h-64v64v64v64v64h-64h-64h-64v-64v-64v-64v-64h-64h-64v64v64v64v64v64v64v64v64v64h64h64v-64v-64v-64v-64h64h64h64v64v64v64v64h64h64v-64v-64v-64v-64v-64v-64v-64v-64v-64h-64zM256 640h-64h-64v64h-64v64h64h64v-64h64v64h64h64v-64h-64v-64h-64z" />
    <glyph glyph-name="uni021F" unicode="&#x21f;" 
d="M384 0h-64v64v64v64v64v64h-64h-64v-64v-64v-64v-64v-64h-64h-64h-64v64h64v64v64v64v64v64v64v64h-64v64h64h64h64v-64v-64v-64h64h64h64v-64h64v-64v-64v-64v-64v-64h-64zM320 640h-64h-64v64h-64v64h64h64v-64h64v64h64h64v-64h-64v-64h-64z" />
    <glyph glyph-name="uni0251" unicode="&#x251;" 
d="M384 0h-64v64h-64v64v64v64v64v64h-64h-64v-64v-64v-64v-64v-64h64h64v-64h-64h-64h-64v64h-64v64v64v64v64v64h64v64h64h64h64h64h64v-64v-64v-64v-64v-64v-64h64v-64h-64z" />
    <glyph glyph-name="uni0254" unicode="&#x254;" 
d="M256 0h-64h-64h-64v64h-64v64h64h64v-64h64h64v64h64v64v64v64h-64v64h-64h-64v-64h-64h-64v64h64v64h64h64h64h64v-64h64v-64h64v-64v-64v-64h-64v-64h-64v-64h-64z" />
    <glyph glyph-name="uni0259" unicode="&#x259;" 
d="M320 0h-64h-64h-64h-64v64h-64v64v64v64h64h64h64h64h64v64v64h-64h-64h-64v-64h-64h-64v64h64v64h64h64h64h64h64v-64h64v-64v-64v-64v-64v-64h-64v-64h-64zM256 64h64v64v64h-64h-64h-64v-64v-64h64h64z" />
    <glyph glyph-name="uni025B" unicode="&#x25b;" 
d="M320 0h-64h-64h-64h-64v64h-64v64v64h64v64h-64v64v64h64v64h64h64h64h64h64v-64h64v-64h-64h-64v64h-64h-64h-64v-64v-64h64h64h64v-64h-64h-64h-64v-64v-64h64h64h64v64h64h64v-64h-64v-64h-64z" />
    <glyph glyph-name="uni025C" unicode="&#x25c;" 
d="M320 0h-64h-64h-64h-64v64h-64v64h64h64v-64h64h64h64v64v64h-64h-64v64h64h64v64v64h-64h-64h-64v-64h-64h-64v64h64v64h64h64h64h64h64v-64h64v-64v-64h-64v-64h64v-64v-64h-64v-64h-64z" />
    <glyph glyph-name="uni0261" unicode="&#x261;" 
d="M256 -192h-64h-64h-64v64h-64v64h64h64v-64h64h64v64v64h-64h-64h-64v64h-64v64v64v64v64v64h64v64h64h64h64v-64h-64h-64v-64v-64v-64v-64v-64h64h64v64v64v64v64v64h64v64h64h64v-64h-64v-64v-64v-64v-64v-64v-64v-64v-64h-64v-64h-64z" />
    <glyph glyph-name="uni026A" unicode="&#x26a;" 
d="M320 0h-64h-64h-64v64h64v64v64v64v64v64h-64v64h64h64h64h64v-64h-64v-64v-64v-64v-64v-64h64v-64h-64z" />
    <glyph glyph-name="uni0283" unicode="&#x283;" 
d="M192 -128h-64h-64v64h-64v64v64h64h64v-64v-64h64v64v64v64v64v64v64v64v64v64v64h64v64h64h64h64v-64h64v-64v-64v-64h-64h-64v64v64v64h-64v-64v-64v-64v-64v-64v-64v-64v-64v-64v-64h-64v-64h-64z" />
    <glyph glyph-name="uni028A" unicode="&#x28a;" 
d="M256 0h-64h-64v64h-64v64h-64v64v64v64h64v64h-64v64h64h64v-64v-64v-64v-64v-64h64v-64h64v64h64v64v64v64v64v64h64h64v-64h-64v-64h64v-64v-64v-64h-64v-64h-64v-64h-64z" />
    <glyph glyph-name="uni028C" unicode="&#x28c;" 
d="M384 0h-64v64v64v64v64h-64v64v64h-64v-64v-64h-64v-64v-64v-64v-64h-64h-64v64v64v64v64h64v64v64h64v64h64h64h64v-64h64v-64v-64h64v-64v-64v-64v-64h-64z" />
    <glyph glyph-name="uni0292" unicode="&#x292;" 
d="M320 -192h-64h-64h-64h-64v64h-64v64v64h64h64v-64v-64h64h64h64v64v64v64h-64h-64v64h-64v64h64v64h64v64h64v64h-64h-64h-64v-64h-64h-64v64v64h64h64h64h64h64h64h64v-64v-64h-64v-64h-64v-64h-64v-64h64h64v-64h64v-64v-64v-64h-64v-64h-64z" />
    <glyph glyph-name="afii57929" unicode="&#x2bc;" 
d="M192 384v64h64v-64h-64zM256 448v64h-64v64h-64v64h64v64h64v-64h64v-64v-64v-64h-64z" />
    <glyph glyph-name="caron" unicode="&#x2c7;" 
d="M256 512h-64v64h-64v64h-64v64h64h64v-64h64h64v64h64h64v-64h-64v-64h-64v-64h-64z" />
    <glyph glyph-name="uni02C8" unicode="&#x2c8;" 
d="M256 512h-64v64v64v64h64h64v-64v-64v-64h-64z" />
    <glyph glyph-name="uni02CC" unicode="&#x2cc;" 
d="M256 -192h-64v64v64v64h64h64v-64v-64v-64h-64z" />
    <glyph glyph-name="breve" unicode="&#x2d8;" 
d="M384 576h-64h-64h-64h-64v64h-64v64h64h64v-64h64h64h64v64h64h64v-64h-64v-64h-64z" />
    <glyph glyph-name="dotaccent" unicode="&#x2d9;" 
d="M256 576h-64v64v64h64h64v-64v-64h-64z" />
    <glyph glyph-name="ogonek" unicode="&#x2db;" 
d="M320 -128h64v-64h-64h-64h-64h-64v64h-64v64h64v64h64h64v-64h-64v-64h64h64z" />
    <glyph glyph-name="hungarumlaut" unicode="&#x2dd;" 
d="M320 512h-64v64h64v64h64v64h64h64v-64h-64v-64h-64v-64h-64zM128 512h-64v64h64v64h64v64h64h64v-64h-64v-64h-64v-64h-64z" />
    <glyph glyph-name="uni02EE" unicode="&#x2ee;" 
d="M384 384v64h64v-64h-64zM128 384v64h64v-64h-64zM448 448v64h-64v64h-64v64h64v64h64v-64h64v-64v-64v-64h-64zM192 448v64h-64v64h-64v64h64v64h64v-64h64v-64v-64v-64h-64z" />
    <glyph glyph-name="gravecomb" unicode="&#x300;" 
d="M320 512h-64v64h-64v64h-64v64h64h64v-64h64v-64h64v-64h-64z" />
    <glyph glyph-name="acutecomb" unicode="&#x301;" 
d="M192 512h-64v64h64v64h64v64h64h64v-64h-64v-64h-64v-64h-64z" />
    <glyph glyph-name="tildecomb" unicode="&#x303;" 
d="M320 512h-64h-64v64h-64v-64h-64h-64v64h64v64h64h64h64v-64h64v64h64h64v-64h-64v-64h-64z" />
    <glyph glyph-name="uni0307" unicode="&#x307;" 
d="M192 576h-64v64v64h64h64v-64v-64h-64z" />
    <glyph glyph-name="Alphatonos" unicode="&#x386;" 
d="M384 0h-64v64v64v64v64h-64h-64h-64v-64v-64v-64v-64h-64h-64v64v64v64v64v64v64v64v64h64v64h64v64h64h64h64v-64h64v-64h64v-64v-64v-64v-64v-64v-64v-64v-64h-64zM256 320h64v64v64v64h-64v64h-64v-64h-64v-64v-64v-64h64h64zM128 640h-64h-64v64h64v64h64h64v-64h-64
v-64z" />
    <glyph glyph-name="Epsilontonos" unicode="&#x388;" 
d="M256 192v64h-64v-64v-64v-64h64h64v64h64v64h64v-64v-64v-64h-64h-64h-64h-64h-64h-64h-64v64h64v64v64v64v64v64v64v64h-64v64h64h64h64h64h64h64h64v-64v-64v-64h-64v64h-64v64h-64h-64v-64v-64v-64h64v64h64v-64v-64v-64h-64zM64 640h-64v64h64v64h64h64v-64h-64v-64
h-64z" />
    <glyph glyph-name="Etatonos" unicode="&#x389;" 
d="M384 0h-64v64v64v64v64h-64h-64h-64v-64v-64v-64v-64h-64h-64v64v64v64v64v64v64v64v64v64h64h64v-64v-64v-64v-64h64h64h64v64v64v64v64h64h64v-64v-64v-64v-64v-64v-64v-64v-64v-64h-64zM64 640h-64v64h64v64h64h64v-64h-64v-64h-64z" />
    <glyph glyph-name="Iotatonos" unicode="&#x38a;" 
d="M320 0h-64h-64h-64v64h64v64v64v64v64v64v64v64h-64v64h64h64h64h64v-64h-64v-64v-64v-64v-64v-64v-64v-64h64v-64h-64zM64 640h-64v64h64v64h64h64v-64h-64v-64h-64z" />
    <glyph glyph-name="Omicrontonos" unicode="&#x38c;" 
d="M320 0h-64h-64h-64h-64v64h-64v64v64v64v64v64v64v64h64v64h64h64h64h64h64v-64h64v-64v-64v-64v-64v-64v-64v-64h-64v-64h-64zM256 64h64v64v64v64v64v64v64v64h-64h-64h-64v-64v-64v-64v-64v-64v-64v-64h64h64zM64 640h-64v64h64v64h64h64v-64h-64v-64h-64z" />
    <glyph glyph-name="Upsilontonos" unicode="&#x38e;" 
d="M320 0h-64h-64h-64v64h64v64v64v64h-64v64h-64v64v64v64v64h64h64v-64v-64v-64v-64h64h64v64v64v64v64h64h64v-64v-64v-64v-64h-64v-64h-64v-64v-64v-64h64v-64h-64zM64 640h-64v64h64v64h64h64v-64h-64v-64h-64z" />
    <glyph glyph-name="Omegatonos" unicode="&#x38f;" 
d="M384 0h-64h-64v64v64v64h64v64v64v64v64h-64v64h-64v-64h-64v-64v-64v-64v-64h64v-64v-64v-64h-64h-64h-64v64h64v64v64h-64v64v64v64v64h64v64h64v64h64h64h64v-64h64v-64h64v-64v-64v-64v-64h-64v-64v-64h64v-64h-64zM64 640h-64v64h64v64h64h64v-64h-64v-64h-64z" />
    <glyph glyph-name="iotadieresistonos" unicode="&#x390;" 
d="M256 0h-64v64h-64v64v64v64v64v64v64h64h64v-64v-64v-64v-64v-64v-64h64v-64h-64zM320 64v64h64v-64h-64zM320 576h64v-64h-64h-64v64h64zM64 576h64v-64h-64h-64v64h64zM192 640h-64v64h64v64h64h64v-64h-64v-64h-64z" />
    <glyph glyph-name="Alpha" unicode="&#x391;" 
d="M384 0h-64v64v64v64v64h-64h-64h-64v-64v-64v-64v-64h-64h-64v64v64v64v64v64v64v64v64h64v64h64v64h64h64h64v-64h64v-64h64v-64v-64v-64v-64v-64v-64v-64v-64h-64zM256 320h64v64v64v64h-64v64h-64v-64h-64v-64v-64v-64h64h64z" />
    <glyph glyph-name="Beta" unicode="&#x392;" 
d="M320 0h-64h-64h-64h-64h-64v64h64v64v64v64v64v64v64v64v64h-64v64h64h64h64h64h64h64v-64h64v-64v-64v-64h-64v-64h64v-64v-64v-64v-64h-64v-64h-64zM256 64h64v64v64v64v64h-64h-64v-64v-64v-64v-64h64zM256 384h64v64v64v64h-64h-64v-64v-64v-64h64z" />
    <glyph glyph-name="Gamma" unicode="&#x393;" 
d="M384 512v64h-64h-64h-64v-64v-64v-64v-64v-64v-64v-64v-64h64v-64h-64h-64h-64h-64v64h64v64v64v64v64v64v64v64v64h-64v64h64h64h64h64h64h64h64v-64v-64h-64z" />
    <glyph glyph-name="Delta" unicode="&#x394;" 
d="M384 0h-64h-64h-64h-64h-64h-64v64v64v64v64h64v64v64h64v64v64h64v64v64h64v-64v-64h64v-64v-64h64v-64v-64h64v-64v-64v-64v-64h-64zM256 64h64v64v64v64h-64v64v64h-64v-64v-64h-64v-64v-64v-64h64h64z" />
    <glyph glyph-name="Epsilon" unicode="&#x395;" 
d="M256 192v64h-64v-64v-64v-64h64h64v64h64v64h64v-64v-64v-64h-64h-64h-64h-64h-64h-64h-64v64h64v64v64v64v64v64v64v64v64h-64v64h64h64h64h64h64h64h64v-64v-64v-64h-64v64h-64v64h-64h-64v-64v-64v-64h64v64h64v-64v-64v-64v-64h-64z" />
    <glyph glyph-name="Zeta" unicode="&#x396;" 
d="M0 448v64v64v64h64h64h64h64h64h64h64v-64v-64v-64h-64v-64h-64v-64h-64v-64h-64v-64h-64v-64v-64h64h64h64v64h64v64h64v-64v-64v-64h-64h-64h-64h-64h-64h-64h-64v64v64v64h64v64h64v64h64v64h64v64h64v64v64h-64h-64h-64v-64h-64v-64h-64z" />
    <glyph glyph-name="Eta" unicode="&#x397;" 
d="M384 0h-64v64v64v64v64v64h-64h-64h-64v-64v-64v-64v-64v-64h-64h-64v64v64v64v64v64v64v64v64v64v64h64h64v-64v-64v-64v-64h64h64h64v64v64v64v64h64h64v-64v-64v-64v-64v-64v-64v-64v-64v-64v-64h-64z" />
    <glyph glyph-name="Theta" unicode="&#x398;" 
d="M256 0h-64h-64v64h-64v64h-64v64v64v64v64v64v64h64v64h64v64h64h64h64v-64h64v-64h64v-64v-64v-64v-64v-64v-64h-64v-64h-64v-64h-64zM256 64v64h64v64v64v64h-64h-64h-64v-64v-64v-64h64v-64h64zM256 384h64v64v64h-64v64h-64v-64h-64v-64v-64h64h64z" />
    <glyph glyph-name="Iota" unicode="&#x399;" 
d="M320 0h-64h-64h-64v64h64v64v64v64v64v64v64v64v64h-64v64h64h64h64h64v-64h-64v-64v-64v-64v-64v-64v-64v-64v-64h64v-64h-64z" />
    <glyph glyph-name="Kappa" unicode="&#x39a;" 
d="M384 0h-64v64v64v64h-64v64h-64v-64v-64v-64v-64h-64h-64h-64v64h64v64v64v64v64v64v64v64v64h-64v64h64h64h64v-64v-64v-64v-64h64v64h64v64v64v64h64h64v-64v-64v-64h-64v-64h-64v-64v-64h64v-64h64v-64v-64v-64h-64z" />
    <glyph glyph-name="Lambda" unicode="&#x39b;" 
d="M384 0h-64v64v64v64v64v64h-64v64v64h-64v-64v-64h-64v-64v-64v-64v-64v-64h-64h-64v64v64v64v64v64h64v64v64h64v64v64h64v64h64v-64h64v-64v-64h64v-64v-64h64v-64v-64v-64v-64v-64h-64z" />
    <glyph glyph-name="Mu" unicode="&#x39c;" 
d="M192 256v64h-64v-64v-64v-64v-64v-64h-64h-64v64v64v64v64v64v64v64v64v64v64h64v-64h64v-64h64v-64h64v64h64v64h64v64h64v-64v-64v-64v-64v-64v-64v-64v-64v-64v-64h-64h-64v64v64v64v64v64h-64v-64h-64z" />
    <glyph glyph-name="Nu" unicode="&#x39d;" 
d="M384 0h-64v64v64v64h-64v64h-64v64h-64v-64v-64v-64v-64v-64h-64h-64v64v64v64v64v64v64v64v64v64v64h64v-64h64v-64h64v-64h64v-64h64v64v64v64v64h64h64v-64v-64v-64v-64v-64v-64v-64v-64v-64v-64h-64z" />
    <glyph glyph-name="Xi" unicode="&#x39e;" 
d="M384 0h-64h-64h-64h-64h-64h-64v64v64h64h64v-64h64h64h64v64h64h64v-64v-64h-64zM320 384h64v-64h-64h-64h-64h-64h-64v64h64h64h64h64zM384 512h-64v64h-64h-64h-64v-64h-64h-64v64v64h64h64h64h64h64h64h64v-64v-64h-64z" />
    <glyph glyph-name="Omicron" unicode="&#x39f;" 
d="M320 0h-64h-64h-64h-64v64h-64v64v64v64v64v64v64v64v64h64v64h64h64h64h64h64v-64h64v-64v-64v-64v-64v-64v-64v-64v-64h-64v-64h-64zM256 64h64v64v64v64v64v64v64v64v64h-64h-64h-64v-64v-64v-64v-64v-64v-64v-64v-64h64h64z" />
    <glyph glyph-name="Pi" unicode="&#x3a0;" 
d="M384 0h-64v64v64v64v64v64v64v64v64v64h-64h-64h-64v-64v-64v-64v-64v-64v-64v-64v-64v-64h-64h-64v64v64v64v64v64v64v64v64v64v64h64h64h64h64h64h64h64v-64v-64v-64v-64v-64v-64v-64v-64v-64v-64h-64z" />
    <glyph glyph-name="Rho" unicode="&#x3a1;" 
d="M192 0h-64h-64h-64v64h64v64v64v64v64v64v64v64v64h-64v64h64h64h64h64h64h64v-64h64v-64v-64v-64v-64h-64v-64h-64h-64h-64v-64v-64v-64h64v-64h-64zM256 320h64v64v64v64v64h-64h-64v-64v-64v-64v-64h64z" />
    <glyph glyph-name="Sigma" unicode="&#x3a3;" 
d="M384 0h-64h-64h-64h-64h-64h-64v64v64h64v64h64v64h64v64v64h-64v64h-64v64h-64v64v64h64h64h64h64h64h64h64v-64v-64h-64h-64v64h-64h-64h-64v-64h64v-64h64v-64h64v-64v-64h-64v-64h-64v-64h-64v-64h64h64h64v64h64h64v-64v-64h-64z" />
    <glyph glyph-name="Tau" unicode="&#x3a4;" 
d="M384 448v64h-64v-64v-64v-64v-64v-64v-64v-64h64v-64h-64h-64h-64h-64v64h64v64v64v64v64v64v64v64h-64v-64h-64v64v64v64h64h64h64h64h64h64v-64v-64v-64h-64z" />
    <glyph glyph-name="Upsilon" unicode="&#x3a5;" 
d="M320 0h-64h-64h-64v64h64v64v64v64v64h-64v64h-64v64v64v64v64h64h64v-64v-64v-64v-64h64h64v64v64v64v64h64h64v-64v-64v-64v-64h-64v-64h-64v-64v-64v-64v-64h64v-64h-64z" />
    <glyph glyph-name="Phi" unicode="&#x3a6;" 
d="M256 0h-64h-64v64h64v64h-64h-64v64h-64v64v64v64v64h64v64h64h64v64h-64v64h64h64h64v-64h-64v-64h64h64v-64h64v-64v-64v-64v-64h-64v-64h-64h-64v-64h64v-64h-64zM320 192v64v64v64v64h-64v-64v-64v-64v-64h64zM192 192v64v64v64v64h-64v-64v-64v-64v-64h64z" />
    <glyph glyph-name="Chi" unicode="&#x3a7;" 
d="M384 0h-64v64v64h-64v64h-64v-64h-64v-64v-64h-64h-64v64v64h64v64v64h64v64v64h-64v64v64h-64v64v64h64h64v-64v-64h64v-64h64v64h64v64v64h64h64v-64v-64h-64v-64v-64h-64v-64v-64h64v-64v-64h64v-64v-64h-64z" />
    <glyph glyph-name="Psi" unicode="&#x3a8;" 
d="M256 0h-64h-64v64h64v64v64h-64h-64v64h-64v64v64v64v64v64v64h64h64v-64v-64v-64v-64v-64v-64h64v64v64v64v64v64v64h64v-64v-64v-64v-64v-64v-64h64v64v64v64v64v64v64h64h64v-64v-64v-64v-64v-64v-64h-64v-64h-64h-64v-64v-64h64v-64h-64z" />
    <glyph glyph-name="Omega" unicode="&#x3a9;" 
d="M384 0h-64h-64v64v64v64v64v64h64v64v64v64h-64v64h-64v-64h-64v-64v-64v-64h64v-64v-64v-64v-64v-64h-64h-64h-64v64h64v64v64v64v64h-64v64v64v64h64v64h64v64h64h64h64v-64h64v-64h64v-64v-64v-64h-64v-64v-64v-64v-64h64v-64h-64z" />
    <glyph glyph-name="alphatonos" unicode="&#x3ac;" 
d="M384 0h-64v64h-64v-64h-64h-64h-64v64h-64v64v64v64v64v64h64v64h64h64h64v-64h-64h-64v-64v-64v-64v-64v-64h64h64v64v64v64v64v64h64v64h64v-64v-64v-64v-64v-64v-64h64v-64h-64zM256 512h-64v64h64v64h64h64v-64h-64v-64h-64z" />
    <glyph glyph-name="epsilontonos" unicode="&#x3ad;" 
d="M384 64h64v-64h-64h-64h-64h-64h-64v64h-64v64v64h64v64h-64v64v64h64v64h64h64h64h64h64v-64h-64h-64h-64h-64v-64v-64h64h64v-64h-64h-64v-64v-64h64h64h64zM320 512h-64v64h64v64h64h64v-64h-64v-64h-64z" />
    <glyph glyph-name="etatonos" unicode="&#x3ae;" 
d="M384 -192h-64v64v64v64v64v64v64v64v64v64h-64h-64v-64v-64v-64v-64v-64v-64h-64h-64v64v64v64v64v64v64h-64v64h64h64v-64h64v64h64h64h64v-64h64v-64v-64v-64v-64v-64v-64v-64v-64v-64h-64zM256 512h-64v64h64v64h64h64v-64h-64v-64h-64z" />
    <glyph glyph-name="iotatonos" unicode="&#x3af;" 
d="M256 0h-64v64h-64v64v64v64v64v64v64h64h64v-64v-64v-64v-64v-64v-64h64v-64h-64zM320 64v64h64v-64h-64zM256 512h-64v64h64v64h64h64v-64h-64v-64h-64z" />
    <glyph glyph-name="upsilondieresistonos" unicode="&#x3b0;" 
d="M256 0h-64h-64h-64v64h-64v64v64v64v64v64v64h64h64v-64v-64v-64v-64v-64v-64h64h64v64v64v64v64v64v64h64h64h64v-64h-64v-64v-64v-64v-64v-64h-64v-64h-64zM320 576h64v-64h-64h-64v64h64zM64 576h64v-64h-64h-64v64h64zM192 640h-64v64h64v64h64h64v-64h-64v-64h-64z
" />
    <glyph glyph-name="alpha" unicode="&#x3b1;" 
d="M384 0h-64v64h-64v-64h-64h-64h-64v64h-64v64v64v64v64v64h64v64h64h64h64v-64h-64h-64v-64v-64v-64v-64v-64h64h64v64v64v64v64v64h64v64h64v-64v-64v-64v-64v-64v-64h64v-64h-64z" />
    <glyph glyph-name="beta" unicode="&#x3b2;" 
d="M64 -128h-64v64v64v64v64v64v64v64v64v64v64v64h64v64h64h64h64h64v-64h64v-64v-64h-64v-64h64v-64h64v-64v-64v-64h-64v-64h-64h-64h-64h-64v-64v-64v-64h-64zM256 128h64v64v64v64h-64v64h-64h-64v-64v-64v-64v-64h64h64zM192 448h64v64v64h-64h-64v-64v-64h64z" />
    <glyph glyph-name="gamma" unicode="&#x3b3;" 
d="M256 -192h-64h-64v64h-64v64v64v64h64v64v64v64h-64v64v64h-64v64h64h64v-64h64v-64v-64h64v64v64h64v64h64h64v-64h-64v-64v-64h-64v-64v-64v-64h64v-64v-64v-64h-64v-64h-64zM256 -128v64v64v64h-64v-64v-64v-64h64z" />
    <glyph glyph-name="delta" unicode="&#x3b4;" 
d="M384 512v64h64v-64h-64zM256 0h-64h-64h-64v64h-64v64v64v64v64h64v64h64h64v64h-64v64h-64v64h64v64h64h64h64h64v-64h-64h-64h-64v-64h64v-64h64v-64h64v-64v-64v-64v-64v-64h-64v-64h-64zM192 64h64v64v64v64v64h-64h-64v-64v-64v-64v-64h64z" />
    <glyph glyph-name="epsilon" unicode="&#x3b5;" 
d="M384 64h64v-64h-64h-64h-64h-64h-64v64h-64v64v64h64v64h-64v64v64h64v64h64h64h64h64h64v-64h-64h-64h-64h-64v-64v-64h64h64v-64h-64h-64v-64v-64h64h64h64z" />
    <glyph glyph-name="zeta" unicode="&#x3b6;" 
d="M320 -128h-64h-64v64h64h64v64h-64h-64h-64v64h-64v64h-64v64v64v64v64h64v64h64v64h-64v64h-64v64h64h64v-64h64h64h64h64v-64h-64h-64v-64h-64v-64h-64v-64v-64v-64v-64h64v-64h64h64h64v-64h64v-64h-64v-64h-64z" />
    <glyph glyph-name="eta" unicode="&#x3b7;" 
d="M384 -192h-64v64v64v64v64v64v64v64v64v64h-64h-64v-64v-64v-64v-64v-64v-64h-64h-64v64v64v64v64v64v64h-64v64h64h64v-64h64v64h64h64h64v-64h64v-64v-64v-64v-64v-64v-64v-64v-64v-64h-64z" />
    <glyph glyph-name="theta" unicode="&#x3b8;" 
d="M320 0h-64h-64h-64h-64v64h-64v64v64v64h64v-64h64v-64v-64h64h64h64v64v64v64h-64h-64h-64v64v64h-64v64h-64v64v64h64v64h64h64h64h64h64v-64h64v-64v-64v-64v-64v-64v-64v-64v-64h-64v-64h-64zM320 320v64v64v64v64h-64h-64h-64v-64v-64h64v-64h64v-64h64z" />
    <glyph glyph-name="iota" unicode="&#x3b9;" 
d="M256 0h-64v64h-64v64v64v64v64v64v64h64h64v-64v-64v-64v-64v-64v-64h64v-64h-64zM320 64v64h64v-64h-64z" />
    <glyph glyph-name="kappa" unicode="&#x3ba;" 
d="M384 0h-64v64v64h-64v64h-64v-64h-64v-64v-64h-64h-64v64v64v64v64v64v64v64h64h64v-64v-64v-64h64v64h64v64h64v64h64h64v-64h-64v-64h-64v-64v-64h64v-64h64v-64v-64h-64z" />
    <glyph glyph-name="lambda" unicode="&#x3bb;" 
d="M384 0h-64v64v64v64v64h-64v-64h-64v-64v-64v-64h-64h-64v64v64v64h64v64h64v64h64v64h64v64v64v64h-64h-64v-64h-64h-64v64h64v64h64h64h64h64v-64h64v-64v-64v-64v-64v-64v-64v-64v-64v-64h-64z" />
    <glyph glyph-name="mu" unicode="&#x3bc;" 
d="M384 0v64h64v-64h-64zM64 -192h-64v64v64v64v64v64v64v64v64v64v64h64h64v-64v-64v-64v-64v-64h64v-64h64v64v64v64v64v64v64h64h64v-64v-64v-64v-64v-64v-64h-64v-64h-64h-64v64h-64v-64v-64v-64v-64h-64z" />
    <glyph glyph-name="nu" unicode="&#x3bd;" 
d="M192 0h-64v64h-64v64v64v64v64v64h-64v64h64h64h64v-64v-64v-64v-64v-64h64v64h64v64v64v64v64h64h64v-64v-64v-64v-64h-64v-64h-64v-64h-64v-64h-64z" />
    <glyph glyph-name="xi" unicode="&#x3be;" 
d="M320 -128h-64h-64v64h64h64v64h-64h-64h-64h-64v64h-64v64v64h64v64v64h-64v64v64h64v64v64h-64v64h64h64v-64h64h64h64h64v-64h-64h-64h-64v-64h-64v-64v-64h64h64h64h64v-64h-64h-64h-64v-64h-64v-64v-64h64h64h64h64v-64h64v-64h-64v-64h-64z" />
    <glyph glyph-name="omicron" unicode="&#x3bf;" 
d="M320 0h-64h-64h-64h-64v64h-64v64v64v64v64v64h64v64h64h64h64h64h64v-64h64v-64v-64v-64v-64v-64h-64v-64h-64zM256 64h64v64v64v64v64v64h-64h-64h-64v-64v-64v-64v-64v-64h64h64z" />
    <glyph glyph-name="pi" unicode="&#x3c0;" 
d="M256 0v64v64v64v64v64v64h-64v-64v-64v-64v-64v-64h-64v-64h-64v64v64v64v64v64h-64v64h64v64h64h64h64h64h64v64h64v-64v-64h-64v-64v-64v-64v-64v-64h-64v-64h-64z" />
    <glyph glyph-name="rho" unicode="&#x3c1;" 
d="M64 -192h-64v64v64v64v64v64v64v64v64v64h64v64h64h64h64h64h64v-64h64v-64v-64v-64v-64v-64h-64v-64h-64h-64h-64v64h-64v-64v-64v-64v-64h-64zM256 64h64v64v64v64v64v64h-64h-64h-64v-64v-64v-64v-64h64v-64h64z" />
    <glyph glyph-name="sigma1" unicode="&#x3c2;" 
d="M320 -128h-64h-64h-64h-64v64h64h64h64h64v64v64h-64h-64h-64v64h-64v64h-64v64v64v64h64v64h64h64h64h64h64v-64h64v-64h-64h-64v64h-64h-64h-64v-64v-64v-64h64v-64h64h64h64v-64h64v-64v-64h-64v-64h-64z" />
    <glyph glyph-name="sigma" unicode="&#x3c3;" 
d="M192 64h64v64v64v64v64h-64v64h-64v-64v-64v-64v-64v-64h64zM192 0h-64h-64v64h-64v64v64v64v64v64h64v64h64h64h64h64h64h64v-64h-64h-64h-64v-64h64v-64v-64v-64v-64h-64v-64h-64z" />
    <glyph glyph-name="tau" unicode="&#x3c4;" 
d="M192 0v64v64v64v64v64v64h-64v-64h-64h-64v64h64v64h64h64h64h64h64h64v-64h-64h-64v-64v-64v-64v-64v-64h-64v-64h-64z" />
    <glyph glyph-name="upsilon" unicode="&#x3c5;" 
d="M256 0h-64h-64h-64v64h-64v64v64v64v64v64v64h64h64v-64v-64v-64v-64v-64v-64h64h64v64v64v64v64v64v64h64h64h64v-64h-64v-64v-64v-64v-64v-64h-64v-64h-64z" />
    <glyph glyph-name="phi" unicode="&#x3c6;" 
d="M192 -192v64v64v64h-64h-64v64h-64v64v64v64v64h64v64h64v-64v-64v-64v-64v-64h64v64v64v64v64v64v64h64h64h64v-64h64v-64v-64v-64v-64v-64h-64v-64h-64h-64v-64v-64v-64h-64zM320 64v64v64v64v64v64h-64v-64v-64v-64v-64v-64h64z" />
    <glyph glyph-name="chi" unicode="&#x3c7;" 
d="M0 0v64h64v-64h-64zM384 0h-64v64h-64v64h-64v-64h-64h-64v64h64v64v64v64h-64v64h-64v64h64h64v-64h64v-64h64v64h64h64v-64h-64v-64v-64v-64h64v-64h64v-64h-64zM384 384v64h64v-64h-64z" />
    <glyph glyph-name="psi" unicode="&#x3c8;" 
d="M192 -192v64v64v64h-64h-64v64h-64v64v64v64v64v64v64h64h64v-64v-64v-64v-64v-64v-64h64v64v64v64v64v64h64v-64v-64v-64v-64v-64h64v64v64v64v64v64v64h64h64v-64v-64v-64v-64v-64v-64h-64v-64h-64h-64v-64v-64v-64h-64z" />
    <glyph glyph-name="omega" unicode="&#x3c9;" 
d="M320 0h-64v64h64v64v64v64v64v64v64h64v-64h64v-64v-64v-64v-64v-64h-64v-64h-64zM128 0h-64v64h-64v64v64v64v64v64h64v64h64v-64v-64v-64v-64v-64v-64h64v-64h-64zM256 64h-64v64v64v64h64v-64v-64v-64z" />
    <glyph glyph-name="iotadieresis" unicode="&#x3ca;" 
d="M256 0h-64v64h-64v64v64v64v64v64v64h64h64v-64v-64v-64v-64v-64v-64h64v-64h-64zM320 64v64h64v-64h-64zM320 512h-64v64v64h64h64v-64v-64h-64zM64 512h-64v64v64h64h64v-64v-64h-64z" />
    <glyph glyph-name="upsilondieresis" unicode="&#x3cb;" 
d="M256 0h-64h-64h-64v64h-64v64v64v64v64v64v64h64h64v-64v-64v-64v-64v-64v-64h64h64v64v64v64v64v64v64h64h64h64v-64h-64v-64v-64v-64v-64v-64h-64v-64h-64zM320 512h-64v64v64h64h64v-64v-64h-64zM64 512h-64v64v64h64h64v-64v-64h-64z" />
    <glyph glyph-name="omicrontonos" unicode="&#x3cc;" 
d="M320 0h-64h-64h-64h-64v64h-64v64v64v64v64v64h64v64h64h64h64h64h64v-64h64v-64v-64v-64v-64v-64h-64v-64h-64zM256 64h64v64v64v64v64v64h-64h-64h-64v-64v-64v-64v-64v-64h64h64zM256 512h-64v64h64v64h64h64v-64h-64v-64h-64z" />
    <glyph glyph-name="upsilontonos" unicode="&#x3cd;" 
d="M256 0h-64h-64h-64v64h-64v64v64v64v64v64v64h64h64v-64v-64v-64v-64v-64v-64h64h64v64v64v64v64v64v64h64h64h64v-64h-64v-64v-64v-64v-64v-64h-64v-64h-64zM256 512h-64v64h64v64h64h64v-64h-64v-64h-64z" />
    <glyph glyph-name="omegatonos" unicode="&#x3ce;" 
d="M320 0h-64v64h64v64v64v64v64v64v64h64v-64h64v-64v-64v-64v-64v-64h-64v-64h-64zM128 0h-64v64h-64v64v64v64v64v64h64v64h64v-64v-64v-64v-64v-64v-64h64v-64h-64zM256 64h-64v64v64v64h64v-64v-64v-64zM256 512h-64v64h64v64h64h64v-64h-64v-64h-64z" />
    <glyph glyph-name="phi1" unicode="&#x3d5;" 
d="M384 64h64v-64h-64h-64h-64h-64h-64h-64v64h64h64v64h-64v64h-64v64v64v64v64h64v64h64v64h-64h-64v64h64h64h64h64h64h64v-64h-64h-64v-64h64v-64h64v-64v-64v-64v-64h-64v-64h-64v-64h64zM256 192h64v64v64v64v64h-64h-64v-64v-64v-64v-64h64z" />
    <glyph glyph-name="afii10023" unicode="&#x401;" 
d="M256 256v64h-64v-64v-64v-64v-64h64h64v64h64v64h64v-64v-64v-64h-64h-64h-64h-64h-64h-64h-64v64h64v64v64v64v64v64v64v64v64h-64v64h64h64h64h64h64h64h64v-64v-64v-64h-64v64h-64v64h-64h-64v-64v-64v-64h64v64h64v-64v-64v-64h-64zM320 768h64v-64h-64h-64v64h64z
M128 768h64v-64h-64h-64v64h64z" />
    <glyph glyph-name="afii10051" unicode="&#x402;" 
d="M320 0h-64v64h64v64v64v64v64h-64v-64h-64v-64v-64v-64v-64h-64h-64h-64v64h64v64v64v64v64v64v64v64v64h-64v64h64h64h64h64h64v-64h-64h-64v-64v-64v-64v-64h64v64h64h64v-64h64v-64v-64v-64v-64h-64v-64h-64z" />
    <glyph glyph-name="afii10052" unicode="&#x403;" 
d="M384 384v64h-64v64h-64h-64v-64v-64v-64v-64v-64v-64v-64h64v-64h-64h-64h-64h-64v64h64v64v64v64v64v64v64v64h-64v64h64h64h64h64h64h64h64v-64v-64v-64h-64zM256 640h-64v64h64v64h64h64v-64h-64v-64h-64z" />
    <glyph glyph-name="afii10053" unicode="&#x404;" 
d="M256 256v64h-64h-64v-64v-64v-64v-64h64h64h64v64h64h64v-64h-64v-64h-64h-64h-64h-64h-64v64h-64v64v64v64v64v64v64v64v64h64v64h64h64h64h64h64v-64h64v-64h-64h-64v64h-64h-64h-64v-64v-64v-64h64h64v64h64v-64v-64v-64h-64z" />
    <glyph glyph-name="afii10054" unicode="&#x405;" 
d="M320 0h-64h-64h-64h-64v64h-64v64v64h64h64v-64v-64h64h64h64v64v64v64h-64v64h-64h-64v64h-64v64h-64v64v64h64v64h64h64h64h64h64v-64h64v-64v-64h-64h-64v64v64h-64h-64h-64v-64v-64h64v-64h64h64v-64h64v-64h64v-64v-64v-64h-64v-64h-64z" />
    <glyph glyph-name="afii10055" unicode="&#x406;" 
d="M320 0h-64h-64h-64v64h64v64v64v64v64v64v64v64v64h-64v64h64h64h64h64v-64h-64v-64v-64v-64v-64v-64v-64v-64v-64h64v-64h-64z" />
    <glyph glyph-name="afii10056" unicode="&#x407;" 
d="M320 0h-64h-64h-64v64h64v64v64v64v64v64v64v64v64h-64v64h64h64h64h64v-64h-64v-64v-64v-64v-64v-64v-64v-64v-64h64v-64h-64zM384 768h64v-64h-64h-64v64h64zM128 768h64v-64h-64h-64v64h64z" />
    <glyph glyph-name="afii10057" unicode="&#x408;" 
d="M256 0h-64h-64h-64v64h-64v64v64v64h64h64v-64v-64v-64h64h64v64v64v64v64v64v64v64v64h-64v64h64h64h64h64v-64h-64v-64v-64v-64v-64v-64v-64v-64v-64h-64v-64h-64z" />
    <glyph glyph-name="afii10058" unicode="&#x409;" 
d="M0 0v64h64v-64h-64zM320 0h-64h-64v64v64v64v64v64v64v64v64v64h-64v-64v-64v-64v-64v-64v-64v-64v-64h-64v64v64v64v64v64v64v64v64h-64v64h64h64h64h64h64h64v-64h-64v-64v-64v-64h64v-64h64v-64v-64v-64v-64h-64v64v64v64v64h-64v-64v-64v-64v-64h64v-64h-64z" />
    <glyph glyph-name="afii10059" unicode="&#x40a;" 
d="M320 0h-64h-64v64v64v64v64v64h-64v-64v-64v-64v-64v-64h-64h-64v64v64v64v64v64v64v64v64v64v64h64h64v-64v-64v-64v-64h64v64v64v64v64h64h64v-64v-64v-64v-64h64v-64h64v-64v-64v-64v-64h-64v64v64v64v64h-64v-64v-64v-64v-64h64v-64h-64z" />
    <glyph glyph-name="afii10060" unicode="&#x40b;" 
d="M384 0h-64v64v64v64v64v64h-64h-64v-64v-64v-64v-64v-64h-64h-64h-64v64h64v64v64v64v64v64v64v64v64h-64v64h64h64h64h64h64v-64h-64h-64v-64v-64v-64h64h64h64v-64h64v-64v-64v-64v-64v-64h-64z" />
    <glyph glyph-name="afii10061" unicode="&#x40c;" 
d="M384 0h-64v64v64h-64v64v64h-64v-64v-64v-64v-64h-64h-64h-64v64h64v64v64v64v64v64v64v64h-64v64h64h64h64v-64v-64v-64v-64h64v64v64h64v64v64h64h64v-64v-64h-64v-64v-64h-64v-64h64v-64v-64h64v-64v-64h-64zM256 640h-64v64h64v64h64h64v-64h-64v-64h-64z" />
    <glyph glyph-name="afii10062" unicode="&#x40e;" 
d="M320 0h-64h-64h-64h-64v64h-64v64h64h64v-64h64h64h64v64v64v64h-64h-64h-64h-64v64h-64v64v64v64v64v64h64h64v-64v-64v-64v-64v-64h64h64h64v64v64v64v64v64h64h64v-64v-64v-64v-64v-64v-64v-64v-64v-64h-64v-64h-64zM320 640h-64h-64h-64v64h-64v64h64h64v-64h64v64
h64h64v-64h-64v-64z" />
    <glyph glyph-name="afii10145" unicode="&#x40f;" 
d="M192 -64v64h-64h-64h-64v64h64v64v64v64v64v64v64v64v64h-64v64h64h64h64v-64v-64v-64v-64v-64v-64v-64v-64v-64h64v64v64v64v64v64v64v64v64v64h64h64h64v-64h-64v-64v-64v-64v-64v-64v-64v-64v-64h64v-64h-64h-64h-64v-64h-64z" />
    <glyph glyph-name="afii10017" unicode="&#x410;" 
d="M384 0h-64v64v64v64v64h-64h-64h-64v-64v-64v-64v-64h-64h-64v64v64v64v64v64v64v64h64v64h64v64h64v64h64h64h64h64v-64v-64v-64v-64v-64v-64v-64v-64v-64v-64h-64zM256 320h64v64v64v64v64h-64v-64h-64v-64h-64v-64v-64h64h64z" />
    <glyph glyph-name="afii10018" unicode="&#x411;" 
d="M384 512v64h-64h-64h-64v-64v-64v-64h64h64h64v-64h64v-64v-64v-64v-64h-64v-64h-64h-64h-64h-64h-64h-64v64h64v64v64v64v64v64v64v64v64h-64v64h64h64h64h64h64h64h64v-64v-64h-64zM256 64h64v64v64v64v64h-64h-64v-64v-64v-64v-64h64z" />
    <glyph glyph-name="afii10019" unicode="&#x412;" 
d="M320 0h-64h-64h-64h-64h-64v64h64v64v64v64v64v64v64v64v64h-64v64h64h64h64h64h64h64v-64h64v-64v-64v-64h-64v-64h64v-64v-64v-64v-64h-64v-64h-64zM256 64h64v64v64v64v64h-64h-64v-64v-64v-64v-64h64zM256 384h64v64v64v64h-64h-64v-64v-64v-64h64z" />
    <glyph glyph-name="afii10020" unicode="&#x413;" 
d="M384 448v64h-64v64h-64h-64v-64v-64v-64v-64v-64v-64v-64v-64h64v-64h-64h-64h-64h-64v64h64v64v64v64v64v64v64v64v64h-64v64h64h64h64h64h64h64h64v-64v-64v-64h-64z" />
    <glyph glyph-name="afii10021" unicode="&#x414;" 
d="M448 -128v64h-64v64h-64h-64h-64h-64v-64h-64v-64h-64v64v64v64h64v64v64v64v64v64v64v64h64v64h64v64h64h64h64h64v-64v-64v-64v-64v-64v-64v-64v-64v-64h64v-64v-64v-64h-64zM256 64h64v64v64v64v64v64v64v64v64h-64v-64h-64v-64v-64v-64v-64v-64v-64v-64h64z" />
    <glyph glyph-name="afii10022" unicode="&#x415;" 
d="M256 256v64h-64v-64v-64v-64v-64h64h64v64h64v64h64v-64v-64v-64h-64h-64h-64h-64h-64h-64h-64v64h64v64v64v64v64v64v64v64v64h-64v64h64h64h64h64h64h64h64v-64v-64v-64h-64v64h-64v64h-64h-64v-64v-64v-64h64v64h64v-64v-64v-64h-64z" />
    <glyph glyph-name="afii10024" unicode="&#x416;" 
d="M192 0v64v64v64v64h-64v-64v-64v-64v-64h-64h-64v64v64v64v64h64v64v64v64v64h-64v64v64h64h64v-64v-64v-64v-64h64v64v64v64v64h64v-64v-64v-64v-64h64v64v64v64v64h64h64v-64v-64h-64v-64v-64v-64v-64h64v-64v-64v-64v-64h-64h-64v64v64v64v64h-64v-64v-64v-64v-64h-64
z" />
    <glyph glyph-name="afii10025" unicode="&#x417;" 
d="M320 0h-64h-64h-64h-64v64h-64v64h64h64v-64h64h64h64v64v64v64v64h-64h-64h-64v64h64h64h64v64v64v64h-64h-64h-64v-64h-64h-64v64h64v64h64h64h64h64h64v-64h64v-64v-64v-64h-64v-64h64v-64v-64v-64v-64h-64v-64h-64z" />
    <glyph glyph-name="afii10026" unicode="&#x418;" 
d="M384 0h-64v64v64v64v64v64h-64v-64h-64v-64h-64v-64v-64v-64h-64h-64v64v64v64v64v64v64v64v64v64v64h64h64v-64v-64v-64v-64v-64h64v64h64v64h64v64v64v64h64h64v-64v-64v-64v-64v-64v-64v-64v-64v-64v-64h-64z" />
    <glyph glyph-name="afii10027" unicode="&#x419;" 
d="M384 0h-64v64v64v64v64v64h-64v-64h-64v-64h-64v-64v-64v-64h-64h-64v64v64v64v64v64v64v64v64v64v64h64h64v-64v-64v-64v-64v-64h64v64h64v64h64v64v64v64h64h64v-64v-64v-64v-64v-64v-64v-64v-64v-64v-64h-64zM320 640h-64h-64h-64v64h-64v64h64h64v-64h64v64h64h64
v-64h-64v-64z" />
    <glyph glyph-name="afii10028" unicode="&#x41a;" 
d="M384 0h-64v64v64v64h-64v64h-64v-64v-64v-64v-64h-64h-64h-64v64h64v64v64v64v64v64v64v64v64h-64v64h64h64h64v-64v-64v-64v-64h64v64h64v64v64v64h64h64v-64v-64v-64h-64v-64h-64v-64v-64h64v-64h64v-64v-64v-64h-64z" />
    <glyph glyph-name="afii10029" unicode="&#x41b;" 
d="M448 0h-64h-64h-64v64h64v64v64v64v64v64v64v64v64h-64v-64h-64v-64v-64v-64v-64v-64v-64v-64h-64v-64h-64h-64v64h64v64v64v64v64v64v64v64h64v64h64v64h64h64h64h64h64v-64h-64v-64v-64v-64v-64v-64v-64v-64v-64h64v-64h-64z" />
    <glyph glyph-name="afii10030" unicode="&#x41c;" 
d="M192 320v64h-64v-64v-64v-64v-64v-64v-64h-64h-64v64v64v64v64v64v64v64v64v64v64h64h64v-64h64v-64h64v64h64v64h64h64v-64v-64v-64v-64v-64v-64v-64v-64v-64v-64h-64h-64v64v64v64v64v64v64h-64v-64h-64z" />
    <glyph glyph-name="afii10031" unicode="&#x41d;" 
d="M384 0h-64v64v64v64v64v64h-64h-64h-64v-64v-64v-64v-64v-64h-64h-64v64v64v64v64v64v64v64v64v64v64h64h64v-64v-64v-64v-64h64h64h64v64v64v64v64h64h64v-64v-64v-64v-64v-64v-64v-64v-64v-64v-64h-64z" />
    <glyph glyph-name="afii10032" unicode="&#x41e;" 
d="M320 0h-64h-64h-64h-64v64h-64v64v64v64v64v64v64v64v64h64v64h64h64h64h64h64v-64h64v-64v-64v-64v-64v-64v-64v-64v-64h-64v-64h-64zM256 64h64v64v64v64v64v64v64v64v64h-64h-64h-64v-64v-64v-64v-64v-64v-64v-64v-64h64h64z" />
    <glyph glyph-name="afii10033" unicode="&#x41f;" 
d="M384 0h-64v64v64v64v64v64v64v64v64v64h-64h-64h-64v-64v-64v-64v-64v-64v-64v-64v-64v-64h-64h-64v64v64v64v64v64v64v64v64v64v64h64h64h64h64h64h64h64v-64v-64v-64v-64v-64v-64v-64v-64v-64v-64h-64z" />
    <glyph glyph-name="afii10034" unicode="&#x420;" 
d="M192 0h-64h-64h-64v64h64v64v64v64v64v64v64v64v64h-64v64h64h64h64h64h64h64v-64h64v-64v-64v-64v-64h-64v-64h-64h-64h-64v-64v-64v-64h64v-64h-64zM256 320h64v64v64v64v64h-64h-64v-64v-64v-64v-64h64z" />
    <glyph glyph-name="afii10035" unicode="&#x421;" 
d="M320 0h-64h-64h-64h-64v64h-64v64v64v64v64v64v64v64v64h64v64h64h64h64h64h64v-64h64v-64v-64h-64h-64v64v64h-64h-64h-64v-64v-64v-64v-64v-64v-64v-64v-64h64h64h64v64h64v64h64v-64v-64h-64v-64h-64z" />
    <glyph glyph-name="afii10036" unicode="&#x422;" 
d="M448 448v64h-64v64h-64v-64v-64v-64v-64v-64v-64v-64v-64h64v-64h-64h-64h-64h-64v64h64v64v64v64v64v64v64v64v64h-64v-64h-64v-64h-64v64v64v64h64h64h64h64h64h64h64h64v-64v-64v-64h-64z" />
    <glyph glyph-name="afii10037" unicode="&#x423;" 
d="M320 0h-64h-64h-64h-64v64h-64v64h64h64v-64h64h64h64v64v64v64h-64h-64h-64h-64v64h-64v64v64v64v64v64h64h64v-64v-64v-64v-64v-64h64h64h64v64v64v64v64v64h64h64v-64v-64v-64v-64v-64v-64v-64v-64v-64h-64v-64h-64z" />
    <glyph glyph-name="afii10038" unicode="&#x424;" 
d="M320 0h-64h-64h-64v64h64v64h-64h-64v64h-64v64v64v64v64v64v64h64v64h64h64h64h64h64h64v-64h64v-64v-64v-64v-64v-64v-64h-64v-64h-64h-64v-64h64v-64h-64zM384 192v64v64v64v64v64v64h-64v-64v-64v-64v-64v-64v-64h64zM192 192v64v64v64v64v64v64h-64v-64v-64v-64v-64
v-64v-64h64z" />
    <glyph glyph-name="afii10039" unicode="&#x425;" 
d="M384 0h-64v64v64h-64v64h-64v-64h-64v-64v-64h-64h-64v64v64h64v64v64h64v64v64h-64v64v64h-64v64v64h64h64v-64v-64h64v-64h64v64h64v64v64h64h64v-64v-64h-64v-64v-64h-64v-64v-64h64v-64v-64h64v-64v-64h-64z" />
    <glyph glyph-name="afii10040" unicode="&#x426;" 
d="M448 -128h-64v64v64h-64h-64h-64h-64h-64h-64v64v64v64v64v64v64v64v64v64v64h64h64v-64v-64v-64v-64v-64v-64v-64v-64v-64h64h64h64v64v64v64v64v64v64v64v64v64h64h64v-64v-64v-64v-64v-64v-64v-64v-64v-64h64v-64v-64v-64h-64z" />
    <glyph glyph-name="afii10041" unicode="&#x427;" 
d="M384 0h-64v64v64v64v64h-64h-64h-64h-64v64h-64v64v64v64v64v64h64h64v-64v-64v-64v-64v-64h64h64h64v64v64v64v64v64h64h64v-64v-64v-64v-64v-64v-64v-64v-64v-64v-64h-64z" />
    <glyph glyph-name="afii10042" unicode="&#x428;" 
d="M384 0h-64h-64h-64h-64h-64h-64v64v64v64v64v64v64v64v64v64v64h64h64v-64v-64v-64v-64v-64v-64v-64v-64v-64h64v64v64v64v64v64v64v64v64v64h64v-64v-64v-64v-64v-64v-64v-64v-64v-64h64v64v64v64v64v64v64v64v64v64h64h64v-64v-64v-64v-64v-64v-64v-64v-64v-64v-64h-64
z" />
    <glyph glyph-name="afii10043" unicode="&#x429;" 
d="M448 -128h-64v64v64h-64h-64h-64h-64h-64h-64v64v64v64v64v64v64v64v64v64v64h64h64v-64v-64v-64v-64v-64v-64v-64v-64v-64h64v64v64v64v64v64v64v64v64v64h64v-64v-64v-64v-64v-64v-64v-64v-64v-64h64v64v64v64v64v64v64v64v64v64h64h64v-64v-64v-64v-64v-64v-64v-64
v-64v-64h64v-64v-64v-64h-64z" />
    <glyph glyph-name="afii10044" unicode="&#x42a;" 
d="M0 448v64v64v64h64h64h64h64h64v-64h-64v-64v-64v-64h64h64h64v-64h64v-64v-64v-64v-64h-64v-64h-64h-64h-64h-64h-64h-64v64h64v64v64v64v64v64v64v64h-64v-64h-64zM320 64h64v64v64v64v64h-64h-64v-64v-64v-64v-64h64z" />
    <glyph glyph-name="afii10045" unicode="&#x42b;" 
d="M448 0h-64v64v64v64v64v64v64v64v64v64v64h64h64v-64v-64v-64v-64v-64v-64v-64v-64v-64v-64h-64zM192 0h-64h-64h-64v64v64v64v64v64v64v64v64v64v64h64h64v-64v-64v-64v-64h64h64v-64h64v-64v-64v-64v-64h-64v-64h-64zM192 64v64v64v64v64h-64v-64v-64v-64v-64h64z" />
    <glyph glyph-name="afii10046" unicode="&#x42c;" 
d="M320 0h-64h-64h-64h-64h-64v64h64v64v64v64v64v64v64v64v64h-64v64h64h64h64h64v-64h-64v-64v-64v-64h64h64h64v-64h64v-64v-64v-64v-64h-64v-64h-64zM256 64h64v64v64v64v64h-64h-64v-64v-64v-64v-64h64z" />
    <glyph glyph-name="afii10047" unicode="&#x42d;" 
d="M128 256v64v64v64h64v-64h64h64v64v64v64h-64h-64h-64v-64h-64h-64v64h64v64h64h64h64h64h64v-64h64v-64v-64v-64v-64v-64v-64v-64v-64h-64v-64h-64h-64h-64h-64h-64v64h-64v64h64h64v-64h64h64h64v64v64v64v64h-64h-64v-64h-64z" />
    <glyph glyph-name="afii10048" unicode="&#x42e;" 
d="M384 0h-64h-64v64h-64v64v64v64v64h-64v-64v-64v-64v-64v-64h-64h-64v64v64v64v64v64v64v64v64v64v64h64h64v-64v-64v-64v-64h64v64v64v64h64v64h64h64h64v-64h64v-64v-64v-64v-64v-64v-64v-64v-64h-64v-64h-64zM384 64v64v64v64v64v64v64v64v64h-64v-64v-64v-64v-64v-64
v-64v-64v-64h64z" />
    <glyph glyph-name="afii10049" unicode="&#x42f;" 
d="M448 0h-64h-64v64v64v64v64h-64h-64v-64v-64v-64v-64h-64h-64h-64v64h64v64v64v64h64v64v64h-64v64v64v64h64v64h64h64h64h64h64h64v-64h-64v-64v-64v-64v-64v-64v-64v-64v-64h64v-64h-64zM256 384h64v64v64v64h-64h-64v-64v-64v-64h64z" />
    <glyph glyph-name="afii10065" unicode="&#x430;" 
d="M384 0h-64v64h-64v64v64v64h-64h-64v-64v-64v-64h64h64v-64h-64h-64h-64v64h-64v64v64v64h64v64h64h64h64v64h-64h-64h-64v64h64h64h64h64v-64h64v-64v-64v-64v-64v-64h64v-64h-64z" />
    <glyph glyph-name="afii10066" unicode="&#x431;" 
d="M320 0h-64h-64h-64h-64v64h-64v64v64v64v64v64v64v64h64v64h64h64h64h64v64h64v64h64v-64v-64h-64v-64h-64h-64h-64h-64v-64v-64h64h64h64h64v-64h64v-64v-64v-64v-64h-64v-64h-64zM256 64h64v64v64v64v64h-64h-64h-64v-64v-64v-64v-64h64h64z" />
    <glyph glyph-name="afii10067" unicode="&#x432;" 
d="M320 0h-64h-64h-64h-64h-64v64h64v64v64v64v64v64h-64v64h64h64h64h64h64h64v-64h64v-64v-64h-64v-64h64v-64v-64h-64v-64h-64zM256 64h64v64v64h-64h-64v-64v-64h64zM256 256h64v64v64h-64h-64v-64v-64h64z" />
    <glyph glyph-name="afii10068" unicode="&#x433;" 
d="M384 256v64v64h-64h-64h-64v-64v-64v-64v-64v-64h64v-64h-64h-64h-64h-64v64h64v64v64v64v64v64h-64v64h64h64h64h64h64h64h64v-64v-64v-64h-64z" />
    <glyph glyph-name="afii10069" unicode="&#x434;" 
d="M448 -128h-64v64v64h-64h-64h-64h-64v-64v-64h-64h-64v64v64v64h64v64v64v64v64h64v64h64v64h64h64h64h64v-64v-64v-64v-64v-64v-64h64v-64v-64v-64h-64zM256 64h64v64v64v64v64v64h-64v-64h-64v-64v-64v-64v-64h64z" />
    <glyph glyph-name="afii10070" unicode="&#x435;" 
d="M320 0h-64h-64h-64h-64v64h-64v64v64v64v64v64h64v64h64h64h64h64h64v-64h64v-64v-64v-64h-64h-64h-64h-64h-64v-64v-64h64h64h64v64h64h64v-64h-64v-64h-64zM256 256h64v64v64h-64h-64h-64v-64v-64h64h64z" />
    <glyph glyph-name="afii10072" unicode="&#x436;" 
d="M192 0v64v64v64h-64v-64v-64v-64h-64h-64v64v64h64v64v64v64h-64v64v64h64h64v-64v-64v-64h64v64v64v64h64v-64v-64v-64h64v64v64v64h64h64v-64v-64h-64v-64v-64v-64h64v-64v-64h-64h-64v64v64v64h-64v-64v-64v-64h-64z" />
    <glyph glyph-name="afii10073" unicode="&#x437;" 
d="M320 0h-64h-64h-64h-64v64h-64v64h64h64v-64h64h64h64v64v64h-64h-64h-64v64h64h64h64v64v64h-64h-64h-64v-64h-64h-64v64h64v64h64h64h64h64h64v-64h64v-64v-64h-64v-64h64v-64v-64h-64v-64h-64z" />
    <glyph glyph-name="afii10074" unicode="&#x438;" 
d="M384 0h-64v64v64v64v64h-64v-64h-64v-64h-64v-64v-64h-64h-64v64v64v64v64v64v64v64h64h64v-64v-64v-64v-64h64v64h64v64h64v64v64h64h64v-64v-64v-64v-64v-64v-64v-64h-64z" />
    <glyph glyph-name="afii10075" unicode="&#x439;" 
d="M384 0h-64v64v64v64v64h-64v-64h-64v-64h-64v-64v-64h-64h-64v64v64v64v64v64v64v64h64h64v-64v-64v-64v-64h64v64h64v64h64v64v64h64h64v-64v-64v-64v-64v-64v-64v-64h-64zM320 448h-64h-64h-64v64h-64v64h64h64v-64h64v64h64h64v-64h-64v-64z" />
    <glyph glyph-name="afii10076" unicode="&#x43a;" 
d="M384 0h-64v64v64h-64v64h-64v-64v-64v-64h-64h-64h-64v64h64v64v64v64v64v64h-64v64h64h64h64v-64v-64h64v64h64v64h64h64v-64h-64v-64h-64v-64v-64h64v-64h64v-64v-64h-64z" />
    <glyph glyph-name="afii10077" unicode="&#x43b;" 
d="M384 0h-64v64v64v64v64v64v64h-64v-64h-64v-64v-64v-64v-64v-64h-64h-64h-64v64h64v64v64v64v64h64v64h64v64h64h64h64h64v-64v-64v-64v-64v-64v-64v-64h-64z" />
    <glyph glyph-name="afii10078" unicode="&#x43c;" 
d="M192 64v64v64h-64v-64v-64v-64h-64h-64v64v64v64v64v64v64v64h64h64v-64h64v-64h64v64h64v64h64h64v-64v-64v-64v-64v-64v-64v-64h-64h-64v64v64v64h-64v-64v-64h-64z" />
    <glyph glyph-name="afii10079" unicode="&#x43d;" 
d="M384 0h-64v64v64v64h-64h-64h-64v-64v-64v-64h-64h-64v64v64v64v64v64v64v64h64h64v-64v-64v-64h64h64h64v64v64v64h64h64v-64v-64v-64v-64v-64v-64v-64h-64z" />
    <glyph glyph-name="afii10080" unicode="&#x43e;" 
d="M320 0h-64h-64h-64h-64v64h-64v64v64v64v64v64h64v64h64h64h64h64h64v-64h64v-64v-64v-64v-64v-64h-64v-64h-64zM256 64h64v64v64v64v64v64h-64h-64h-64v-64v-64v-64v-64v-64h64h64z" />
    <glyph glyph-name="afii10081" unicode="&#x43f;" 
d="M384 0h-64v64v64v64v64v64v64h-64h-64h-64v-64v-64v-64v-64v-64v-64h-64h-64v64v64v64v64v64v64v64h64h64h64h64h64h64h64v-64v-64v-64v-64v-64v-64v-64h-64z" />
    <glyph glyph-name="afii10082" unicode="&#x440;" 
d="M192 -192h-64h-64h-64v64h64v64v64v64v64v64v64v64v64h-64v64h64h64v-64h64v64h64h64h64v-64h64v-64v-64v-64v-64v-64h-64v-64h-64h-64h-64v-64v-64h64v-64h-64zM256 64h64v64v64v64v64v64h-64h-64v-64v-64v-64v-64v-64h64z" />
    <glyph glyph-name="afii10083" unicode="&#x441;" 
d="M320 0h-64h-64h-64h-64v64h-64v64v64v64v64v64h64v64h64h64h64h64h64v-64h64v-64h-64h-64v64h-64h-64h-64v-64v-64v-64v-64v-64h64h64h64v64h64h64v-64h-64v-64h-64z" />
    <glyph glyph-name="afii10084" unicode="&#x442;" 
d="M384 320v64h-64v-64v-64v-64v-64v-64h64v-64h-64h-64h-64h-64v64h64v64v64v64v64v64h-64v-64h-64v64v64h64h64h64h64h64h64v-64v-64h-64z" />
    <glyph glyph-name="afii10085" unicode="&#x443;" 
d="M320 -192h-64h-64h-64h-64v64h-64v64h64h64v-64h64h64h64v64v64v64h-64h-64h-64h-64v64h-64v64v64v64v64v64h64h64v-64v-64v-64v-64v-64h64h64h64v64v64v64v64v64h64h64v-64v-64v-64v-64v-64v-64v-64v-64v-64h-64v-64h-64z" />
    <glyph glyph-name="afii10086" unicode="&#x444;" 
d="M320 -192h-64h-64h-64v64h64v64v64h-64h-64v64h-64v64v64v64v64v64h64v64h64h64v64h-64v64h64h64h64h64v-64h-64v-64h64h64v-64h64v-64v-64v-64v-64v-64h-64v-64h-64h-64v-64v-64h64v-64h-64zM384 64v64v64v64v64v64h-64v-64v-64v-64v-64v-64h64zM192 64v64v64v64v64v64
h-64v-64v-64v-64v-64v-64h64z" />
    <glyph glyph-name="afii10087" unicode="&#x445;" 
d="M384 0h-64v64h-64v64h-64v-64h-64v-64h-64h-64v64h64v64h64v64v64v64h-64v64h-64v64h64h64v-64h64v-64h64v64h64v64h64h64v-64h-64v-64h-64v-64v-64v-64h64v-64h64v-64h-64z" />
    <glyph glyph-name="afii10088" unicode="&#x446;" 
d="M448 -128h-64v64v64h-64h-64h-64h-64h-64h-64v64v64v64v64v64v64v64h64h64v-64v-64v-64v-64v-64v-64h64h64h64v64v64v64v64v64v64h64h64v-64v-64v-64v-64v-64v-64h64v-64v-64v-64h-64z" />
    <glyph glyph-name="afii10089" unicode="&#x447;" 
d="M384 0h-64v64v64h-64h-64h-64h-64v64h-64v64v64v64v64h64h64v-64v-64v-64v-64h64h64h64v64v64v64v64h64h64v-64v-64v-64v-64v-64v-64v-64h-64z" />
    <glyph glyph-name="afii10090" unicode="&#x448;" 
d="M384 0h-64h-64h-64h-64h-64h-64v64v64v64v64v64v64v64h64h64v-64v-64v-64v-64v-64v-64h64v64v64v64v64v64v64h64v-64v-64v-64v-64v-64v-64h64v64v64v64v64v64v64h64h64v-64v-64v-64v-64v-64v-64v-64h-64z" />
    <glyph glyph-name="afii10091" unicode="&#x449;" 
d="M448 -128h-64v64v64h-64h-64h-64h-64h-64h-64v64v64v64v64v64v64v64h64h64v-64v-64v-64v-64v-64v-64h64v64v64v64v64v64v64h64v-64v-64v-64v-64v-64v-64h64v64v64v64v64v64v64h64h64v-64v-64v-64v-64v-64v-64h64v-64v-64v-64h-64z" />
    <glyph glyph-name="afii10092" unicode="&#x44a;" 
d="M0 256v64v64v64h64h64h64h64h64v-64h-64v-64v-64h64h64h64v-64h64v-64v-64h-64v-64h-64h-64h-64h-64h-64h-64v64h64v64v64v64v64v64h-64v-64v-64h-64zM320 64h64v64v64h-64h-64v-64v-64h64z" />
    <glyph glyph-name="afii10093" unicode="&#x44b;" 
d="M384 0h-64v64h-64v-64h-64h-64h-64h-64v64v64v64v64v64v64v64h64h64v-64v-64v-64h64h64v-64h64v64v64v64v64h64h64v-64v-64v-64v-64v-64v-64v-64h-64zM192 64v64v64h-64v-64v-64h64z" />
    <glyph glyph-name="afii10094" unicode="&#x44c;" 
d="M320 0h-64h-64h-64h-64h-64v64h64v64v64v64v64v64h-64v64h64h64h64h64v-64h-64v-64v-64h64h64h64v-64h64v-64v-64h-64v-64h-64zM256 64h64v64v64h-64h-64v-64v-64h64z" />
    <glyph glyph-name="afii10095" unicode="&#x44d;" 
d="M320 0h-64h-64h-64h-64v64h-64v64h64h64v-64h64h64h64v64v64h-64h-64h-64v64h64h64h64v64v64h-64h-64h-64v-64h-64h-64v64h64v64h64h64h64h64h64v-64h64v-64v-64v-64v-64v-64h-64v-64h-64z" />
    <glyph glyph-name="afii10096" unicode="&#x44e;" 
d="M384 0h-64h-64v64h-64v64v64h-64v-64v-64v-64h-64h-64v64v64v64v64v64v64v64h64h64v-64v-64v-64h64v64v64h64v64h64h64h64v-64h64v-64v-64v-64v-64v-64h-64v-64h-64zM384 64v64v64v64v64v64h-64v-64v-64v-64v-64v-64h64z" />
    <glyph glyph-name="afii10097" unicode="&#x44f;" 
d="M384 0h-64v64v64v64h-64v-64h-64v-64h-64v-64h-64h-64v64h64v64h64v64h-64v64h-64v64v64h64v64h64h64h64h64h64h64v-64v-64v-64v-64v-64v-64v-64h-64zM256 256h64v64v64h-64h-64h-64v-64v-64h64h64z" />
    <glyph glyph-name="afii10071" unicode="&#x451;" 
d="M320 0h-64h-64h-64h-64v64h-64v64v64v64v64v64h64v64h64h64h64h64h64v-64h64v-64v-64h-64v-64h-64h-64h-64h-64v-64v-64h64h64h64v64h64h64v-64h-64v-64h-64zM256 256h64v64v64h-64h-64h-64v-64v-64h64h64zM320 576h64v-64h-64h-64v64h64zM128 576h64v-64h-64h-64v64h64z
" />
    <glyph glyph-name="afii10099" unicode="&#x452;" 
d="M256 -192v64h64v-64h-64zM320 -128v64v64v64v64v64v64h-64h-64v-64v-64v-64v-64h-64h-64h-64v64h64v64v64v64v64v64v64h-64v64h64v64v64h64h64v-64v-64h64h64v-64h-64h-64v-64v-64h64h64h64v-64h64v-64v-64v-64v-64v-64h-64v-64h-64z" />
    <glyph glyph-name="afii10100" unicode="&#x453;" 
d="M384 320v64h-64h-64h-64v-64v-64v-64v-64v-64h64v-64h-64h-64h-64h-64v64h64v64v64v64v64v64h-64v64h64h64h64h64h64h64h64v-64v-64h-64zM256 512h-64v64h64v64h64h64v-64h-64v-64h-64z" />
    <glyph glyph-name="afii10101" unicode="&#x454;" 
d="M320 0h-64h-64h-64h-64v64h-64v64v64v64v64v64h64v64h64h64h64h64h64v-64h64v-64h-64h-64v64h-64h-64h-64v-64v-64h64h64h64v-64h-64h-64h-64v-64v-64h64h64h64v64h64h64v-64h-64v-64h-64z" />
    <glyph glyph-name="afii10102" unicode="&#x455;" 
d="M320 0h-64h-64h-64h-64v64h-64v64h64h64v-64h64h64h64v64h-64v64h-64h-64v64h-64v64h-64v64h64v64h64h64h64h64h64v-64h64v-64h-64h-64v64h-64h-64h-64v-64h64v-64h64h64v-64h64v-64h64v-64h-64v-64h-64z" />
    <glyph glyph-name="afii10103" unicode="&#x456;" 
d="M320 0h-64h-64h-64v64h64v64v64v64v64v64h-64v64h64h64h64v-64v-64v-64v-64v-64v-64h64v-64h-64zM256 512h-64v64v64h64h64v-64v-64h-64z" />
    <glyph glyph-name="afii10104" unicode="&#x457;" 
d="M320 0h-64h-64h-64v64h64v64v64v64v64v64h-64v64h64h64h64v-64v-64v-64v-64v-64v-64h64v-64h-64zM320 576h64v-64h-64h-64v64h64zM128 576h64v-64h-64h-64v64h64z" />
    <glyph glyph-name="afii10105" unicode="&#x458;" 
d="M256 -192h-64h-64h-64v64h-64v64v64h64h64v-64v-64h64h64v64v64v64v64v64v64v64v64h-64v64h64h64h64v-64v-64v-64v-64v-64v-64v-64v-64v-64h-64v-64h-64zM320 512h-64v64v64h64h64v-64v-64h-64z" />
    <glyph glyph-name="afii10106" unicode="&#x459;" 
d="M0 0v64h64v-64h-64zM320 0h-64h-64v64v64v64v64v64v64h-64v-64v-64v-64v-64v-64h-64v64v64v64v64v64v64h64h64h64h64v-64v-64h64v-64h64v-64v-64v-64h-64v64v64v64h-64v-64v-64v-64h64v-64h-64z" />
    <glyph glyph-name="afii10107" unicode="&#x45a;" 
d="M320 0h-64h-64v64v64v64v64h-64v-64v-64v-64v-64h-64h-64v64v64v64v64v64v64v64h64h64v-64v-64h64v64v64h64h64v-64v-64h64v-64h64v-64v-64v-64h-64v64v64v64h-64v-64v-64v-64h64v-64h-64z" />
    <glyph glyph-name="afii10108" unicode="&#x45b;" 
d="M384 0h-64v64v64v64v64v64h-64h-64v-64v-64v-64v-64v-64h-64h-64h-64v64h64v64v64v64v64v64v64v64h-64v64h64v64h64h64v-64h64h64v-64h-64h-64v-64v-64h64h64h64v-64h64v-64v-64v-64v-64v-64h-64z" />
    <glyph glyph-name="afii10109" unicode="&#x45c;" 
d="M384 0h-64v64v64h-64v64h-64v-64v-64v-64h-64h-64h-64v64h64v64v64v64v64v64h-64v64h64h64h64v-64v-64h64v64h64v64h64h64v-64h-64v-64h-64v-64v-64h64v-64h64v-64v-64h-64zM256 512h-64v64h64v64h64h64v-64h-64v-64h-64z" />
    <glyph glyph-name="afii10110" unicode="&#x45e;" 
d="M320 -192h-64h-64h-64h-64v64h-64v64h64h64v-64h64h64h64v64v64v64h-64h-64h-64h-64v64h-64v64v64v64v64v64h64h64v-64v-64v-64v-64v-64h64h64h64v64v64v64v64v64h64h64v-64v-64v-64v-64v-64v-64v-64v-64v-64h-64v-64h-64zM320 448h-64h-64h-64v64h-64v64h64h64v-64h64
v64h64h64v-64h-64v-64z" />
    <glyph glyph-name="afii10193" unicode="&#x45f;" 
d="M192 -64v64h-64h-64h-64v64h64v64v64v64v64v64h-64v64h64h64h64v-64v-64v-64v-64v-64v-64h64v64v64v64v64v64v64h64h64h64v-64h-64v-64v-64v-64v-64v-64h64v-64h-64h-64h-64v-64h-64z" />
    <glyph glyph-name="uni048A" unicode="&#x48a;" 
d="M256 -192h-64v64h64v64h64v64v64v64v64v64v64h-64v-64h-64v-64h-64v-64v-64v-64h-64h-64v64v64v64v64v64v64v64v64v64v64h64h64v-64v-64v-64v-64v-64h64v64h64v64h64v64v64v64h64h64v-64v-64v-64v-64v-64v-64v-64v-64v-64v-64v-64h-64v-64h-64v-64h-64zM320 640h-64h-64
h-64v64h-64v64h64h64v-64h64v64h64h64v-64h-64v-64z" />
    <glyph glyph-name="uni048B" unicode="&#x48b;" 
d="M256 -192h-64v64h64v64h64v64v64v64v64v64h-64v-64h-64v-64h-64v-64v-64h-64h-64v64v64v64v64v64v64v64h64h64v-64v-64v-64v-64h64v64h64v64h64v64v64h64h64v-64v-64v-64v-64v-64v-64v-64v-64h-64v-64h-64v-64h-64zM320 448h-64h-64h-64v64h-64v64h64h64v-64h64v64h64h64
v-64h-64v-64z" />
    <glyph glyph-name="uni048C" unicode="&#x48c;" 
d="M320 0h-64h-64h-64h-64h-64v64h64v64v64v64v64v64v64h-64v64h64v64h-64v64h64h64h64h64v-64h-64v-64h64v-64h-64v-64h64h64h64v-64h64v-64v-64v-64v-64h-64v-64h-64zM256 64h64v64v64v64v64h-64h-64v-64v-64v-64v-64h64z" />
    <glyph glyph-name="uni048D" unicode="&#x48d;" 
d="M320 0h-64h-64h-64h-64h-64v64h64v64v64v64v64v64h-64v64h64v64v64v64h64h64v-64v-64v-64h64v-64h-64v-64v-64h64h64h64v-64h64v-64v-64h-64v-64h-64zM256 64h64v64v64h-64h-64v-64v-64h64z" />
    <glyph glyph-name="uni048E" unicode="&#x48e;" 
d="M384 128v64h64v-64h-64zM192 0h-64h-64h-64v64h64v64v64v64v64v64v64v64v64h-64v64h64h64h64h64h64h64v-64h64v-64v-64v-64v-64h-64v-64v-64h-64v64h-64h-64v-64v-64v-64h64v-64h-64zM256 320v64h64v64v64v64h-64h-64v-64v-64v-64v-64h64z" />
    <glyph glyph-name="uni048F" unicode="&#x48f;" 
d="M384 -192v64h-64v64v64h-64h-64v-64v-64h64v-64h-64h-64h-64h-64v64h64v64v64v64v64v64v64v64v64h-64v64h64h64v-64h64v64h64h64h64v-64h64v-64v-64v-64v-64v-64h-64v-64h64v-64v-64v-64h-64zM256 64h64v64v64v64v64v64h-64h-64v-64v-64v-64v-64v-64h64z" />
    <glyph glyph-name="afii10050" unicode="&#x490;" 
d="M192 0h-64h-64h-64v64h64v64v64v64v64v64v64v64h-64v64h64h64h64h64h64v64h64v64h64v-64v-64v-64h-64h-64h-64h-64v-64v-64v-64v-64v-64v-64v-64h64v-64h-64z" />
    <glyph glyph-name="afii10098" unicode="&#x491;" 
d="M192 0h-64h-64h-64v64h64v64v64v64v64v64h-64v64h64h64h64h64h64v64h64v64h64v-64v-64v-64h-64h-64h-64h-64v-64v-64v-64v-64v-64h64v-64h-64z" />
    <glyph glyph-name="uni04A4" unicode="&#x4a4;" 
d="M448 512v64h-64v-64v-64v-64v-64v-64v-64v-64v-64v-64h-64h-64v64v64v64v64v64h-64h-64v-64v-64v-64v-64v-64h-64h-64v64v64v64v64v64v64v64v64v64v64h64h64v-64v-64v-64v-64h64h64v64v64v64v64h64h64h64h64v-64v-64h-64z" />
    <glyph glyph-name="uni04A5" unicode="&#x4a5;" 
d="M448 320v64h-64v-64v-64v-64v-64v-64v-64h-64h-64v64v64v64h-64h-64v-64v-64v-64h-64h-64v64v64v64v64v64v64v64h64h64v-64v-64v-64h64h64v64v64v64h64h64h64h64v-64v-64h-64z" />
    <glyph glyph-name="uni04AA" unicode="&#x4aa;" 
d="M256 -128h-64v64v64h-64h-64v64h-64v64v64v64v64v64v64v64v64h64v64h64h64h64h64h64v-64h64v-64v-64h-64h-64v64v64h-64h-64h-64v-64v-64v-64v-64v-64v-64v-64v-64h64h64h64v64h64v64h64v-64v-64h-64v-64h-64v-64v-64h-64z" />
    <glyph glyph-name="uni04AB" unicode="&#x4ab;" 
d="M256 -128h-64v64v64h-64h-64v64h-64v64v64v64v64v64h64v64h64h64h64h64h64v-64h64v-64h-64h-64v64h-64h-64h-64v-64v-64v-64v-64v-64h64h64h64v64h64h64v-64h-64v-64h-64v-64v-64h-64z" />
    <glyph glyph-name="uni04C5" unicode="&#x4c5;" 
d="M320 -192h-64v64h64v64h64v64h-64h-64v64h64v64v64v64v64v64v64v64v64h-64v-64h-64v-64v-64v-64v-64v-64v-64v-64h-64v-64h-64h-64v64h64v64v64v64v64v64v64v64h64v64h64v64h64h64h64h64h64v-64h-64v-64v-64v-64v-64v-64v-64v-64v-64h64v-64v-64h-64v-64h-64v-64h-64z
" />
    <glyph glyph-name="uni04C6" unicode="&#x4c6;" 
d="M256 -192h-64v64h64v64h64v64v64v64v64v64v64v64h-64v-64h-64v-64v-64v-64v-64v-64h-64h-64h-64v64h64v64v64v64v64h64v64h64v64h64h64h64h64v-64v-64v-64v-64v-64v-64v-64v-64h-64v-64h-64v-64h-64z" />
    <glyph glyph-name="uni04C7" unicode="&#x4c7;" 
d="M320 -128h-64h-64h-64h-64v64h-64v64h64h64v-64h64h64h64v64v64v64v64v64v64h-64h-64h-64v-64v-64v-64v-64h-64h-64v64v64v64v64v64v64v64v64v64h64h64v-64v-64v-64v-64h64h64h64v64v64v64v64h64h64v-64v-64v-64v-64v-64v-64v-64v-64v-64v-64v-64h-64v-64h-64z" />
    <glyph glyph-name="uni04C8" unicode="&#x4c8;" 
d="M320 -128h-64h-64h-64h-64v64h64h64h64h64v64v64v64v64h-64h-64h-64v-64v-64v-64h-64h-64v64v64v64v64v64v64v64h64h64v-64v-64v-64h64h64h64v64v64v64h64h64v-64v-64v-64v-64v-64v-64v-64v-64h-64v-64h-64z" />
    <glyph glyph-name="uni04C9" unicode="&#x4c9;" 
d="M256 -192h-64v64h64v64h64v64v64v64v64v64v64h-64h-64h-64v-64v-64v-64v-64v-64h-64h-64v64v64v64v64v64v64v64v64v64v64h64h64v-64v-64v-64v-64h64h64h64v64v64v64v64h64h64v-64v-64v-64v-64v-64v-64v-64v-64v-64v-64v-64h-64v-64h-64v-64h-64z" />
    <glyph glyph-name="uni04CA" unicode="&#x4ca;" 
d="M256 -192h-64v64h64v64h64v64v64v64v64h-64h-64h-64v-64v-64v-64h-64h-64v64v64v64v64v64v64v64h64h64v-64v-64v-64h64h64h64v64v64v64h64h64v-64v-64v-64v-64v-64v-64v-64v-64h-64v-64h-64v-64h-64z" />
    <glyph glyph-name="uni04CD" unicode="&#x4cd;" 
d="M192 320v64h-64v-64v-64v-64v-64v-64v-64h-64h-64v64v64v64v64v64v64v64v64v64v64h64h64v-64h64v-64h64v64h64v64h64h64v-64v-64v-64v-64v-64v-64v-64v-64v-64v-64v-64h-64v-64h-64v-64h-64h-64v64h64v64h64v64v64v64v64v64v64v64h-64v-64h-64z" />
    <glyph glyph-name="uni04CE" unicode="&#x4ce;" 
d="M192 64v64v64h-64v-64v-64v-64h-64h-64v64v64v64v64v64v64v64h64h64v-64h64v-64h64v64h64v64h64h64v-64v-64v-64v-64v-64v-64v-64v-64h-64v-64h-64v-64h-64h-64v64h64v64h64v64v64v64v64h-64v-64v-64h-64z" />
    <glyph glyph-name="uni04D0" unicode="&#x4d0;" 
d="M384 0h-64v64v64v64h-64h-64h-64v-64v-64v-64h-64h-64v64v64v64v64v64v64h64v64h64v64h64v64h64h64h64h64v-64v-64v-64v-64v-64v-64v-64v-64v-64h-64zM256 256h64v64v64v64v64h-64v-64h-64v-64h-64v-64v-64h64h64zM320 640h-64h-64h-64h-64v64h-64v64h64h64v-64h64h64h64
v64h64h64v-64h-64v-64h-64z" />
    <glyph glyph-name="uni04D1" unicode="&#x4d1;" 
d="M384 0h-64v64h-64v64v64v64h-64h-64v-64v-64v-64h64h64v-64h-64h-64h-64v64h-64v64v64v64h64v64h64h64h64v64h-64h-64h-64v64h64h64h64h64v-64h64v-64v-64v-64v-64v-64h64v-64h-64zM256 512h-64h-64h-64v64h-64v64h64h64v-64h64h64v64h64h64v-64h-64v-64h-64z" />
    <glyph glyph-name="uni04D2" unicode="&#x4d2;" 
d="M384 0h-64v64v64v64h-64h-64h-64v-64v-64v-64h-64h-64v64v64v64v64v64v64h64v64h64v64h64v64h64h64h64h64v-64v-64v-64v-64v-64v-64v-64v-64v-64h-64zM256 256h64v64v64v64v64h-64v-64h-64v-64h-64v-64v-64h64h64zM384 640h-64v64v64h64h64v-64v-64h-64zM64 640h-64v64
v64h64h64v-64v-64h-64z" />
    <glyph glyph-name="uni04D3" unicode="&#x4d3;" 
d="M384 0h-64v64h-64v64v64v64h-64h-64v-64v-64v-64h64h64v-64h-64h-64h-64v64h-64v64v64v64h64v64h64h64h64v64h-64h-64h-64v64h64h64h64h64v-64h64v-64v-64v-64v-64v-64h64v-64h-64zM320 512h-64v64v64h64h64v-64v-64h-64zM64 512h-64v64v64h64h64v-64v-64h-64z" />
    <glyph glyph-name="uni04D6" unicode="&#x4d6;" 
d="M256 192v64h-64v-64v-64v-64h64h64v64h64v64h64v-64v-64v-64h-64h-64h-64h-64h-64h-64h-64v64h64v64v64v64v64v64v64v64h-64v64h64h64h64h64h64h64h64v-64v-64v-64h-64v64h-64v64h-64h-64v-64v-64v-64h64v64h64v-64v-64v-64h-64zM320 640h-64h-64h-64h-64v64h-64v64h64
h64v-64h64h64h64v64h64h64v-64h-64v-64h-64z" />
    <glyph glyph-name="uni04D7" unicode="&#x4d7;" 
d="M320 0h-64h-64h-64h-64v64h-64v64v64v64v64v64h64v64h64h64h64h64h64v-64h64v-64v-64v-64h-64h-64h-64h-64h-64v-64v-64h64h64h64v64h64h64v-64h-64v-64h-64zM256 256h64v64v64h-64h-64h-64v-64v-64h64h64zM320 512h-64h-64h-64h-64v64h-64v64h64h64v-64h64h64h64v64h64
h64v-64h-64v-64h-64z" />
    <glyph glyph-name="uni04DC" unicode="&#x4dc;" 
d="M192 0v64v64v64v64h-64v-64v-64v-64v-64h-64h-64v64v64v64v64h64v64h-64v64v64v64v64h64h64v-64v-64v-64v-64h64v64v64v64v64h64v-64v-64v-64v-64h64v64v64v64v64h64h64v-64v-64v-64v-64h-64v-64h64v-64v-64v-64v-64h-64h-64v64v64v64v64h-64v-64v-64v-64v-64h-64z
M384 640h-64v64v64h64h64v-64v-64h-64zM64 640h-64v64v64h64h64v-64v-64h-64z" />
    <glyph glyph-name="uni04DD" unicode="&#x4dd;" 
d="M192 0v64v64v64h-64v-64v-64v-64h-64h-64v64v64v64h64v64h-64v64v64v64h64h64v-64v-64v-64h64v64v64v64h64v-64v-64v-64h64v64v64v64h64h64v-64v-64v-64h-64v-64h64v-64v-64v-64h-64h-64v64v64v64h-64v-64v-64v-64h-64zM320 512h-64v64v64h64h64v-64v-64h-64zM128 512
h-64v64v64h64h64v-64v-64h-64z" />
    <glyph glyph-name="uni04DE" unicode="&#x4de;" 
d="M320 0h-64h-64h-64h-64v64h-64v64h64h64v-64h64h64h64v64v64v64h-64h-64h-64v64h64h64h64v64v64v64h-64h-64h-64v-64h-64h-64v64h64v64h64h64h64h64h64v-64h64v-64v-64v-64h-64v-64h64v-64v-64v-64h-64v-64h-64zM384 640h-64v64v64h64h64v-64v-64h-64zM64 640h-64v64v64
h64h64v-64v-64h-64z" />
    <glyph glyph-name="uni04DF" unicode="&#x4df;" 
d="M320 0h-64h-64h-64h-64v64h-64v64h64h64v-64h64h64h64v64v64h-64h-64h-64v64h64h64h64v64v64h-64h-64h-64v-64h-64h-64v64h64v64h64h64h64h64h64v-64h64v-64v-64h-64v-64h64v-64v-64h-64v-64h-64zM320 512h-64v64v64h64h64v-64v-64h-64zM128 512h-64v64v64h64h64v-64v-64
h-64z" />
    <glyph glyph-name="uni04E4" unicode="&#x4e4;" 
d="M384 0h-64v64v64v64v64v64h-64v-64h-64v-64h-64v-64v-64v-64h-64h-64v64v64v64v64v64v64v64v64v64h64h64v-64v-64v-64v-64v-64h64v64h64v64h64v64v64v64h64h64v-64v-64v-64v-64v-64v-64v-64v-64v-64h-64zM384 640h-64v64v64h64h64v-64v-64h-64zM64 640h-64v64v64h64h64
v-64v-64h-64z" />
    <glyph glyph-name="uni04E5" unicode="&#x4e5;" 
d="M384 0h-64v64v64v64v64h-64v-64h-64v-64h-64v-64v-64h-64h-64v64v64v64v64v64v64v64h64h64v-64v-64v-64v-64h64v64h64v64h64v64v64h64h64v-64v-64v-64v-64v-64v-64v-64h-64zM384 512h-64v64v64h64h64v-64v-64h-64zM64 512h-64v64v64h64h64v-64v-64h-64z" />
    <glyph glyph-name="uni04E6" unicode="&#x4e6;" 
d="M320 0h-64h-64h-64h-64v64h-64v64v64v64v64v64v64v64h64v64h64h64h64h64h64v-64h64v-64v-64v-64v-64v-64v-64v-64h-64v-64h-64zM256 64h64v64v64v64v64v64v64v64h-64h-64h-64v-64v-64v-64v-64v-64v-64v-64h64h64zM384 640h-64v64v64h64h64v-64v-64h-64zM64 640h-64v64v64
h64h64v-64v-64h-64z" />
    <glyph glyph-name="uni04E7" unicode="&#x4e7;" 
d="M320 0h-64h-64h-64h-64v64h-64v64v64v64v64v64h64v64h64h64h64h64h64v-64h64v-64v-64v-64v-64v-64h-64v-64h-64zM256 64h64v64v64v64v64v64h-64h-64h-64v-64v-64v-64v-64v-64h64h64zM320 576h64v-64h-64h-64v64h64zM128 576h64v-64h-64h-64v64h64z" />
    <glyph glyph-name="uni04EC" unicode="&#x4ec;" 
d="M128 192v64v64v64h64v-64h64h64v64v64v64h-64h-64h-64v-64h-64h-64v64h64v64h64h64h64h64h64v-64h64v-64v-64v-64v-64v-64v-64v-64h-64v-64h-64h-64h-64h-64h-64v64h-64v64h64h64v-64h64h64h64v64v64v64h-64h-64v-64h-64zM384 640h-64v64v64h64h64v-64v-64h-64zM64 640
h-64v64v64h64h64v-64v-64h-64z" />
    <glyph glyph-name="uni04ED" unicode="&#x4ed;" 
d="M320 0h-64h-64h-64h-64v64h-64v64h64h64v-64h64h64h64v64v64h-64h-64h-64v64h64h64h64v64v64h-64h-64h-64v-64h-64h-64v64h64v64h64h64h64h64h64v-64h64v-64v-64v-64v-64v-64h-64v-64h-64zM320 512h-64v64v64h64h64v-64v-64h-64zM128 512h-64v64v64h64h64v-64v-64h-64z
" />
    <glyph glyph-name="uni04F0" unicode="&#x4f0;" 
d="M320 0h-64h-64h-64h-64v64h-64v64h64h64v-64h64h64h64v64v64h-64h-64h-64h-64v64h-64v64v64v64v64v64h64h64v-64v-64v-64v-64v-64h64h64h64v64v64v64v64v64h64h64v-64v-64v-64v-64v-64v-64v-64v-64h-64v-64h-64zM384 640h-64v64v64h64h64v-64v-64h-64zM64 640h-64v64v64
h64h64v-64v-64h-64z" />
    <glyph glyph-name="uni04F1" unicode="&#x4f1;" 
d="M320 -192h-64h-64h-64h-64v64h-64v64h64h64v-64h64h64h64v64v64v64h-64h-64h-64h-64v64h-64v64v64v64v64v64h64h64v-64v-64v-64v-64v-64h64h64h64v64v64v64v64v64h64h64v-64v-64v-64v-64v-64v-64v-64v-64v-64h-64v-64h-64zM384 512h-64v64v64h64h64v-64v-64h-64zM64 512
h-64v64v64h64h64v-64v-64h-64z" />
    <glyph glyph-name="uni04F4" unicode="&#x4f4;" 
d="M384 0h-64v64v64v64h-64h-64h-64h-64v64h-64v64v64v64v64v64h64h64v-64v-64v-64v-64v-64h64h64h64v64v64v64v64v64h64h64v-64v-64v-64v-64v-64v-64v-64v-64v-64h-64zM384 640h-64v64v64h64h64v-64v-64h-64zM64 640h-64v64v64h64h64v-64v-64h-64z" />
    <glyph glyph-name="uni04F5" unicode="&#x4f5;" 
d="M384 0h-64v64v64v64h-64h-64h-64h-64v64h-64v64v64v64h64h64v-64v-64v-64h64h64h64v64v64v64h64h64v-64v-64v-64v-64v-64v-64v-64h-64zM320 512h-64v64v64h64h64v-64v-64h-64zM128 512h-64v64v64h64h64v-64v-64h-64z" />
    <glyph glyph-name="uni04F8" unicode="&#x4f8;" 
d="M448 0h-64v64v64v64v64v64v64v64v64v64h64h64v-64v-64v-64v-64v-64v-64v-64v-64v-64h-64zM192 0h-64h-64h-64v64v64v64v64v64v64v64v64v64h64h64v-64v-64v-64v-64h64h64v-64h64v-64v-64v-64h-64v-64h-64zM192 64v64v64v64h-64v-64v-64v-64h64zM384 640h-64v64v64h64h64
v-64v-64h-64zM128 640h-64v64v64h64h64v-64v-64h-64z" />
    <glyph glyph-name="uni04F9" unicode="&#x4f9;" 
d="M384 0h-64v64h-64v-64h-64h-64h-64h-64v64v64v64v64v64v64v64h64h64v-64v-64v-64h64h64v-64h64v64v64v64v64h64h64v-64v-64v-64v-64v-64v-64v-64h-64zM192 64v64v64h-64v-64v-64h64zM384 512h-64v64v64h64h64v-64v-64h-64zM64 512h-64v64v64h64h64v-64v-64h-64z" />
    <glyph glyph-name="uni1EBC" unicode="&#x1ebc;" 
d="M256 192v64h-64v-64v-64v-64h64h64v64h64v64h64v-64v-64v-64h-64h-64h-64h-64h-64h-64h-64v64h64v64v64v64v64v64v64v64h-64v64h64h64h64h64h64h64h64v-64v-64v-64h-64v64h-64v64h-64h-64v-64v-64v-64h64v64h64v-64v-64v-64h-64zM320 640h-64h-64v64h-64v-64h-64h-64v64
h64v64h64h64h64v-64h64v64h64h64v-64h-64v-64h-64z" />
    <glyph glyph-name="uni1EBD" unicode="&#x1ebd;" 
d="M320 0h-64h-64h-64h-64v64h-64v64v64v64v64v64h64v64h64h64h64h64h64v-64h64v-64v-64h-64h-64h-64h-64h-64v-64v-64v-64h64h64h64v64h64h64v-64h-64v-64h-64zM256 320h64v64h-64h-64h-64v-64h64h64zM320 512h-64h-64v64h-64v-64h-64h-64v64h64v64h64h64h64v-64h64v64h64
h64v-64h-64v-64h-64z" />
    <glyph glyph-name="uni1EF8" unicode="&#x1ef8;" 
d="M320 0h-64h-64h-64v64h64v64v64v64h-64v64h-64v64v64v64v64h64h64v-64v-64v-64v-64h64h64v64v64v64v64h64h64v-64v-64v-64v-64h-64v-64h-64v-64v-64v-64h64v-64h-64zM320 640h-64h-64v64h-64v-64h-64h-64v64h64v64h64h64h64v-64h64v64h64h64v-64h-64v-64h-64z" />
    <glyph glyph-name="uni1EF9" unicode="&#x1ef9;" 
d="M256 -192h-64h-64h-64h-64v64h64h64h64h64v64h64v64h-64h-64h-64h-64v64h-64v64v64v64v64v64v64h64h64v-64v-64v-64v-64v-64v-64h64h64h64v64v64v64v64v64v64h64h64v-64v-64v-64v-64v-64v-64v-64v-64h-64v-64h-64v-64h-64zM320 512h-64h-64v64h-64v-64h-64h-64v64h64v64
h64h64h64v-64h64v64h64h64v-64h-64v-64h-64z" />
    <glyph glyph-name="uni2000" unicode="&#x2000;" 
 />
    <glyph glyph-name="uni2001" unicode="&#x2001;" 
 />
    <glyph glyph-name="uni2002" unicode="&#x2002;" 
 />
    <glyph glyph-name="uni2003" unicode="&#x2003;" 
 />
    <glyph glyph-name="uni2004" unicode="&#x2004;" 
 />
    <glyph glyph-name="uni2005" unicode="&#x2005;" 
 />
    <glyph glyph-name="uni2006" unicode="&#x2006;" 
 />
    <glyph glyph-name="uni2007" unicode="&#x2007;" 
 />
    <glyph glyph-name="uni2008" unicode="&#x2008;" 
 />
    <glyph glyph-name="uni2009" unicode="&#x2009;" 
 />
    <glyph glyph-name="uni200A" unicode="&#x200a;" 
 />
    <glyph glyph-name="endash" unicode="&#x2013;" 
d="M384 384h64v-64h-64h-64h-64h-64h-64h-64v64h64h64h64h64h64z" />
    <glyph glyph-name="emdash" unicode="&#x2014;" 
d="M448 384h64v-64h-64h-64h-64h-64h-64h-64h-64v64h64h64h64h64h64h64z" />
    <glyph glyph-name="underscoredbl" unicode="&#x2017;" 
d="M448 -64h64v-64h-64h-64h-64h-64h-64h-64h-64h-64v64h64h64h64h64h64h64h64zM448 64h64v-64h-64h-64h-64h-64h-64h-64h-64h-64v64h64h64h64h64h64h64h64z" />
    <glyph glyph-name="quoteleft" unicode="&#x2018;" 
d="M256 448h-64v64v64h64v64h64h64v-64h-64v-64v-64h-64z" />
    <glyph glyph-name="quoteright" unicode="&#x2019;" 
d="M256 448h-64v64h64v64v64h64h64v-64v-64h-64v-64h-64z" />
    <glyph glyph-name="quotesinglbase" unicode="&#x201a;" 
d="M256 -64h-64v64h64v64v64h64h64v-64v-64h-64v-64h-64z" />
    <glyph glyph-name="quotedblleft" unicode="&#x201c;" 
d="M320 512h-64v64h64v64h64v64h64h64v-64h-64v-64h-64v-64h-64zM128 512h-64v64h64v64h64v64h64h64v-64h-64v-64h-64v-64h-64z" />
    <glyph glyph-name="quotedblright" unicode="&#x201d;" 
d="M320 512h-64v64h64v64h64v64h64h64v-64h-64v-64h-64v-64h-64zM128 512h-64v64h64v64h64v64h64h64v-64h-64v-64h-64v-64h-64z" />
    <glyph glyph-name="quotedblbase" unicode="&#x201e;" 
d="M320 -64h-64v64h64v64h64v64h64h64v-64h-64v-64h-64v-64h-64zM128 -64h-64v64h64v64h64v64h64h64v-64h-64v-64h-64v-64h-64z" />
    <glyph glyph-name="bullet" unicode="&#x2022;" 
d="M256 128h-64v64h-64v64v64h64v64h64h64v-64h64v-64v-64h-64v-64h-64z" />
    <glyph glyph-name="ellipsis" unicode="&#x2026;" 
d="M448 0h-64v64v64h64h64v-64v-64h-64zM256 0h-64v64v64h64h64v-64v-64h-64zM64 0h-64v64v64h64h64v-64v-64h-64z" />
    <glyph glyph-name="perthousand" unicode="&#x2030;" 
d="M0 0v64v64h64v64h64v64h64v64h64v64h64v64h64h64v-64h-64v-64h-64v-64h-64v-64h-64v-64h64h64v-64v-64h-64h-64v64v64h-64v-64h-64v-64h-64zM448 0h-64v64v64h64h64v-64v-64h-64zM64 320h-64v64v64h64h64v-64v-64h-64z" />
    <glyph glyph-name="exclamdbl" unicode="&#x203c;" 
d="M384 0h-64v64v64h64h64v-64v-64h-64zM128 0h-64v64v64h64h64v-64v-64h-64zM384 192h-64v64v64v64v64v64v64v64h64h64v-64v-64v-64v-64v-64v-64v-64h-64zM128 192h-64v64v64v64v64v64v64v64h64h64v-64v-64v-64v-64v-64v-64v-64h-64z" />
    <glyph glyph-name="fraction" unicode="&#x2044;" 
d="M0 0v64v64h64v64h64v64h64v64h64v64h64v64h64v64h64v-64v-64h-64v-64h-64v-64h-64v-64h-64v-64h-64v-64h-64v-64h-64z" />
    <glyph glyph-name="uni207F" unicode="&#x207f;" 
d="M384 320h-64v64v64v64v64v64h-64v-64v-64v-64v-64v-64h-64h-64v64v64v64v64v64h-64v64h64h64v-64h64v64h64h64v-64h64v-64v-64v-64v-64v-64h-64z" />
    <glyph glyph-name="peseta" unicode="&#x20a7;" 
d="M384 0h-64v64h-64v64v64v64h-64v64h64v64h64v64h64v-64v-64h64v-64h-64v-64v-64v-64h64v-64h-64zM64 0h-64v64v64v64v64v64v64v64v64v64v64v64h64h64h64h64h64v-64h64v-64v-64h-64v-64h-64h-64h-64v-64v-64v-64v-64v-64v-64v-64h-64zM192 512h64v64v64h-64h-64v-64v-64
h64z" />
    <glyph glyph-name="Euro" unicode="&#x20ac;" 
d="M384 0h-64h-64h-64v64h-64v64h-64v64h-64v64h64v64h-64v64h64v64h64v64h64v64h64h64h64h64v-64h64v-64h-64h-64v64h-64h-64v-64h-64v-64h64h64h64v-64h-64h-64h-64v-64h64h64v-64h-64h-64v-64h64v-64h64h64v64h64h64v-64h-64v-64h-64z" />
    <glyph glyph-name="afii61289" unicode="&#x2113;" 
d="M64 64v64h64v-64h-64zM320 0h-64v64h-64v64h-64v64v64h-64v64v64v64h64v64h64v64h64v-64h64v-64h64v-64v-64v-64h-64v-64h-64v-64h64v-64h64v-64h-64zM384 64v64h64v-64h-64zM256 256v64v64v64h-64v-64v-64v-64h64z" />
    <glyph glyph-name="afii61352" unicode="&#x2116;" 
d="M320 0h-64v64v64v64h-64v64v64h-64v-64v-64v-64v-64v-64h-64h-64v64v64v64v64v64v64v64v64v64v64h64h64v-64v-64h64v-64v-64h64v64v64v64v64h64h64h64h64v-64v-64v-64h-64h-64v-64h64h64v-64h-64h-64v-64v-64v-64v-64v-64h-64zM448 512v64h-64v-64h64z" />
    <glyph glyph-name="trademark" unicode="&#x2122;" 
d="M448 320v64v64v64h-64v-64h-64v64h64v64h64v64h64v-64v-64v-64v-64v-64h-64zM192 320v64v64v64v64h-64v-64v-64v-64v-64h-64v64v64v64v64h-64v64h64h64h64h64v-64h64v-64h-64v-64v-64v-64h-64z" />
    <glyph glyph-name="arrowleft" unicode="&#x2190;" 
d="M256 128h-64v64h-64v64h-64v64h64v64h64v64h64h64v-64h-64v-64h64h64h64h64v-64h-64h-64h-64h-64v-64h64v-64h-64z" />
    <glyph glyph-name="arrowup" unicode="&#x2191;" 
d="M256 0h-64v64v64v64v64v64v64h-64h-64v64h64v64h64v64h64h64v-64h64v-64h64v-64h-64h-64v-64v-64v-64v-64v-64v-64h-64z" />
    <glyph glyph-name="arrowright" unicode="&#x2192;" 
d="M320 128h-64v64h64v64h-64h-64h-64h-64v64h64h64h64h64v64h-64v64h64h64v-64h64v-64h64v-64h-64v-64h-64v-64h-64z" />
    <glyph glyph-name="arrowdown" unicode="&#x2193;" 
d="M256 0h-64v64h-64v64h-64v64h64h64v64v64v64v64v64v64h64h64v-64v-64v-64v-64v-64v-64h64h64v-64h-64v-64h-64v-64h-64z" />
    <glyph glyph-name="arrowboth" unicode="&#x2194;" 
d="M320 64v64v64h-64v-64v-64h-64v64h-64v64h-64v64h64v64h64v64h64v-64v-64h64v64v64h64v-64h64v-64h64v-64h-64v-64h-64v-64h-64z" />
    <glyph glyph-name="arrowupdn" unicode="&#x2195;" 
d="M256 0h-64v64h-64v64h-64v64h64h64v64v64v64h-64h-64v64h64v64h64v64h64h64v-64h64v-64h64v-64h-64h-64v-64v-64v-64h64h64v-64h-64v-64h-64v-64h-64z" />
    <glyph glyph-name="arrowupdnbse" unicode="&#x21a8;" 
d="M384 0h64v-64h-64h-64h-64h-64h-64h-64v64h64h64v64h-64v64h-64v64h64h64v64v64v64h-64h-64v64h64v64h64v64h64h64v-64h64v-64h64v-64h-64h-64v-64v-64v-64h64h64v-64h-64v-64h-64v-64h64z" />
    <glyph glyph-name="partialdiff" unicode="&#x2202;" 
d="M256 0h-64h-64h-64v64h-64v64v64v64h64v64h64v64h64h64h64v64v64h-64v64h-64v-64h-64h-64v64h64v64h64h64h64v-64h64v-64h64v-64v-64v-64v-64v-64v-64h-64v-64h-64v-64h-64zM192 64h64v64h64v64v64v64h-64h-64v-64h-64v-64v-64v-64h64z" />
    <glyph glyph-name="emptyset" unicode="&#x2205;" 
d="M0 -128v64v64h64v64h-64v64v64v64v64v64h64v64h64h64h64h64v64h64v64h64v-64v-64h-64v-64h64v-64v-64v-64v-64v-64h-64v-64h-64h-64h-64h-64v-64h-64v-64h-64zM256 64h64v64v64v64h-64v-64v-64h-64v-64h64zM192 192v64v64h64v64h-64h-64v-64v-64v-64h64z" />
    <glyph glyph-name="element" unicode="&#x2208;" 
d="M320 64h64v-64h-64h-64h-64v64h-64v64h-64v64v64v64v64v64v64h64v64h64v64h64h64h64v-64h-64h-64v-64h-64v-64v-64h64h64h64v-64h-64h-64h-64v-64v-64v-64h64v-64h64z" />
    <glyph glyph-name="product" unicode="&#x220f;" 
d="M384 -128h-64v64v64v64v64v64v64v64v64v64v64v64h-64h-64h-64v-64v-64v-64v-64v-64v-64v-64v-64v-64v-64v-64h-64h-64v64v64v64v64v64v64v64v64v64v64v64v64h64h64h64h64h64h64h64v-64v-64v-64v-64v-64v-64v-64v-64v-64v-64v-64v-64h-64z" />
    <glyph glyph-name="summation" unicode="&#x2211;" 
d="M384 0h-64h-64h-64h-64h-64h-64v64v64h64v64h64v64h64v64h-64v64h-64v64h-64v64v64h64h64h64h64h64h64h64v-64v-64h-64h-64v64h-64h-64h-64v-64h64v-64h64v-64h64v-64h-64v-64h-64v-64h-64v-64h64h64h64v64h64h64v-64v-64h-64z" />
    <glyph glyph-name="uni2219" unicode="&#x2219;" 
d="M256 192h-64v64v64h64h64v-64v-64h-64z" />
    <glyph glyph-name="radical" unicode="&#x221a;" 
d="M320 0h-64h-64v64h-64v64h-64v64v64h-64v64h64h64h64v-64v-64v-64h64v64v64v64v64v64v64v64v64v64h64h64h64h64v-64h-64h-64v-64v-64v-64v-64v-64v-64v-64v-64v-64v-64h-64z" />
    <glyph glyph-name="infinity" unicode="&#x221e;" 
d="M384 128h-64h-64h-64h-64h-64v64h-64v64v64v64h64v64h64h64h64h64h64h64v-64h64h64v-64v-64v-64h-64h-64v-64h-64zM384 192v64v64v64h-64v-64v-64v-64h64zM192 192v64v64v64h-64v-64v-64v-64h64z" />
    <glyph glyph-name="orthogonal" unicode="&#x221f;" 
d="M448 192h64v-64h-64h-64h-64h-64h-64h-64h-64v64v64v64v64h64h64v-64v-64v-64h64h64h64h64z" />
    <glyph glyph-name="intersection" unicode="&#x2229;" 
d="M384 0h-64v64v64v64v64v64v64v64v64h-64h-64h-64v-64v-64v-64v-64v-64v-64v-64v-64h-64h-64v64v64v64v64v64v64v64v64h64v64h64h64h64h64h64v-64h64v-64v-64v-64v-64v-64v-64v-64v-64h-64z" />
    <glyph glyph-name="integral" unicode="&#x222b;" 
d="M192 -256h-64h-64v64h-64v64v64v64h64h64v-64v-64v-64h64v64v64v64v64v64v64v64v64v64v64v64v64v64v64h64v64h64h64h64v-64h64v-64v-64h-64h-64v64v64h-64v-64v-64v-64v-64v-64v-64v-64v-64v-64v-64v-64v-64v-64v-64h-64v-64h-64z" />
    <glyph glyph-name="approxequal" unicode="&#x2248;" 
d="M320 128h-64h-64v64h-64v-64h-64h-64v64h64v64h64h64h64v-64h64v64h64h64v-64h-64v-64h-64zM320 320h-64h-64v64h-64v-64h-64h-64v64h64v64h64h64h64v-64h64v64h64h64v-64h-64v-64h-64z" />
    <glyph glyph-name="notequal" unicode="&#x2260;" 
d="M64 0v64h64v-64h-64zM128 64v64h-64v64h64h64v64h64v-64h64h64h64v-64h-64h-64h-64h-64v-64h-64zM256 256v64h-64h-64h-64v64h64h64h64h64v64h64v-64h64v-64h-64h-64v-64h-64zM384 448v64h64v-64h-64z" />
    <glyph glyph-name="equivalence" unicode="&#x2261;" 
d="M384 128h64v-64h-64h-64h-64h-64h-64h-64h-64v64h64h64h64h64h64h64zM384 320h64v-64h-64h-64h-64h-64h-64h-64h-64v64h64h64h64h64h64h64zM384 512h64v-64h-64h-64h-64h-64h-64h-64h-64v64h64h64h64h64h64h64z" />
    <glyph glyph-name="lessequal" unicode="&#x2264;" 
d="M384 64h64v-64h-64h-64h-64h-64h-64h-64v64h64h64h64h64h64zM320 128h-64v64h-64v64h-64v64h-64v64h64v64h64v64h64v64h64h64v-64h-64v-64h-64v-64h-64v-64h64v-64h64v-64h64v-64h-64z" />
    <glyph glyph-name="greaterequal" unicode="&#x2265;" 
d="M384 64h64v-64h-64h-64h-64h-64h-64h-64v64h64h64h64h64h64zM192 128h-64v64h64v64h64v64h64v64h-64v64h-64v64h-64v64h64h64v-64h64v-64h64v-64h64v-64h-64v-64h-64v-64h-64v-64h-64z" />
    <glyph glyph-name="uni22C2" unicode="&#x22c2;" 
d="M384 0h-64v64v64v64v64v64v64v64v64h-64h-64h-64v-64v-64v-64v-64v-64v-64v-64v-64h-64h-64v64v64v64v64v64v64v64v64h64v64h64h64h64h64h64v-64h64v-64v-64v-64v-64v-64v-64v-64v-64h-64z" />
    <glyph glyph-name="uni2300" unicode="&#x2300;" 
d="M320 0h-64h-64h-64h-64v64h-64v64v64v64v64v64v64v64v64h64v64h64h64h64h64h64v-64h64v-64v-64v-64v-64v-64v-64v-64v-64h-64v-64h-64zM256 64h64v64v64v64v64h-64v-64h-64v-64h-64v-64v-64h64h64zM192 320v64h64v64h64v64v64h-64h-64h-64v-64v-64v-64v-64h64z" />
    <glyph glyph-name="revlogicalnot" unicode="&#x2310;" 
d="M64 64h-64v64v64v64v64v64h64h64h64h64h64h64h64v-64h-64h-64h-64h-64h-64v-64v-64v-64v-64h-64z" />
    <glyph glyph-name="integraltp" unicode="&#x2320;" 
d="M256 -256h-64v64v64v64v64v64v64v64v64v64v64v64v64v64h64v64h64h64h64v-64h64v-64v-64h-64h-64v64v64h-64v-64v-64v-64v-64v-64v-64v-64v-64v-64v-64v-64v-64v-64h-64z" />
    <glyph glyph-name="integralbt" unicode="&#x2321;" 
d="M192 -64h-64h-64v64h-64v64v64h64h64v-64v-64h64v64v64v64v64v64v64v64v64v64v64v64v64h64h64v-64v-64v-64v-64v-64v-64v-64v-64v-64v-64v-64v-64h-64v-64h-64z" />
    <glyph glyph-name="uni23AE" unicode="&#x23ae;" 
d="M512 -256h-64v64v64v64v64v64v64v64v64v64v64v64v64v64v64v64v64h64h64v-64v-64v-64v-64v-64v-64v-64v-64v-64v-64v-64v-64v-64v-64v-64v-64h-64z" />
    <glyph glyph-name="SF100000" unicode="&#x2500;" 
d="M512 320h64v-64h-64h-64h-64h-64h-64h-64h-64h-64h-64v64h64h64h64h64h64h64h64h64z" />
    <glyph glyph-name="SF110000" unicode="&#x2502;" 
d="M256 -256h-64v64v64v64v64v64v64v64v64v64v64v64v64v64v64v64v64h64h64v-64v-64v-64v-64v-64v-64v-64v-64v-64v-64v-64v-64v-64v-64v-64v-64h-64z" />
    <glyph glyph-name="SF010000" unicode="&#x250c;" 
d="M256 -256h-64v64v64v64v64v64v64v64v64v64h64h64h64h64h64h64v-64h-64h-64h-64h-64v-64v-64v-64v-64v-64v-64v-64v-64h-64z" />
    <glyph glyph-name="SF030000" unicode="&#x2510;" 
d="M256 -256h-64v64v64v64v64v64v64v64v64h-64h-64h-64v64h64h64h64h64h64v-64v-64v-64v-64v-64v-64v-64v-64v-64h-64z" />
    <glyph glyph-name="SF020000" unicode="&#x2514;" 
d="M512 320h64v-64h-64h-64h-64h-64h-64h-64v64v64v64v64v64v64v64v64h64h64v-64v-64v-64v-64v-64v-64v-64h64h64h64z" />
    <glyph glyph-name="SF040000" unicode="&#x2518;" 
d="M256 256h-64h-64h-64h-64v64h64h64h64v64v64v64v64v64v64v64h64h64v-64v-64v-64v-64v-64v-64v-64v-64h-64z" />
    <glyph glyph-name="SF080000" unicode="&#x251c;" 
d="M256 -256h-64v64v64v64v64v64v64v64v64v64v64v64v64v64v64v64v64h64h64v-64v-64v-64v-64v-64v-64v-64h64h64h64h64v-64h-64h-64h-64h-64v-64v-64v-64v-64v-64v-64v-64v-64h-64z" />
    <glyph glyph-name="SF090000" unicode="&#x2524;" 
d="M256 -256h-64v64v64v64v64v64v64v64v64h-64h-64h-64v64h64h64h64v64v64v64v64v64v64v64h64h64v-64v-64v-64v-64v-64v-64v-64v-64v-64v-64v-64v-64v-64v-64v-64v-64h-64z" />
    <glyph glyph-name="SF060000" unicode="&#x252c;" 
d="M256 -256h-64v64v64v64v64v64v64v64v64h-64h-64h-64v64h64h64h64h64h64h64h64h64h64v-64h-64h-64h-64h-64v-64v-64v-64v-64v-64v-64v-64v-64h-64z" />
    <glyph glyph-name="SF070000" unicode="&#x2534;" 
d="M512 320h64v-64h-64h-64h-64h-64h-64h-64h-64h-64h-64v64h64h64h64v64v64v64v64v64v64v64h64h64v-64v-64v-64v-64v-64v-64v-64h64h64h64z" />
    <glyph glyph-name="SF050000" unicode="&#x253c;" 
d="M256 -256h-64v64v64v64v64v64v64v64v64h-64h-64h-64v64h64h64h64v64v64v64v64v64v64v64h64h64v-64v-64v-64v-64v-64v-64v-64h64h64h64h64v-64h-64h-64h-64h-64v-64v-64v-64v-64v-64v-64v-64v-64h-64z" />
    <glyph glyph-name="SF430000" unicode="&#x2550;" 
d="M512 320h64v-64h-64h-64h-64h-64h-64h-64h-64h-64h-64v64h64h64h64h64h64h64h64h64zM512 448h64v-64h-64h-64h-64h-64h-64h-64h-64h-64h-64v64h64h64h64h64h64h64h64h64z" />
    <glyph glyph-name="SF240000" unicode="&#x2551;" 
d="M384 -256h-64v64v64v64v64v64v64v64v64v64v64v64v64v64v64v64v64h64h64v-64v-64v-64v-64v-64v-64v-64v-64v-64v-64v-64v-64v-64v-64v-64v-64h-64zM192 -256h-64v64v64v64v64v64v64v64v64v64v64v64v64v64v64v64v64h64h64v-64v-64v-64v-64v-64v-64v-64v-64v-64v-64v-64v-64
v-64v-64v-64v-64h-64z" />
    <glyph glyph-name="SF510000" unicode="&#x2552;" 
d="M256 -256h-64v64v64v64v64v64v64v64v64v64v64v64h64h64h64h64h64h64v-64h-64h-64h-64h-64v-64h64h64h64h64v-64h-64h-64h-64h-64v-64v-64v-64v-64v-64v-64v-64v-64h-64z" />
    <glyph glyph-name="SF520000" unicode="&#x2553;" 
d="M384 -256h-64v64v64v64v64v64v64v64v64h-64v-64v-64v-64v-64v-64v-64v-64v-64h-64h-64v64v64v64v64v64v64v64v64v64h64h64h64h64h64h64h64v-64h-64h-64v-64v-64v-64v-64v-64v-64v-64v-64h-64z" />
    <glyph glyph-name="SF390000" unicode="&#x2554;" 
d="M384 -256h-64v64v64v64v64v64v64v64v64v64h64h64h64h64v-64h-64h-64v-64v-64v-64v-64v-64v-64v-64v-64h-64zM192 -256h-64v64v64v64v64v64v64v64v64v64v64v64h64h64h64h64h64h64h64v-64h-64h-64h-64h-64h-64v-64v-64v-64v-64v-64v-64v-64v-64v-64v-64h-64z" />
    <glyph glyph-name="SF220000" unicode="&#x2555;" 
d="M256 -256h-64v64v64v64v64v64v64v64v64h-64h-64h-64v64h64h64h64v64h-64h-64h-64v64h64h64h64h64h64v-64v-64v-64v-64v-64v-64v-64v-64v-64v-64v-64h-64z" />
    <glyph glyph-name="SF210000" unicode="&#x2556;" 
d="M384 -256h-64v64v64v64v64v64v64v64v64h-64v-64v-64v-64v-64v-64v-64v-64v-64h-64h-64v64v64v64v64v64v64v64v64h-64h-64v64h64h64h64h64h64h64h64v-64v-64v-64v-64v-64v-64v-64v-64v-64h-64z" />
    <glyph glyph-name="SF250000" unicode="&#x2557;" 
d="M384 -256h-64v64v64v64v64v64v64v64v64v64v64h-64h-64h-64h-64h-64v64h64h64h64h64h64h64h64v-64v-64v-64v-64v-64v-64v-64v-64v-64v-64v-64h-64zM192 -256h-64v64v64v64v64v64v64v64v64h-64h-64v64h64h64h64h64v-64v-64v-64v-64v-64v-64v-64v-64v-64h-64z" />
    <glyph glyph-name="SF500000" unicode="&#x2558;" 
d="M512 320h64v-64h-64h-64h-64h-64h-64h-64v64v64v64v64v64v64v64v64h64h64v-64v-64v-64v-64v-64h64h64h64h64v-64h-64h-64h-64h-64v-64h64h64h64z" />
    <glyph glyph-name="SF490000" unicode="&#x2559;" 
d="M512 320h64v-64h-64h-64h-64h-64h-64h-64h-64v64v64v64v64v64v64v64v64h64h64v-64v-64v-64v-64v-64v-64v-64h64v64v64v64v64v64v64v64h64h64v-64v-64v-64v-64v-64v-64v-64h64z" />
    <glyph glyph-name="SF380000" unicode="&#x255a;" 
d="M512 320h64v-64h-64h-64h-64h-64h-64h-64h-64v64v64v64v64v64v64v64v64h64h64v-64v-64v-64v-64v-64v-64v-64h64h64h64h64zM512 448h64v-64h-64h-64h-64h-64v64v64v64v64v64v64h64h64v-64v-64v-64v-64v-64h64z" />
    <glyph glyph-name="SF280000" unicode="&#x255b;" 
d="M256 256h-64h-64h-64h-64v64h64h64h64v64h-64h-64h-64v64h64h64h64v64v64v64v64v64h64h64v-64v-64v-64v-64v-64v-64v-64v-64h-64z" />
    <glyph glyph-name="SF270000" unicode="&#x255c;" 
d="M384 256h-64h-64h-64h-64h-64h-64v64h64h64v64v64v64v64v64v64v64h64h64v-64v-64v-64v-64v-64v-64v-64h64v64v64v64v64v64v64v64h64h64v-64v-64v-64v-64v-64v-64v-64v-64h-64z" />
    <glyph glyph-name="SF260000" unicode="&#x255d;" 
d="M384 256h-64h-64h-64h-64h-64h-64v64h64h64h64h64h64v64v64v64v64v64v64v64h64h64v-64v-64v-64v-64v-64v-64v-64v-64h-64zM192 384h-64h-64h-64v64h64h64v64v64v64v64v64h64h64v-64v-64v-64v-64v-64v-64h-64z" />
    <glyph glyph-name="SF360000" unicode="&#x255e;" 
d="M256 -256h-64v64v64v64v64v64v64v64v64v64v64v64v64v64v64v64v64h64h64v-64v-64v-64v-64v-64h64h64h64h64v-64h-64h-64h-64h-64v-64h64h64h64h64v-64h-64h-64h-64h-64v-64v-64v-64v-64v-64v-64v-64v-64h-64z" />
    <glyph glyph-name="SF370000" unicode="&#x255f;" 
d="M384 -256h-64v64v64v64v64v64v64v64v64v64v64v64v64v64v64v64v64h64h64v-64v-64v-64v-64v-64v-64v-64h64h64v-64h-64h-64v-64v-64v-64v-64v-64v-64v-64v-64h-64zM192 -256h-64v64v64v64v64v64v64v64v64v64v64v64v64v64v64v64v64h64h64v-64v-64v-64v-64v-64v-64v-64v-64
v-64v-64v-64v-64v-64v-64v-64v-64h-64z" />
    <glyph glyph-name="SF420000" unicode="&#x2560;" 
d="M384 -256h-64v64v64v64v64v64v64v64v64v64h64h64h64h64v-64h-64h-64v-64v-64v-64v-64v-64v-64v-64v-64h-64zM192 -256h-64v64v64v64v64v64v64v64v64v64v64v64v64v64v64v64v64h64h64v-64v-64v-64v-64v-64v-64v-64v-64v-64v-64v-64v-64v-64v-64v-64v-64h-64zM512 448h64
v-64h-64h-64h-64h-64v64v64v64v64v64v64h64h64v-64v-64v-64v-64v-64h64z" />
    <glyph glyph-name="SF190000" unicode="&#x2561;" 
d="M256 -256h-64v64v64v64v64v64v64v64v64h-64h-64h-64v64h64h64h64v64h-64h-64h-64v64h64h64h64v64v64v64v64v64h64h64v-64v-64v-64v-64v-64v-64v-64v-64v-64v-64v-64v-64v-64v-64v-64v-64h-64z" />
    <glyph glyph-name="SF200000" unicode="&#x2562;" 
d="M384 -256h-64v64v64v64v64v64v64v64v64v64v64v64v64v64v64v64v64h64h64v-64v-64v-64v-64v-64v-64v-64v-64v-64v-64v-64v-64v-64v-64v-64v-64h-64zM192 -256h-64v64v64v64v64v64v64v64v64h-64h-64v64h64h64v64v64v64v64v64v64v64h64h64v-64v-64v-64v-64v-64v-64v-64v-64
v-64v-64v-64v-64v-64v-64v-64v-64h-64z" />
    <glyph glyph-name="SF230000" unicode="&#x2563;" 
d="M384 -256h-64v64v64v64v64v64v64v64v64v64v64v64v64v64v64v64v64h64h64v-64v-64v-64v-64v-64v-64v-64v-64v-64v-64v-64v-64v-64v-64v-64v-64h-64zM192 -256h-64v64v64v64v64v64v64v64v64h-64h-64v64h64h64h64h64v-64v-64v-64v-64v-64v-64v-64v-64v-64h-64zM192 384h-64
h-64h-64v64h64h64v64v64v64v64v64h64h64v-64v-64v-64v-64v-64v-64h-64z" />
    <glyph glyph-name="SF470000" unicode="&#x2564;" 
d="M256 -256h-64v64v64v64v64v64v64v64v64h-64h-64h-64v64h64h64h64h64h64h64h64h64h64v-64h-64h-64h-64h-64v-64v-64v-64v-64v-64v-64v-64v-64h-64zM512 448h64v-64h-64h-64h-64h-64h-64h-64h-64h-64h-64v64h64h64h64h64h64h64h64h64z" />
    <glyph glyph-name="SF480000" unicode="&#x2565;" 
d="M384 -256h-64v64v64v64v64v64v64v64v64h-64v-64v-64v-64v-64v-64v-64v-64v-64h-64h-64v64v64v64v64v64v64v64v64h-64h-64v64h64h64h64h64h64h64h64h64h64v-64h-64h-64v-64v-64v-64v-64v-64v-64v-64v-64h-64z" />
    <glyph glyph-name="SF410000" unicode="&#x2566;" 
d="M384 -256h-64v64v64v64v64v64v64v64v64v64h64h64h64h64v-64h-64h-64v-64v-64v-64v-64v-64v-64v-64v-64h-64zM192 -256h-64v64v64v64v64v64v64v64v64h-64h-64v64h64h64h64h64v-64v-64v-64v-64v-64v-64v-64v-64v-64h-64zM512 448h64v-64h-64h-64h-64h-64h-64h-64h-64h-64
h-64v64h64h64h64h64h64h64h64h64z" />
    <glyph glyph-name="SF450000" unicode="&#x2567;" 
d="M512 320h64v-64h-64h-64h-64h-64h-64h-64h-64h-64h-64v64h64h64h64h64h64h64h64h64zM512 448h64v-64h-64h-64h-64h-64h-64h-64h-64h-64h-64v64h64h64h64v64v64v64h64h64v-64v-64v-64h64h64h64z" />
    <glyph glyph-name="SF460000" unicode="&#x2568;" 
d="M512 320h64v-64h-64h-64h-64h-64h-64h-64h-64h-64h-64v64h64h64v64v64v64v64v64v64v64h64h64v-64v-64v-64v-64v-64v-64v-64h64v64v64v64v64v64v64v64h64h64v-64v-64v-64v-64v-64v-64v-64h64z" />
    <glyph glyph-name="SF400000" unicode="&#x2569;" 
d="M512 320h64v-64h-64h-64h-64h-64h-64h-64h-64h-64h-64v64h64h64h64h64h64h64h64h64zM512 448h64v-64h-64h-64h-64h-64v64v64v64v64v64v64h64h64v-64v-64v-64v-64v-64h64zM192 384h-64h-64h-64v64h64h64v64v64v64v64v64h64h64v-64v-64v-64v-64v-64v-64h-64z" />
    <glyph glyph-name="SF540000" unicode="&#x256a;" 
d="M256 -256h-64v64v64v64v64v64v64v64v64h-64h-64h-64v64h64h64h64v64h-64h-64h-64v64h64h64h64v64v64v64v64v64h64h64v-64v-64v-64v-64v-64h64h64h64h64v-64h-64h-64h-64h-64v-64h64h64h64h64v-64h-64h-64h-64h-64v-64v-64v-64v-64v-64v-64v-64v-64h-64z" />
    <glyph glyph-name="SF530000" unicode="&#x256b;" 
d="M384 -256h-64v64v64v64v64v64v64v64v64h-64v-64v-64v-64v-64v-64v-64v-64v-64h-64h-64v64v64v64v64v64v64v64v64h-64h-64v64h64h64v64v64v64v64v64v64v64h64h64v-64v-64v-64v-64v-64v-64v-64h64v64v64v64v64v64v64v64h64h64v-64v-64v-64v-64v-64v-64v-64h64h64v-64h-64
h-64v-64v-64v-64v-64v-64v-64v-64v-64h-64z" />
    <glyph glyph-name="SF440000" unicode="&#x256c;" 
d="M384 -256h-64v64v64v64v64v64v64v64v64v64h64h64h64h64v-64h-64h-64v-64v-64v-64v-64v-64v-64v-64v-64h-64zM192 -256h-64v64v64v64v64v64v64v64v64h-64h-64v64h64h64h64h64v-64v-64v-64v-64v-64v-64v-64v-64v-64h-64zM512 448h64v-64h-64h-64h-64h-64v64v64v64v64v64v64
h64h64v-64v-64v-64v-64v-64h64zM192 384h-64h-64h-64v64h64h64v64v64v64v64v64h64h64v-64v-64v-64v-64v-64v-64h-64z" />
    <glyph glyph-name="upblock" unicode="&#x2580;" 
d="M512 320h-64h-64h-64h-64h-64h-64h-64h-64v64v64v64v64v64v64v64h64h64h64h64h64h64h64h64h64v-64v-64v-64v-64v-64v-64v-64h-64z" />
    <glyph glyph-name="dnblock" unicode="&#x2584;" 
d="M512 -256h-64h-64h-64h-64h-64h-64h-64h-64v64v64v64v64v64v64v64v64v64h64h64h64h64h64h64h64h64h64v-64v-64v-64v-64v-64v-64v-64v-64v-64h-64z" />
    <glyph glyph-name="block" unicode="&#x2588;" 
d="M512 -256h-64h-64h-64h-64h-64h-64h-64h-64v64v64v64v64v64v64v64v64v64v64v64v64v64v64v64v64h64h64h64h64h64h64h64h64h64v-64v-64v-64v-64v-64v-64v-64v-64v-64v-64v-64v-64v-64v-64v-64v-64h-64z" />
    <glyph glyph-name="lfblock" unicode="&#x258c;" 
d="M192 -256h-64h-64h-64v64v64v64v64v64v64v64v64v64v64v64v64v64v64v64v64h64h64h64h64v-64v-64v-64v-64v-64v-64v-64v-64v-64v-64v-64v-64v-64v-64v-64v-64h-64z" />
    <glyph glyph-name="rtblock" unicode="&#x2590;" 
d="M512 -256h-64h-64h-64h-64v64v64v64v64v64v64v64v64v64v64v64v64v64v64v64v64h64h64h64h64h64v-64v-64v-64v-64v-64v-64v-64v-64v-64v-64v-64v-64v-64v-64v-64v-64h-64z" />
    <glyph glyph-name="ltshade" unicode="&#x2591;" 
d="M320 -256v64h64v-64h-64zM64 -256v64h64v-64h-64zM448 -192v64h64v-64h-64zM192 -192v64h64v-64h-64zM320 -128v64h64v-64h-64zM64 -128v64h64v-64h-64zM448 -64v64h64v-64h-64zM192 -64v64h64v-64h-64zM320 0v64h64v-64h-64zM64 0v64h64v-64h-64zM448 64v64h64v-64h-64z
M192 64v64h64v-64h-64zM320 128v64h64v-64h-64zM64 128v64h64v-64h-64zM448 192v64h64v-64h-64zM192 192v64h64v-64h-64zM320 256v64h64v-64h-64zM64 256v64h64v-64h-64zM448 320v64h64v-64h-64zM192 320v64h64v-64h-64zM320 384v64h64v-64h-64zM64 384v64h64v-64h-64z
M448 448v64h64v-64h-64zM192 448v64h64v-64h-64zM320 512v64h64v-64h-64zM64 512v64h64v-64h-64zM448 576v64h64v-64h-64zM192 576v64h64v-64h-64zM320 640v64h64v-64h-64zM64 640v64h64v-64h-64zM448 704v64h64v-64h-64zM192 704v64h64v-64h-64z" />
    <glyph glyph-name="shade" unicode="&#x2592;" 
d="M384 -256v64h64v-64h-64zM256 -256v64h64v-64h-64zM128 -256v64h64v-64h-64zM0 -256v64h64v-64h-64zM448 -192v64h64v-64h-64zM384 -192h-64v64h64v-64zM256 -192h-64v64h64v-64zM128 -192h-64v64h64v-64zM448 -128h-64v64h64v-64zM320 -128h-64v64h64v-64zM192 -128h-64
v64h64v-64zM64 -128h-64v64h64v-64zM448 -64v64h64v-64h-64zM384 -64h-64v64h64v-64zM256 -64h-64v64h64v-64zM128 -64h-64v64h64v-64zM448 0h-64v64h64v-64zM320 0h-64v64h64v-64zM192 0h-64v64h64v-64zM64 0h-64v64h64v-64zM448 64v64h64v-64h-64zM384 64h-64v64h64v-64z
M256 64h-64v64h64v-64zM128 64h-64v64h64v-64zM448 128h-64v64h64v-64zM320 128h-64v64h64v-64zM192 128h-64v64h64v-64zM64 128h-64v64h64v-64zM448 192v64h64v-64h-64zM384 192h-64v64h64v-64zM256 192h-64v64h64v-64zM128 192h-64v64h64v-64zM448 256h-64v64h64v-64z
M320 256h-64v64h64v-64zM192 256h-64v64h64v-64zM64 256h-64v64h64v-64zM448 320v64h64v-64h-64zM384 320h-64v64h64v-64zM256 320h-64v64h64v-64zM128 320h-64v64h64v-64zM448 384h-64v64h64v-64zM320 384h-64v64h64v-64zM192 384h-64v64h64v-64zM64 384h-64v64h64v-64z
M448 448v64h64v-64h-64zM384 448h-64v64h64v-64zM256 448h-64v64h64v-64zM128 448h-64v64h64v-64zM448 512h-64v64h64v-64zM320 512h-64v64h64v-64zM192 512h-64v64h64v-64zM64 512h-64v64h64v-64zM448 576v64h64v-64h-64zM384 576h-64v64h64v-64zM256 576h-64v64h64v-64z
M128 576h-64v64h64v-64zM448 640h-64v64h64v-64zM320 640h-64v64h64v-64zM192 640h-64v64h64v-64zM64 640h-64v64h64v-64zM448 704v64h64v-64h-64zM384 704h-64v64h64v-64zM256 704h-64v64h64v-64zM128 704h-64v64h64v-64z" />
    <glyph glyph-name="dkshade" unicode="&#x2593;" 
d="M448 -256h-64h-64v64h-64v-64h-64h-64h-64v64h-64v64h64v64h-64v64h64v64h-64v64h64v64h-64v64h64v64h-64v64h64v64h-64v64h64v64h-64v64h64v64h-64v64h64h64v-64h64v64h64h64h64v-64h64v64h64v-64v-64v-64v-64v-64v-64v-64v-64v-64v-64v-64v-64v-64v-64v-64v-64h-64z
M448 -192v64h-64v-64h64zM192 -192v64h-64v-64h64zM320 -128v64h-64v-64h64zM448 -64v64h-64v-64h64zM192 -64v64h-64v-64h64zM320 0v64h-64v-64h64zM448 64v64h-64v-64h64zM192 64v64h-64v-64h64zM320 128v64h-64v-64h64zM448 192v64h-64v-64h64zM192 192v64h-64v-64h64z
M320 256v64h-64v-64h64zM448 320v64h-64v-64h64zM192 320v64h-64v-64h64zM320 384v64h-64v-64h64zM448 448v64h-64v-64h64zM192 448v64h-64v-64h64zM320 512v64h-64v-64h64zM448 576v64h-64v-64h64zM192 576v64h-64v-64h64zM320 640v64h-64v-64h64z" />
    <glyph glyph-name="filledbox" unicode="&#x25a0;" 
d="M384 64h-64h-64h-64h-64h-64v64v64v64v64v64v64v64h64h64h64h64h64h64v-64v-64v-64v-64v-64v-64v-64h-64z" />
    <glyph glyph-name="filledrect" unicode="&#x25ac;" 
d="M448 64h-64h-64h-64h-64h-64h-64v64v64v64h64h64h64h64h64h64h64v-64v-64v-64h-64z" />
    <glyph glyph-name="triagup" unicode="&#x25b2;" 
d="M448 64h-64h-64h-64h-64h-64h-64v64v64h64v64v64h64v64v64h64v64h64v-64h64v-64v-64h64v-64v-64h64v-64v-64h-64z" />
    <glyph glyph-name="triagrt" unicode="&#x25ba;" 
d="M64 0v64v64v64v64v64v64v64v64v64v64v64h64v-64h64v-64h64v-64h64v-64h64v-64h64h64v-64h-64h-64v-64h-64v-64h-64v-64h-64v-64h-64v-64h-64z" />
    <glyph glyph-name="triagdn" unicode="&#x25bc;" 
d="M256 64v64h-64v64v64h-64v64v64h-64v64v64h64h64h64h64h64h64h64v-64v-64h-64v-64v-64h-64v-64v-64h-64v-64h-64z" />
    <glyph glyph-name="triaglf" unicode="&#x25c4;" 
d="M448 0v64h-64v64h-64v64h-64v64h-64v64h-64h-64v64h64h64v64h64v64h64v64h64v64h64v64h64v-64v-64v-64v-64v-64v-64v-64v-64v-64v-64v-64h-64z" />
    <glyph glyph-name="circle" unicode="&#x25cb;" 
d="M320 64h-64h-64h-64v64h-64v64v64v64v64h64v64h64h64h64h64v-64h64v-64v-64v-64v-64h-64v-64h-64zM256 128h64v64h64v64v64h-64v64h-64h-64v-64h-64v-64v-64h64v-64h64z" />
    <glyph glyph-name="invbullet" unicode="&#x25d8;" 
d="M448 -256h-64h-64h-64h-64h-64h-64h-64v64v64v64v64v64v64v64v64v64v64v64v64v64v64v64v64h64h64h64h64h64h64h64h64v-64v-64v-64v-64v-64v-64v-64v-64v-64v-64v-64v-64v-64v-64v-64v-64h-64zM256 128h64v64h64v64v64h-64v64h-64h-64v-64h-64v-64v-64h64v-64h64z" />
    <glyph glyph-name="invcircle" unicode="&#x25d9;" 
d="M448 -256h-64h-64h-64h-64h-64h-64h-64v64v64v64v64v64v64v64v64v64v64v64v64v64v64v64v64h64h64h64h64h64h64h64h64v-64v-64v-64v-64v-64v-64v-64v-64v-64v-64v-64v-64v-64v-64v-64v-64h-64zM320 64h64v64h64v64v64v64v64h-64v64h-64h-64h-64h-64v-64h-64v-64v-64v-64
v-64h64v-64h64h64h64zM256 128h-64v64h-64v64v64h64v64h64h64v-64h64v-64v-64h-64v-64h-64z" />
    <glyph glyph-name="smileface" unicode="&#x263a;" 
d="M320 448v64h64v-64h-64zM128 448v64h64v-64h-64zM384 64h64v-64h-64h-64h-64h-64h-64h-64v64h64h64h64h64h64zM448 64v64v64v64v64v64v64v64v64h64v-64v-64v-64v-64v-64v-64v-64v-64h-64zM64 64h-64v64v64v64v64v64v64v64v64h64v-64v-64v-64v-64v-64v-64v-64v-64z
M256 192h-64v64h-64v64h64h64h64h64v-64h-64v-64h-64zM448 576h-64h-64h-64h-64h-64h-64v64h64h64h64h64h64h64v-64z" />
    <glyph glyph-name="invsmileface" unicode="&#x263b;" 
d="M384 0h-64h-64h-64h-64h-64v64h-64v64v64v64v64v64v64v64v64h64v64h64h64h64h64h64h64v-64h64v-64v-64v-64v-64v-64v-64v-64v-64h-64v-64h-64zM256 192h64v64h64v64h-64h-64h-64h-64v-64h64v-64h64zM384 448v64h-64v-64h64zM192 448v64h-64v-64h64z" />
    <glyph glyph-name="sun" unicode="&#x263c;" 
d="M256 0h-64v64v64v64h-64v-64h-64h-64v64h64h64v64h-64h-64v64h64h64v64h64v64v64v64h64h64v-64v-64v-64h64v-64h64h64v-64h-64h-64v-64h64h64v-64h-64h-64v64h-64v-64v-64v-64h-64zM256 256h64v64h-64h-64v-64h64zM448 448h64v-64h-64h-64v64h64zM128 384h-64h-64v64h64
h64v-64z" />
    <glyph glyph-name="female" unicode="&#x2640;" 
d="M256 0h-64v64v64h-64h-64v64h64h64v64h-64v64h-64v64v64v64v64h64v64h64h64h64h64v-64h64v-64v-64v-64v-64h-64v-64h-64v-64h64h64v-64h-64h-64v-64v-64h-64zM256 320h64v64v64v64v64h-64h-64v-64v-64v-64v-64h64z" />
    <glyph glyph-name="male" unicode="&#x2642;" 
d="M448 384v64v64h-64v-64h-64v-64h64v-64h64v-64v-64v-64v-64h-64v-64h-64h-64h-64h-64v64h-64v64v64v64v64h64v64h64v64h64v64h64v64h-64v64h64h64h64h64v-64v-64v-64v-64h-64zM256 64h64v64v64v64v64h-64h-64v-64v-64v-64v-64h64z" />
    <glyph glyph-name="spade" unicode="&#x2660;" 
d="M320 0h-64h-64h-64v64h64v64v64h-64h-64v64h-64v64v64h64v64h64v64h64v64h64h64v-64h64v-64h64v-64h64v-64v-64h-64v-64h-64h-64v-64v-64h64v-64h-64z" />
    <glyph glyph-name="club" unicode="&#x2663;" 
d="M320 0h-64h-64h-64v64h64v64v64h64h64v-64v-64h64v-64h-64zM448 192h-64h-64v64v64v64h-64h-64v-64v-64v-64h-64h-64h-64v64v64v64h64h64v64v64h64v64h64h64v-64h64v-64v-64h64h64v-64v-64v-64h-64z" />
    <glyph glyph-name="heart" unicode="&#x2665;" 
d="M256 0v64h-64v64h-64v64h-64v64v64v64v64h64v64h64h64v-64h64v64h64h64v-64h64v-64v-64v-64v-64h-64v-64h-64v-64h-64v-64h-64z" />
    <glyph glyph-name="diamond" unicode="&#x2666;" 
d="M256 64v64h-64v64h-64v64h-64v64h64v64h64v64h64v64h64v-64h64v-64h64v-64h64v-64h-64v-64h-64v-64h-64v-64h-64z" />
    <glyph glyph-name="musicalnote" unicode="&#x266a;" 
d="M128 0h-64h-64v64v64h64v64h64v64v64v64v64v64v64v64h64h64h64h64h64h64v-64v-64v-64h-64h-64h-64h-64v-64v-64v-64v-64v-64v-64h-64v-64h-64zM320 512h64v64h-64h-64v-64h64z" />
    <glyph glyph-name="musicalnotedbl" unicode="&#x266b;" 
d="M64 0h-64v64v64v64h64v64v64v64v64v64v64v64h64h64h64h64h64h64h64v-64v-64v-64v-64v-64v-64v-64v-64h-64v-64h-64h-64v64v64v64h64v64v64v64h-64h-64h-64v-64v-64v-64v-64v-64v-64h-64v-64h-64zM320 512h64v64h-64h-64h-64v-64h64h64z" />
    <glyph glyph-name="uni2713" unicode="&#x2713;" 
d="M192 0h-64v64h-64v64h-64v64v64h64v-64h64v-64h64v64v64h64v64v64v64v64h64v64v64v64h64h64v-64v-64v-64h-64v-64v-64v-64v-64h-64v-64v-64v-64h-64v-64h-64z" />
    <glyph glyph-name="uni3000" unicode="&#x3000;" 
 />
    <glyph glyph-name=".null" horiz-adv-x="0" 
 />
    <glyph glyph-name="nonmarkingreturn" 
 />
  </font>
</defs>
</svg>
